%
M48
M72
T01C0.0138
T02C0.0197
%
T01
X5463Y5096
X5991Y4347
X7518Y5087
X7289Y6497
X5641Y6647
X5291Y6097
X5991Y10074
X5463Y10824
X5291Y11824
X5641Y12374
X7289Y12224
X7518Y10815
X10428Y11824
X10778Y12374
X10600Y10824
X11128Y10074
X12655Y10815
X12426Y12224
X15565Y11824
X15915Y12374
X15737Y10824
X16265Y10074
X17792Y10815
X17563Y12224
X20702Y11824
X21052Y12374
X22700Y12224
X22929Y10815
X21402Y10074
X20874Y10824
X21052Y6647
X20702Y6097
X20874Y5096
X21402Y4347
X22929Y5087
X22700Y6497
X25839Y6097
X26189Y6647
X26011Y5096
X26539Y4347
X28066Y5087
X27837Y6497
X30976Y6097
X31326Y6647
X31148Y5096
X31676Y4347
X33203Y5087
X32974Y6497
X31676Y10074
X31148Y10824
X30976Y11824
X31326Y12374
X32974Y12224
X33203Y10815
X28066Y10815
X27837Y12224
X26189Y12374
X25839Y11824
X26011Y10824
X26539Y10074
X26539Y15802
X26011Y16551
X25839Y17552
X26189Y18102
X27837Y17952
X28066Y16542
X30976Y17552
X31326Y18102
X31148Y16551
X31676Y15802
X33203Y16542
X32974Y17952
X31676Y21530
X31148Y22279
X30976Y23280
X31326Y23830
X32974Y23680
X33203Y22270
X28066Y22270
X27837Y23680
X26189Y23830
X25839Y23280
X26011Y22279
X26539Y21530
X22929Y22270
X22700Y23680
X21052Y23830
X20702Y23280
X20874Y22279
X21402Y21530
X21052Y18102
X20702Y17552
X20874Y16551
X21402Y15802
X22929Y16542
X22700Y17952
X17792Y16542
X17563Y17952
X15915Y18102
X15565Y17552
X15737Y16551
X16265Y15802
X12655Y16542
X12426Y17952
X10778Y18102
X10428Y17552
X10600Y16551
X11128Y15802
X7518Y16542
X7289Y17952
X5641Y18102
X5291Y17552
X5463Y16551
X5991Y15802
X5991Y21530
X5463Y22279
X5291Y23280
X5641Y23830
X7289Y23680
X7518Y22270
X10428Y23280
X10778Y23830
X10600Y22279
X11128Y21530
X12655Y22270
X12426Y23680
X15565Y23280
X15915Y23830
X15737Y22279
X16265Y21530
X17792Y22270
X17563Y23680
X16265Y27257
X15737Y28007
X15565Y29007
X15915Y29557
X17563Y29407
X17792Y27997
X20702Y29007
X21052Y29557
X22700Y29407
X22929Y27997
X21402Y27257
X20874Y28007
X25839Y29007
X26189Y29557
X27837Y29407
X28066Y27997
X26539Y27257
X26011Y28007
X30976Y29007
X31326Y29557
X31148Y28007
X31676Y27257
X33203Y27997
X32974Y29407
X12655Y27997
X12426Y29407
X10778Y29557
X10428Y29007
X10600Y28007
X11128Y27257
X7518Y27997
X7289Y29407
X5641Y29557
X5291Y29007
X5463Y28007
X5991Y27257
X10778Y6647
X10428Y6097
X10600Y5096
X11128Y4347
X12655Y5087
X12426Y6497
X15565Y6097
X15915Y6647
X15737Y5096
X16265Y4347
X17792Y5087
X17563Y6497
T02
X4441Y4480
X4441Y4913
X4874Y4913
X4874Y4480
X4874Y5346
X4874Y5779
X4874Y6212
X4874Y6645
X4874Y7078
X4874Y7511
X4874Y7944
X4441Y7944
X4441Y7511
X4441Y7078
X4441Y6645
X4441Y6212
X4441Y5779
X4441Y5346
X7944Y5346
X7944Y5779
X7944Y6212
X7944Y6645
X8378Y6645
X8378Y6212
X8378Y5779
X8378Y5346
X8378Y4913
X8378Y4480
X7944Y4480
X7944Y4913
X9578Y4913
X10011Y4913
X10011Y4480
X9578Y4480
X9578Y5346
X10011Y5346
X10011Y5779
X10011Y6212
X10011Y6645
X9578Y6645
X9578Y6212
X9578Y5779
X9578Y7078
X10011Y7078
X10011Y7511
X9578Y7511
X9578Y7944
X10011Y7944
X8378Y7944
X8378Y7511
X8378Y7078
X7944Y7078
X7944Y7511
X7944Y7944
X7944Y10207
X7944Y10641
X7944Y11074
X7944Y11507
X7944Y11940
X8378Y11940
X8378Y11507
X8378Y11074
X8378Y10641
X8378Y10207
X9578Y10207
X10011Y10207
X10011Y10641
X10011Y11074
X10011Y11507
X10011Y11940
X9578Y11940
X9578Y11507
X9578Y11074
X9578Y10641
X9578Y12373
X10011Y12373
X10011Y12806
X10011Y13239
X10011Y13672
X9578Y13672
X9578Y13239
X9578Y12806
X8378Y12806
X8378Y13239
X8378Y13672
X7944Y13672
X7944Y13239
X7944Y12806
X7944Y12373
X8378Y12373
X4874Y12373
X4874Y12806
X4874Y13239
X4874Y13672
X4441Y13672
X4441Y13239
X4441Y12806
X4441Y12373
X4441Y11940
X4441Y11507
X4441Y11074
X4441Y10641
X4441Y10207
X4874Y10207
X4874Y10641
X4874Y11074
X4874Y11507
X4874Y11940
X4874Y15935
X4874Y16368
X4874Y16801
X4874Y17234
X4874Y17667
X4874Y18100
X4874Y18533
X4874Y18967
X4874Y19400
X4441Y19400
X4441Y18967
X4441Y18533
X4441Y18100
X4441Y17667
X4441Y17234
X4441Y16801
X4441Y16368
X4441Y15935
X7944Y15935
X7944Y16368
X7944Y16801
X8378Y16801
X8378Y16368
X8378Y15935
X9578Y15935
X10011Y15935
X10011Y16368
X10011Y16801
X9578Y16801
X9578Y16368
X9578Y17234
X10011Y17234
X10011Y17667
X10011Y18100
X9578Y18100
X9578Y17667
X9578Y18533
X10011Y18533
X10011Y18967
X9578Y18967
X9578Y19400
X10011Y19400
X8378Y19400
X7944Y19400
X7944Y18967
X7944Y18533
X7944Y18100
X7944Y17667
X7944Y17234
X8378Y17234
X8378Y17667
X8378Y18100
X8378Y18533
X8378Y18967
X8378Y21663
X8378Y22096
X7944Y22096
X7944Y21663
X7944Y22529
X7944Y22962
X7944Y23395
X7944Y23828
X8378Y23828
X8378Y23395
X8378Y22962
X8378Y22529
X9578Y22529
X10011Y22529
X10011Y22962
X10011Y23395
X10011Y23828
X9578Y23828
X9578Y23395
X9578Y22962
X9578Y22096
X10011Y22096
X10011Y21663
X9578Y21663
X9578Y24261
X10011Y24261
X10011Y24694
X10011Y25127
X9578Y25127
X9578Y24694
X8378Y24694
X8378Y24261
X7944Y24261
X7944Y24694
X7944Y25127
X8378Y25127
X8378Y27390
X7944Y27390
X7944Y27823
X7944Y28256
X7944Y28689
X7944Y29122
X8378Y29122
X8378Y28689
X8378Y28256
X8378Y27823
X9578Y27823
X10011Y27823
X10011Y28256
X10011Y28689
X9578Y28689
X9578Y28256
X9578Y29122
X10011Y29122
X10011Y29556
X10011Y29989
X10011Y30422
X10011Y30855
X9578Y30855
X9578Y30422
X9578Y29989
X9578Y29556
X8378Y29556
X8378Y29989
X8378Y30422
X8378Y30855
X7944Y30855
X7944Y30422
X7944Y29989
X7944Y29556
X9578Y27390
X10011Y27390
X13081Y27390
X13515Y27390
X13515Y27823
X13515Y28256
X13515Y28689
X13515Y29122
X13081Y29122
X13081Y28689
X13081Y28256
X13081Y27823
X14715Y27823
X15148Y27823
X15148Y28256
X15148Y28689
X14715Y28689
X14715Y28256
X14715Y29122
X15148Y29122
X15148Y29556
X15148Y29989
X15148Y30422
X15148Y30855
X14715Y30855
X14715Y30422
X14715Y29989
X14715Y29556
X13515Y29556
X13515Y29989
X13515Y30422
X13515Y30855
X13081Y30855
X13081Y30422
X13081Y29989
X13081Y29556
X14715Y27390
X15148Y27390
X15148Y25127
X15148Y24694
X15148Y24261
X14715Y24261
X14715Y24694
X14715Y25127
X13515Y25127
X13515Y24694
X13515Y24261
X13081Y24261
X13081Y24694
X13081Y25127
X13081Y23828
X13081Y23395
X13081Y22962
X13081Y22529
X13515Y22529
X13515Y22962
X13515Y23395
X13515Y23828
X14715Y23828
X15148Y23828
X15148Y23395
X15148Y22962
X15148Y22529
X14715Y22529
X14715Y22962
X14715Y23395
X14715Y22096
X15148Y22096
X15148Y21663
X14715Y21663
X13515Y21663
X13515Y22096
X13081Y22096
X13081Y21663
X13081Y19400
X13515Y19400
X13515Y18967
X13081Y18967
X13081Y18533
X13081Y18100
X13081Y17667
X13081Y17234
X13515Y17234
X13515Y17667
X13515Y18100
X13515Y18533
X14715Y18533
X14715Y18100
X15148Y18100
X15148Y17667
X15148Y17234
X14715Y17234
X14715Y17667
X15148Y18533
X15148Y18967
X14715Y18967
X14715Y19400
X15148Y19400
X15148Y16801
X15148Y16368
X15148Y15935
X14715Y15935
X14715Y16368
X14715Y16801
X13515Y16801
X13515Y16368
X13515Y15935
X13081Y15935
X13081Y16368
X13081Y16801
X13081Y13672
X13081Y13239
X13081Y12806
X13081Y12373
X13515Y12373
X13515Y12806
X13515Y13239
X13515Y13672
X14715Y13672
X15148Y13672
X15148Y13239
X15148Y12806
X15148Y12373
X14715Y12373
X14715Y12806
X14715Y13239
X14715Y11940
X15148Y11940
X15148Y11507
X15148Y11074
X14715Y11074
X14715Y11507
X14715Y10641
X15148Y10641
X15148Y10207
X14715Y10207
X13515Y10207
X13081Y10207
X13081Y10641
X13081Y11074
X13081Y11507
X13081Y11940
X13515Y11940
X13515Y11507
X13515Y11074
X13515Y10641
X13515Y7944
X13515Y7511
X13515Y7078
X13081Y7078
X13081Y7511
X13081Y7944
X13081Y6645
X13081Y6212
X13081Y5779
X13081Y5346
X13515Y5346
X13515Y5779
X13515Y6212
X13515Y6645
X14715Y6645
X15148Y6645
X15148Y6212
X15148Y5779
X15148Y5346
X14715Y5346
X14715Y5779
X14715Y6212
X14715Y7078
X15148Y7078
X15148Y7511
X14715Y7511
X14715Y7944
X15148Y7944
X18219Y7944
X18652Y7944
X18652Y7511
X18652Y7078
X18219Y7078
X18219Y7511
X18219Y6645
X18652Y6645
X18652Y6212
X18652Y5779
X18652Y5346
X18219Y5346
X18219Y5779
X18219Y6212
X18219Y4913
X18652Y4913
X18652Y4480
X18219Y4480
X19852Y4480
X20285Y4480
X20285Y4913
X19852Y4913
X19852Y5346
X20285Y5346
X20285Y5779
X20285Y6212
X20285Y6645
X19852Y6645
X19852Y6212
X19852Y5779
X19852Y7078
X20285Y7078
X20285Y7511
X19852Y7511
X19852Y7944
X20285Y7944
X20285Y10207
X19852Y10207
X19852Y10641
X19852Y11074
X20285Y11074
X20285Y11507
X20285Y11940
X19852Y11940
X19852Y11507
X20285Y10641
X18652Y10641
X18652Y11074
X18652Y11507
X18652Y11940
X18219Y11940
X18219Y11507
X18219Y11074
X18219Y10641
X18219Y10207
X18652Y10207
X18652Y12373
X18652Y12806
X18652Y13239
X18652Y13672
X18219Y13672
X18219Y13239
X18219Y12806
X18219Y12373
X19852Y12373
X20285Y12373
X20285Y12806
X20285Y13239
X20285Y13672
X19852Y13672
X19852Y13239
X19852Y12806
X19852Y15935
X20285Y15935
X20285Y16368
X20285Y16801
X19852Y16801
X19852Y16368
X19852Y17234
X20285Y17234
X20285Y17667
X20285Y18100
X19852Y18100
X19852Y17667
X19852Y18533
X20285Y18533
X20285Y18967
X19852Y18967
X19852Y19400
X20285Y19400
X18652Y19400
X18219Y19400
X18219Y18967
X18652Y18967
X18652Y18533
X18652Y18100
X18652Y17667
X18652Y17234
X18219Y17234
X18219Y17667
X18219Y18100
X18219Y18533
X18219Y16801
X18652Y16801
X18652Y16368
X18652Y15935
X18219Y15935
X18219Y16368
X23356Y16368
X23789Y16368
X23789Y15935
X23356Y15935
X23356Y16801
X23789Y16801
X23789Y17234
X23789Y17667
X23789Y18100
X23789Y18533
X23356Y18533
X23356Y18100
X23356Y17667
X23356Y17234
X24989Y17234
X24989Y17667
X24989Y18100
X24989Y18533
X24989Y18967
X24989Y19400
X25422Y19400
X25422Y18967
X25422Y18533
X25422Y18100
X25422Y17667
X25422Y17234
X25422Y16801
X25422Y16368
X25422Y15935
X24989Y15935
X24989Y16368
X24989Y16801
X23789Y18967
X23356Y18967
X23356Y19400
X23789Y19400
X23789Y21663
X23789Y22096
X23356Y22096
X23356Y21663
X23356Y22529
X23789Y22529
X23789Y22962
X23789Y23395
X23789Y23828
X23356Y23828
X23356Y23395
X23356Y22962
X23356Y24261
X23789Y24261
X23789Y24694
X23789Y25127
X23356Y25127
X23356Y24694
X24989Y24694
X24989Y24261
X25422Y24261
X25422Y24694
X25422Y25127
X24989Y25127
X24989Y23828
X24989Y23395
X24989Y22962
X24989Y22529
X25422Y22529
X25422Y22962
X25422Y23395
X25422Y23828
X25422Y22096
X25422Y21663
X24989Y21663
X24989Y22096
X28493Y22096
X28926Y22096
X28926Y21663
X28493Y21663
X28493Y22529
X28926Y22529
X28926Y22962
X28926Y23395
X28926Y23828
X28493Y23828
X28493Y23395
X28493Y22962
X28493Y24261
X28926Y24261
X28926Y24694
X28926Y25127
X28493Y25127
X28493Y24694
X30126Y24694
X30559Y24694
X30559Y24261
X30126Y24261
X30126Y23828
X30559Y23828
X30559Y23395
X30559Y22962
X30559Y22529
X30126Y22529
X30126Y22962
X30126Y23395
X30126Y22096
X30559Y22096
X30559Y21663
X30126Y21663
X30126Y19400
X30559Y19400
X30559Y18967
X30126Y18967
X30126Y18533
X30126Y18100
X30559Y18100
X30559Y17667
X30559Y17234
X30126Y17234
X30126Y17667
X30559Y18533
X28926Y18533
X28926Y18100
X28926Y17667
X28926Y17234
X28493Y17234
X28493Y17667
X28493Y18100
X28493Y18533
X28493Y18967
X28926Y18967
X28926Y19400
X28493Y19400
X28493Y16801
X28926Y16801
X28926Y16368
X28926Y15935
X28493Y15935
X28493Y16368
X30126Y16368
X30559Y16368
X30559Y15935
X30126Y15935
X30126Y16801
X30559Y16801
X33630Y16801
X34063Y16801
X34063Y16368
X34063Y15935
X33630Y15935
X33630Y16368
X33630Y17234
X34063Y17234
X34063Y17667
X34063Y18100
X34063Y18533
X33630Y18533
X33630Y18100
X33630Y17667
X33630Y18967
X34063Y18967
X34063Y19400
X33630Y19400
X33630Y21663
X34063Y21663
X34063Y22096
X33630Y22096
X33630Y22529
X34063Y22529
X34063Y22962
X34063Y23395
X34063Y23828
X33630Y23828
X33630Y23395
X33630Y22962
X33630Y24261
X34063Y24261
X34063Y24694
X34063Y25127
X33630Y25127
X33630Y24694
X33630Y27390
X34063Y27390
X34063Y27823
X34063Y28256
X34063Y28689
X34063Y29122
X33630Y29122
X33630Y28689
X33630Y28256
X33630Y27823
X33630Y29556
X33630Y29989
X34063Y29989
X34063Y30422
X34063Y30855
X33630Y30855
X33630Y30422
X34063Y29556
X30559Y29556
X30559Y29989
X30559Y30422
X30559Y30855
X30126Y30855
X30126Y30422
X30126Y29989
X30126Y29556
X30126Y29122
X30126Y28689
X30559Y28689
X30559Y28256
X30559Y27823
X30126Y27823
X30126Y28256
X30559Y29122
X28926Y29122
X28926Y28689
X28926Y28256
X28926Y27823
X28493Y27823
X28493Y28256
X28493Y28689
X28493Y29122
X28493Y29556
X28493Y29989
X28926Y29989
X28926Y30422
X28926Y30855
X28493Y30855
X28493Y30422
X28926Y29556
X28926Y27390
X28493Y27390
X30126Y27390
X30559Y27390
X30559Y25127
X30126Y25127
X25422Y27390
X25422Y27823
X25422Y28256
X25422Y28689
X25422Y29122
X24989Y29122
X24989Y28689
X24989Y28256
X24989Y27823
X24989Y27390
X23789Y27390
X23356Y27390
X23356Y27823
X23789Y27823
X23789Y28256
X23789Y28689
X23789Y29122
X23356Y29122
X23356Y28689
X23356Y28256
X23356Y29556
X23789Y29556
X23789Y29989
X23789Y30422
X23789Y30855
X23356Y30855
X23356Y30422
X23356Y29989
X24989Y29989
X24989Y30422
X24989Y30855
X25422Y30855
X25422Y30422
X25422Y29989
X25422Y29556
X24989Y29556
X20285Y29556
X20285Y29989
X20285Y30422
X20285Y30855
X19852Y30855
X19852Y30422
X19852Y29989
X19852Y29556
X19852Y29122
X19852Y28689
X20285Y28689
X20285Y28256
X20285Y27823
X19852Y27823
X19852Y28256
X20285Y29122
X18652Y29122
X18652Y28689
X18652Y28256
X18652Y27823
X18219Y27823
X18219Y28256
X18219Y28689
X18219Y29122
X18219Y29556
X18652Y29556
X18652Y29989
X18652Y30422
X18652Y30855
X18219Y30855
X18219Y30422
X18219Y29989
X18219Y27390
X18652Y27390
X19852Y27390
X20285Y27390
X20285Y25127
X20285Y24694
X20285Y24261
X19852Y24261
X19852Y24694
X19852Y25127
X18652Y25127
X18652Y24694
X18652Y24261
X18219Y24261
X18219Y24694
X18219Y25127
X18219Y23828
X18652Y23828
X18652Y23395
X18652Y22962
X18652Y22529
X18219Y22529
X18219Y22962
X18219Y23395
X18219Y22096
X18652Y22096
X18652Y21663
X18219Y21663
X19852Y21663
X20285Y21663
X20285Y22096
X19852Y22096
X19852Y22529
X20285Y22529
X20285Y22962
X20285Y23395
X20285Y23828
X19852Y23828
X19852Y23395
X19852Y22962
X23356Y13672
X23789Y13672
X23789Y13239
X23789Y12806
X23789Y12373
X23356Y12373
X23356Y12806
X23356Y13239
X23356Y11940
X23789Y11940
X23789Y11507
X23789Y11074
X23789Y10641
X23356Y10641
X23356Y11074
X23356Y11507
X23356Y10207
X23789Y10207
X24989Y10207
X24989Y10641
X24989Y11074
X24989Y11507
X24989Y11940
X25422Y11940
X25422Y11507
X25422Y11074
X25422Y10641
X25422Y10207
X25422Y12373
X25422Y12806
X25422Y13239
X25422Y13672
X24989Y13672
X24989Y13239
X24989Y12806
X24989Y12373
X28493Y12373
X28926Y12373
X28926Y12806
X28926Y13239
X28926Y13672
X28493Y13672
X28493Y13239
X28493Y12806
X28493Y11940
X28926Y11940
X28926Y11507
X28926Y11074
X28926Y10641
X28493Y10641
X28493Y11074
X28493Y11507
X28493Y10207
X28926Y10207
X30126Y10207
X30559Y10207
X30559Y10641
X30559Y11074
X30559Y11507
X30559Y11940
X30126Y11940
X30126Y11507
X30126Y11074
X30126Y10641
X30126Y12373
X30559Y12373
X30559Y12806
X30559Y13239
X30559Y13672
X30126Y13672
X30126Y13239
X30126Y12806
X33630Y12806
X34063Y12806
X34063Y13239
X34063Y13672
X33630Y13672
X33630Y13239
X33630Y12373
X34063Y12373
X34063Y11940
X34063Y11507
X34063Y11074
X34063Y10641
X33630Y10641
X33630Y11074
X33630Y11507
X33630Y11940
X33630Y10207
X34063Y10207
X34063Y7944
X34063Y7511
X34063Y7078
X33630Y7078
X33630Y7511
X33630Y7944
X33630Y6645
X34063Y6645
X34063Y6212
X34063Y5779
X34063Y5346
X33630Y5346
X33630Y5779
X33630Y6212
X33630Y4913
X34063Y4913
X34063Y4480
X33630Y4480
X30559Y4480
X30559Y4913
X30126Y4913
X30126Y4480
X30126Y5346
X30559Y5346
X30559Y5779
X30559Y6212
X30559Y6645
X30126Y6645
X30126Y6212
X30126Y5779
X28926Y5779
X28926Y5346
X28493Y5346
X28493Y5779
X28493Y6212
X28926Y6212
X28926Y6645
X28493Y6645
X28493Y7078
X28926Y7078
X28926Y7511
X28493Y7511
X28493Y7944
X28926Y7944
X30126Y7944
X30126Y7511
X30126Y7078
X30559Y7078
X30559Y7511
X30559Y7944
X28926Y4913
X28926Y4480
X28493Y4480
X28493Y4913
X25422Y4913
X25422Y4480
X24989Y4480
X24989Y4913
X24989Y5346
X24989Y5779
X24989Y6212
X24989Y6645
X25422Y6645
X25422Y6212
X25422Y5779
X25422Y5346
X23789Y5346
X23789Y5779
X23789Y6212
X23789Y6645
X23356Y6645
X23356Y6212
X23356Y5779
X23356Y5346
X23356Y4913
X23789Y4913
X23789Y4480
X23356Y4480
X23356Y7078
X23789Y7078
X23789Y7511
X23789Y7944
X23356Y7944
X23356Y7511
X24989Y7511
X24989Y7078
X25422Y7078
X25422Y7511
X25422Y7944
X24989Y7944
X15148Y4913
X15148Y4480
X14715Y4480
X14715Y4913
X13515Y4913
X13515Y4480
X13081Y4480
X13081Y4913
X4874Y21663
X4874Y22096
X4874Y22529
X4874Y22962
X4874Y23395
X4874Y23828
X4874Y24261
X4874Y24694
X4874Y25127
X4441Y25127
X4441Y24694
X4441Y24261
X4441Y23828
X4441Y23395
X4441Y22962
X4441Y22529
X4441Y22096
X4441Y21663
X4441Y27390
X4874Y27390
X4874Y27823
X4874Y28256
X4874Y28689
X4874Y29122
X4441Y29122
X4441Y28689
X4441Y28256
X4441Y27823
X4441Y29556
X4441Y29989
X4441Y30422
X4441Y30855
X4874Y30855
X4874Y30422
X4874Y29989
X4874Y29556
M30
