G75*
%MOIN*%
%OFA0B0*%
%FSLAX25Y25*%
%IPPOS*%
%LPD*%
%AMOC8*
5,1,8,0,0,1.08239X$1,22.5*
%
%ADD10C,0.00700*%
%ADD11C,0.00800*%
%ADD12C,0.00400*%
%ADD13R,0.02953X0.02953*%
%ADD14C,0.00500*%
D10*
X0044755Y0081763D02*
X0045194Y0081763D01*
X0045194Y0082202D01*
X0044755Y0082202D01*
X0044755Y0081763D01*
X0096126Y0081763D02*
X0096564Y0081763D01*
X0096564Y0082202D01*
X0096126Y0082202D01*
X0096126Y0081763D01*
X0147496Y0081763D02*
X0147935Y0081763D01*
X0147935Y0082202D01*
X0147496Y0082202D01*
X0147496Y0081763D01*
X0198866Y0081763D02*
X0199305Y0081763D01*
X0199305Y0082202D01*
X0198866Y0082202D01*
X0198866Y0081763D01*
X0250236Y0081763D02*
X0250675Y0081763D01*
X0250675Y0082202D01*
X0250236Y0082202D01*
X0250236Y0081763D01*
X0301606Y0081763D02*
X0302045Y0081763D01*
X0302045Y0082202D01*
X0301606Y0082202D01*
X0301606Y0081763D01*
X0301606Y0139039D02*
X0302045Y0139039D01*
X0302045Y0139478D01*
X0301606Y0139478D01*
X0301606Y0139039D01*
X0250675Y0139039D02*
X0250236Y0139039D01*
X0250236Y0139478D01*
X0250675Y0139478D01*
X0250675Y0139039D01*
X0199305Y0139039D02*
X0198866Y0139039D01*
X0198866Y0139478D01*
X0199305Y0139478D01*
X0199305Y0139039D01*
X0147935Y0139039D02*
X0147496Y0139039D01*
X0147496Y0139478D01*
X0147935Y0139478D01*
X0147935Y0139039D01*
X0096564Y0139039D02*
X0096126Y0139039D01*
X0096126Y0139478D01*
X0096564Y0139478D01*
X0096564Y0139039D01*
X0045194Y0139039D02*
X0044755Y0139039D01*
X0044755Y0139478D01*
X0045194Y0139478D01*
X0045194Y0139039D01*
X0045194Y0196315D02*
X0044755Y0196315D01*
X0044755Y0196753D01*
X0045194Y0196753D01*
X0045194Y0196315D01*
X0096126Y0196315D02*
X0096564Y0196315D01*
X0096564Y0196753D01*
X0096126Y0196753D01*
X0096126Y0196315D01*
X0147496Y0196315D02*
X0147935Y0196315D01*
X0147935Y0196753D01*
X0147496Y0196753D01*
X0147496Y0196315D01*
X0198866Y0196315D02*
X0199305Y0196315D01*
X0199305Y0196753D01*
X0198866Y0196753D01*
X0198866Y0196315D01*
X0250236Y0196315D02*
X0250675Y0196315D01*
X0250675Y0196753D01*
X0250236Y0196753D01*
X0250236Y0196315D01*
X0301606Y0196315D02*
X0302045Y0196315D01*
X0302045Y0196753D01*
X0301606Y0196753D01*
X0301606Y0196315D01*
X0301606Y0253590D02*
X0302045Y0253590D01*
X0302045Y0254029D01*
X0301606Y0254029D01*
X0301606Y0253590D01*
X0250675Y0253590D02*
X0250236Y0253590D01*
X0250236Y0254029D01*
X0250675Y0254029D01*
X0250675Y0253590D01*
X0199305Y0253590D02*
X0198866Y0253590D01*
X0198866Y0254029D01*
X0199305Y0254029D01*
X0199305Y0253590D01*
X0147935Y0253590D02*
X0147496Y0253590D01*
X0147496Y0254029D01*
X0147935Y0254029D01*
X0147935Y0253590D01*
X0096564Y0253590D02*
X0096126Y0253590D01*
X0096126Y0254029D01*
X0096564Y0254029D01*
X0096564Y0253590D01*
X0045194Y0253590D02*
X0044755Y0253590D01*
X0044755Y0254029D01*
X0045194Y0254029D01*
X0045194Y0253590D01*
X0045194Y0310866D02*
X0044755Y0310866D01*
X0044755Y0311305D01*
X0045194Y0311305D01*
X0045194Y0310866D01*
X0096126Y0310866D02*
X0096564Y0310866D01*
X0096564Y0311305D01*
X0096126Y0311305D01*
X0096126Y0310866D01*
X0147496Y0310866D02*
X0147935Y0310866D01*
X0147935Y0311305D01*
X0147496Y0311305D01*
X0147496Y0310866D01*
X0198866Y0310866D02*
X0199305Y0310866D01*
X0199305Y0311305D01*
X0198866Y0311305D01*
X0198866Y0310866D01*
X0250236Y0310866D02*
X0250675Y0310866D01*
X0250675Y0311305D01*
X0250236Y0311305D01*
X0250236Y0310866D01*
X0301606Y0310866D02*
X0302045Y0310866D01*
X0302045Y0311305D01*
X0301606Y0311305D01*
X0301606Y0310866D01*
D11*
X0316256Y0295777D02*
X0316256Y0292371D01*
X0321256Y0292371D01*
X0321256Y0295777D01*
X0316256Y0295777D01*
X0322256Y0295771D02*
X0322256Y0292365D01*
X0327256Y0292365D01*
X0327256Y0295771D01*
X0322256Y0295771D01*
X0275886Y0295771D02*
X0275886Y0292365D01*
X0270886Y0292365D01*
X0270886Y0295771D01*
X0275886Y0295771D01*
X0269886Y0295777D02*
X0269886Y0292371D01*
X0264886Y0292371D01*
X0264886Y0295777D01*
X0269886Y0295777D01*
X0224516Y0295771D02*
X0224516Y0292365D01*
X0219516Y0292365D01*
X0219516Y0295771D01*
X0224516Y0295771D01*
X0218516Y0295777D02*
X0218516Y0292371D01*
X0213516Y0292371D01*
X0213516Y0295777D01*
X0218516Y0295777D01*
X0173146Y0295771D02*
X0173146Y0292365D01*
X0168146Y0292365D01*
X0168146Y0295771D01*
X0173146Y0295771D01*
X0167146Y0295777D02*
X0167146Y0292371D01*
X0162146Y0292371D01*
X0162146Y0295777D01*
X0167146Y0295777D01*
X0121776Y0295771D02*
X0121776Y0292365D01*
X0116776Y0292365D01*
X0116776Y0295771D01*
X0121776Y0295771D01*
X0115776Y0295777D02*
X0115776Y0292371D01*
X0110776Y0292371D01*
X0110776Y0295777D01*
X0115776Y0295777D01*
X0070405Y0295771D02*
X0070405Y0292365D01*
X0065405Y0292365D01*
X0065405Y0295771D01*
X0070405Y0295771D01*
X0064405Y0295777D02*
X0064405Y0292371D01*
X0059405Y0292371D01*
X0059405Y0295777D01*
X0064405Y0295777D01*
X0064405Y0238502D02*
X0059405Y0238502D01*
X0059405Y0235095D01*
X0064405Y0235095D01*
X0064405Y0238502D01*
X0065405Y0238495D02*
X0070405Y0238495D01*
X0070405Y0235089D01*
X0065405Y0235089D01*
X0065405Y0238495D01*
X0110776Y0238502D02*
X0110776Y0235095D01*
X0115776Y0235095D01*
X0115776Y0238502D01*
X0110776Y0238502D01*
X0116776Y0238495D02*
X0116776Y0235089D01*
X0121776Y0235089D01*
X0121776Y0238495D01*
X0116776Y0238495D01*
X0162146Y0238502D02*
X0162146Y0235095D01*
X0167146Y0235095D01*
X0167146Y0238502D01*
X0162146Y0238502D01*
X0168146Y0238495D02*
X0168146Y0235089D01*
X0173146Y0235089D01*
X0173146Y0238495D01*
X0168146Y0238495D01*
X0213516Y0238502D02*
X0213516Y0235095D01*
X0218516Y0235095D01*
X0218516Y0238502D01*
X0213516Y0238502D01*
X0219516Y0238495D02*
X0219516Y0235089D01*
X0224516Y0235089D01*
X0224516Y0238495D01*
X0219516Y0238495D01*
X0264886Y0238502D02*
X0264886Y0235095D01*
X0269886Y0235095D01*
X0269886Y0238502D01*
X0264886Y0238502D01*
X0270886Y0238495D02*
X0270886Y0235089D01*
X0275886Y0235089D01*
X0275886Y0238495D01*
X0270886Y0238495D01*
X0316256Y0238502D02*
X0316256Y0235095D01*
X0321256Y0235095D01*
X0321256Y0238502D01*
X0316256Y0238502D01*
X0322256Y0238495D02*
X0322256Y0235089D01*
X0327256Y0235089D01*
X0327256Y0238495D01*
X0322256Y0238495D01*
X0322256Y0181220D02*
X0327256Y0181220D01*
X0327256Y0177813D01*
X0322256Y0177813D01*
X0322256Y0181220D01*
X0321256Y0181226D02*
X0321256Y0177820D01*
X0316256Y0177820D01*
X0316256Y0181226D01*
X0321256Y0181226D01*
X0275886Y0181220D02*
X0275886Y0177813D01*
X0270886Y0177813D01*
X0270886Y0181220D01*
X0275886Y0181220D01*
X0269886Y0181226D02*
X0269886Y0177820D01*
X0264886Y0177820D01*
X0264886Y0181226D01*
X0269886Y0181226D01*
X0224516Y0181220D02*
X0224516Y0177813D01*
X0219516Y0177813D01*
X0219516Y0181220D01*
X0224516Y0181220D01*
X0218516Y0181226D02*
X0218516Y0177820D01*
X0213516Y0177820D01*
X0213516Y0181226D01*
X0218516Y0181226D01*
X0173146Y0181220D02*
X0173146Y0177813D01*
X0168146Y0177813D01*
X0168146Y0181220D01*
X0173146Y0181220D01*
X0167146Y0181226D02*
X0167146Y0177820D01*
X0162146Y0177820D01*
X0162146Y0181226D01*
X0167146Y0181226D01*
X0121776Y0181220D02*
X0121776Y0177813D01*
X0116776Y0177813D01*
X0116776Y0181220D01*
X0121776Y0181220D01*
X0115776Y0181226D02*
X0115776Y0177820D01*
X0110776Y0177820D01*
X0110776Y0181226D01*
X0115776Y0181226D01*
X0070405Y0181220D02*
X0070405Y0177813D01*
X0065405Y0177813D01*
X0065405Y0181220D01*
X0070405Y0181220D01*
X0064405Y0181226D02*
X0064405Y0177820D01*
X0059405Y0177820D01*
X0059405Y0181226D01*
X0064405Y0181226D01*
X0064405Y0123950D02*
X0059405Y0123950D01*
X0059405Y0120544D01*
X0064405Y0120544D01*
X0064405Y0123950D01*
X0065405Y0123944D02*
X0070405Y0123944D01*
X0070405Y0120538D01*
X0065405Y0120538D01*
X0065405Y0123944D01*
X0110776Y0123950D02*
X0110776Y0120544D01*
X0115776Y0120544D01*
X0115776Y0123950D01*
X0110776Y0123950D01*
X0116776Y0123944D02*
X0116776Y0120538D01*
X0121776Y0120538D01*
X0121776Y0123944D01*
X0116776Y0123944D01*
X0162146Y0123950D02*
X0162146Y0120544D01*
X0167146Y0120544D01*
X0167146Y0123950D01*
X0162146Y0123950D01*
X0168146Y0123944D02*
X0168146Y0120538D01*
X0173146Y0120538D01*
X0173146Y0123944D01*
X0168146Y0123944D01*
X0213516Y0123950D02*
X0213516Y0120544D01*
X0218516Y0120544D01*
X0218516Y0123950D01*
X0213516Y0123950D01*
X0219516Y0123944D02*
X0219516Y0120538D01*
X0224516Y0120538D01*
X0224516Y0123944D01*
X0219516Y0123944D01*
X0264886Y0123950D02*
X0264886Y0120544D01*
X0269886Y0120544D01*
X0269886Y0123950D01*
X0264886Y0123950D01*
X0270886Y0123944D02*
X0270886Y0120538D01*
X0275886Y0120538D01*
X0275886Y0123944D01*
X0270886Y0123944D01*
X0316256Y0123950D02*
X0316256Y0120544D01*
X0321256Y0120544D01*
X0321256Y0123950D01*
X0316256Y0123950D01*
X0322256Y0123944D02*
X0322256Y0120538D01*
X0327256Y0120538D01*
X0327256Y0123944D01*
X0322256Y0123944D01*
X0322256Y0066669D02*
X0327256Y0066669D01*
X0327256Y0063262D01*
X0322256Y0063262D01*
X0322256Y0066669D01*
X0321256Y0066675D02*
X0321256Y0063269D01*
X0316256Y0063269D01*
X0316256Y0066675D01*
X0321256Y0066675D01*
X0275886Y0066669D02*
X0275886Y0063262D01*
X0270886Y0063262D01*
X0270886Y0066669D01*
X0275886Y0066669D01*
X0269886Y0066675D02*
X0269886Y0063269D01*
X0264886Y0063269D01*
X0264886Y0066675D01*
X0269886Y0066675D01*
X0224516Y0066669D02*
X0224516Y0063262D01*
X0219516Y0063262D01*
X0219516Y0066669D01*
X0224516Y0066669D01*
X0218516Y0066675D02*
X0218516Y0063269D01*
X0213516Y0063269D01*
X0213516Y0066675D01*
X0218516Y0066675D01*
X0173146Y0066669D02*
X0173146Y0063262D01*
X0168146Y0063262D01*
X0168146Y0066669D01*
X0173146Y0066669D01*
X0167146Y0066675D02*
X0167146Y0063269D01*
X0162146Y0063269D01*
X0162146Y0066675D01*
X0167146Y0066675D01*
X0121776Y0066669D02*
X0121776Y0063262D01*
X0116776Y0063262D01*
X0116776Y0066669D01*
X0121776Y0066669D01*
X0115776Y0066675D02*
X0115776Y0063269D01*
X0110776Y0063269D01*
X0110776Y0066675D01*
X0115776Y0066675D01*
X0070405Y0066669D02*
X0070405Y0063262D01*
X0065405Y0063262D01*
X0065405Y0066669D01*
X0070405Y0066669D01*
X0064405Y0066675D02*
X0064405Y0063269D01*
X0059405Y0063269D01*
X0059405Y0066675D01*
X0064405Y0066675D01*
D12*
X0060772Y0047063D02*
X0059000Y0047063D01*
X0059000Y0048835D01*
X0058016Y0057004D02*
X0058016Y0059858D01*
X0060870Y0059858D01*
X0068941Y0059858D02*
X0071795Y0059858D01*
X0071795Y0057004D01*
X0071795Y0048933D02*
X0071795Y0046079D01*
X0068941Y0046079D01*
X0110370Y0047063D02*
X0112142Y0047063D01*
X0110370Y0047063D02*
X0110370Y0048835D01*
X0109386Y0057004D02*
X0109386Y0059858D01*
X0112240Y0059858D01*
X0120311Y0059858D02*
X0123165Y0059858D01*
X0123165Y0057004D01*
X0123165Y0048933D02*
X0123165Y0046079D01*
X0120311Y0046079D01*
X0161740Y0047063D02*
X0163512Y0047063D01*
X0161740Y0047063D02*
X0161740Y0048835D01*
X0160756Y0057004D02*
X0160756Y0059858D01*
X0163610Y0059858D01*
X0171681Y0059858D02*
X0174535Y0059858D01*
X0174535Y0057004D01*
X0174535Y0048933D02*
X0174535Y0046079D01*
X0171681Y0046079D01*
X0212126Y0057004D02*
X0212126Y0059858D01*
X0214980Y0059858D01*
X0223051Y0059858D02*
X0225905Y0059858D01*
X0225905Y0057004D01*
X0225905Y0048933D02*
X0225905Y0046079D01*
X0223051Y0046079D01*
X0214882Y0047063D02*
X0213110Y0047063D01*
X0213110Y0048835D01*
X0263496Y0057004D02*
X0263496Y0059858D01*
X0266350Y0059858D01*
X0274421Y0059858D02*
X0277276Y0059858D01*
X0277276Y0057004D01*
X0277276Y0048933D02*
X0277276Y0046079D01*
X0274421Y0046079D01*
X0266252Y0047063D02*
X0264480Y0047063D01*
X0264480Y0048835D01*
X0314866Y0057004D02*
X0314866Y0059858D01*
X0317720Y0059858D01*
X0325791Y0059858D02*
X0328646Y0059858D01*
X0328646Y0057004D01*
X0328646Y0048933D02*
X0328646Y0046079D01*
X0325791Y0046079D01*
X0317622Y0047063D02*
X0315850Y0047063D01*
X0315850Y0048835D01*
X0325791Y0103354D02*
X0328646Y0103354D01*
X0328646Y0106209D01*
X0328646Y0114280D02*
X0328646Y0117134D01*
X0325791Y0117134D01*
X0317720Y0117134D02*
X0314866Y0117134D01*
X0314866Y0114280D01*
X0315850Y0106110D02*
X0315850Y0104339D01*
X0317622Y0104339D01*
X0277276Y0103354D02*
X0277276Y0106209D01*
X0277276Y0103354D02*
X0274421Y0103354D01*
X0266252Y0104339D02*
X0264480Y0104339D01*
X0264480Y0106110D01*
X0263496Y0114280D02*
X0263496Y0117134D01*
X0266350Y0117134D01*
X0274421Y0117134D02*
X0277276Y0117134D01*
X0277276Y0114280D01*
X0277276Y0160630D02*
X0274421Y0160630D01*
X0277276Y0160630D02*
X0277276Y0163484D01*
X0277276Y0171555D02*
X0277276Y0174409D01*
X0274421Y0174409D01*
X0266350Y0174409D02*
X0263496Y0174409D01*
X0263496Y0171555D01*
X0264480Y0163386D02*
X0264480Y0161614D01*
X0266252Y0161614D01*
X0225905Y0160630D02*
X0225905Y0163484D01*
X0225905Y0160630D02*
X0223051Y0160630D01*
X0214882Y0161614D02*
X0213110Y0161614D01*
X0213110Y0163386D01*
X0212126Y0171555D02*
X0212126Y0174409D01*
X0214980Y0174409D01*
X0223051Y0174409D02*
X0225905Y0174409D01*
X0225905Y0171555D01*
X0225905Y0217906D02*
X0223051Y0217906D01*
X0225905Y0217906D02*
X0225905Y0220760D01*
X0225905Y0228831D02*
X0225905Y0231685D01*
X0223051Y0231685D01*
X0214980Y0231685D02*
X0212126Y0231685D01*
X0212126Y0228831D01*
X0213110Y0220661D02*
X0213110Y0218890D01*
X0214882Y0218890D01*
X0174535Y0217906D02*
X0174535Y0220760D01*
X0174535Y0217906D02*
X0171681Y0217906D01*
X0163512Y0218890D02*
X0161740Y0218890D01*
X0161740Y0220661D01*
X0160756Y0228831D02*
X0160756Y0231685D01*
X0163610Y0231685D01*
X0171681Y0231685D02*
X0174535Y0231685D01*
X0174535Y0228831D01*
X0174535Y0275181D02*
X0174535Y0278035D01*
X0174535Y0275181D02*
X0171681Y0275181D01*
X0163512Y0276165D02*
X0161740Y0276165D01*
X0161740Y0277937D01*
X0160756Y0286106D02*
X0160756Y0288961D01*
X0163610Y0288961D01*
X0171681Y0288961D02*
X0174535Y0288961D01*
X0174535Y0286106D01*
X0212126Y0286106D02*
X0212126Y0288961D01*
X0214980Y0288961D01*
X0223051Y0288961D02*
X0225905Y0288961D01*
X0225905Y0286106D01*
X0225905Y0278035D02*
X0225905Y0275181D01*
X0223051Y0275181D01*
X0214882Y0276165D02*
X0213110Y0276165D01*
X0213110Y0277937D01*
X0263496Y0286106D02*
X0263496Y0288961D01*
X0266350Y0288961D01*
X0274421Y0288961D02*
X0277276Y0288961D01*
X0277276Y0286106D01*
X0277276Y0278035D02*
X0277276Y0275181D01*
X0274421Y0275181D01*
X0266252Y0276165D02*
X0264480Y0276165D01*
X0264480Y0277937D01*
X0263496Y0231685D02*
X0263496Y0228831D01*
X0263496Y0231685D02*
X0266350Y0231685D01*
X0274421Y0231685D02*
X0277276Y0231685D01*
X0277276Y0228831D01*
X0277276Y0220760D02*
X0277276Y0217906D01*
X0274421Y0217906D01*
X0266252Y0218890D02*
X0264480Y0218890D01*
X0264480Y0220661D01*
X0314866Y0228831D02*
X0314866Y0231685D01*
X0317720Y0231685D01*
X0325791Y0231685D02*
X0328646Y0231685D01*
X0328646Y0228831D01*
X0328646Y0220760D02*
X0328646Y0217906D01*
X0325791Y0217906D01*
X0317622Y0218890D02*
X0315850Y0218890D01*
X0315850Y0220661D01*
X0314866Y0174409D02*
X0314866Y0171555D01*
X0314866Y0174409D02*
X0317720Y0174409D01*
X0325791Y0174409D02*
X0328646Y0174409D01*
X0328646Y0171555D01*
X0328646Y0163484D02*
X0328646Y0160630D01*
X0325791Y0160630D01*
X0317622Y0161614D02*
X0315850Y0161614D01*
X0315850Y0163386D01*
X0225905Y0117134D02*
X0225905Y0114280D01*
X0225905Y0117134D02*
X0223051Y0117134D01*
X0214980Y0117134D02*
X0212126Y0117134D01*
X0212126Y0114280D01*
X0213110Y0106110D02*
X0213110Y0104339D01*
X0214882Y0104339D01*
X0223051Y0103354D02*
X0225905Y0103354D01*
X0225905Y0106209D01*
X0174535Y0106209D02*
X0174535Y0103354D01*
X0171681Y0103354D01*
X0163512Y0104339D02*
X0161740Y0104339D01*
X0161740Y0106110D01*
X0160756Y0114280D02*
X0160756Y0117134D01*
X0163610Y0117134D01*
X0171681Y0117134D02*
X0174535Y0117134D01*
X0174535Y0114280D01*
X0174535Y0160630D02*
X0174535Y0163484D01*
X0174535Y0160630D02*
X0171681Y0160630D01*
X0163512Y0161614D02*
X0161740Y0161614D01*
X0161740Y0163386D01*
X0160756Y0171555D02*
X0160756Y0174409D01*
X0163610Y0174409D01*
X0171681Y0174409D02*
X0174535Y0174409D01*
X0174535Y0171555D01*
X0123165Y0171555D02*
X0123165Y0174409D01*
X0120311Y0174409D01*
X0112240Y0174409D02*
X0109386Y0174409D01*
X0109386Y0171555D01*
X0110370Y0163386D02*
X0110370Y0161614D01*
X0112142Y0161614D01*
X0120311Y0160630D02*
X0123165Y0160630D01*
X0123165Y0163484D01*
X0123165Y0117134D02*
X0120311Y0117134D01*
X0123165Y0117134D02*
X0123165Y0114280D01*
X0123165Y0106209D02*
X0123165Y0103354D01*
X0120311Y0103354D01*
X0112142Y0104339D02*
X0110370Y0104339D01*
X0110370Y0106110D01*
X0109386Y0114280D02*
X0109386Y0117134D01*
X0112240Y0117134D01*
X0071795Y0117134D02*
X0071795Y0114280D01*
X0071795Y0117134D02*
X0068941Y0117134D01*
X0060870Y0117134D02*
X0058016Y0117134D01*
X0058016Y0114280D01*
X0059000Y0106110D02*
X0059000Y0104339D01*
X0060772Y0104339D01*
X0068941Y0103354D02*
X0071795Y0103354D01*
X0071795Y0106209D01*
X0071795Y0160630D02*
X0068941Y0160630D01*
X0071795Y0160630D02*
X0071795Y0163484D01*
X0071795Y0171555D02*
X0071795Y0174409D01*
X0068941Y0174409D01*
X0060870Y0174409D02*
X0058016Y0174409D01*
X0058016Y0171555D01*
X0059000Y0163386D02*
X0059000Y0161614D01*
X0060772Y0161614D01*
X0068941Y0217906D02*
X0071795Y0217906D01*
X0071795Y0220760D01*
X0071795Y0228831D02*
X0071795Y0231685D01*
X0068941Y0231685D01*
X0060870Y0231685D02*
X0058016Y0231685D01*
X0058016Y0228831D01*
X0059000Y0220661D02*
X0059000Y0218890D01*
X0060772Y0218890D01*
X0110370Y0218890D02*
X0112142Y0218890D01*
X0110370Y0218890D02*
X0110370Y0220661D01*
X0109386Y0228831D02*
X0109386Y0231685D01*
X0112240Y0231685D01*
X0120311Y0231685D02*
X0123165Y0231685D01*
X0123165Y0228831D01*
X0123165Y0220760D02*
X0123165Y0217906D01*
X0120311Y0217906D01*
X0120311Y0275181D02*
X0123165Y0275181D01*
X0123165Y0278035D01*
X0123165Y0286106D02*
X0123165Y0288961D01*
X0120311Y0288961D01*
X0112240Y0288961D02*
X0109386Y0288961D01*
X0109386Y0286106D01*
X0110370Y0277937D02*
X0110370Y0276165D01*
X0112142Y0276165D01*
X0071795Y0275181D02*
X0071795Y0278035D01*
X0071795Y0275181D02*
X0068941Y0275181D01*
X0060772Y0276165D02*
X0059000Y0276165D01*
X0059000Y0277937D01*
X0058016Y0286106D02*
X0058016Y0288961D01*
X0060870Y0288961D01*
X0068941Y0288961D02*
X0071795Y0288961D01*
X0071795Y0286106D01*
X0314866Y0286106D02*
X0314866Y0288961D01*
X0317720Y0288961D01*
X0325791Y0288961D02*
X0328646Y0288961D01*
X0328646Y0286106D01*
X0328646Y0278035D02*
X0328646Y0275181D01*
X0325791Y0275181D01*
X0317622Y0276165D02*
X0315850Y0276165D01*
X0315850Y0277937D01*
D13*
X0316343Y0276658D03*
X0264972Y0276658D03*
X0213602Y0276658D03*
X0162232Y0276658D03*
X0110862Y0276658D03*
X0059492Y0276658D03*
X0059492Y0219382D03*
X0110862Y0219382D03*
X0162232Y0219382D03*
X0213602Y0219382D03*
X0264972Y0219382D03*
X0316343Y0219382D03*
X0316343Y0162106D03*
X0264972Y0162106D03*
X0213602Y0162106D03*
X0162232Y0162106D03*
X0110862Y0162106D03*
X0059492Y0162106D03*
X0059492Y0104831D03*
X0110862Y0104831D03*
X0162232Y0104831D03*
X0213602Y0104831D03*
X0264972Y0104831D03*
X0316343Y0104831D03*
X0316343Y0047555D03*
X0264972Y0047555D03*
X0213602Y0047555D03*
X0162232Y0047555D03*
X0110862Y0047555D03*
X0059492Y0047555D03*
D14*
X0062724Y0073154D02*
X0069417Y0073154D01*
X0077094Y0075713D02*
X0077094Y0080831D01*
X0102087Y0080831D02*
X0102087Y0075713D01*
X0114095Y0073154D02*
X0120787Y0073154D01*
X0128465Y0075713D02*
X0128465Y0080831D01*
X0153457Y0080831D02*
X0153457Y0075713D01*
X0165465Y0073154D02*
X0172158Y0073154D01*
X0179835Y0075713D02*
X0179835Y0080831D01*
X0204827Y0080831D02*
X0204827Y0075713D01*
X0216835Y0073154D02*
X0223528Y0073154D01*
X0231205Y0075713D02*
X0231205Y0080831D01*
X0256197Y0080831D02*
X0256197Y0075713D01*
X0268205Y0073154D02*
X0274898Y0073154D01*
X0282575Y0075713D02*
X0282575Y0080831D01*
X0307567Y0080831D02*
X0307567Y0075713D01*
X0319575Y0073154D02*
X0326268Y0073154D01*
X0333945Y0075713D02*
X0333945Y0080831D01*
X0326268Y0130429D02*
X0319575Y0130429D01*
X0307567Y0132988D02*
X0307567Y0138106D01*
X0282575Y0138106D02*
X0282575Y0132988D01*
X0274898Y0130429D02*
X0268205Y0130429D01*
X0256197Y0132988D02*
X0256197Y0138106D01*
X0231205Y0138106D02*
X0231205Y0132988D01*
X0223528Y0130429D02*
X0216835Y0130429D01*
X0204827Y0132988D02*
X0204827Y0138106D01*
X0179835Y0138106D02*
X0179835Y0132988D01*
X0172158Y0130429D02*
X0165465Y0130429D01*
X0153457Y0132988D02*
X0153457Y0138106D01*
X0128465Y0138106D02*
X0128465Y0132988D01*
X0120787Y0130429D02*
X0114095Y0130429D01*
X0102087Y0132988D02*
X0102087Y0138106D01*
X0077094Y0138106D02*
X0077094Y0132988D01*
X0069417Y0130429D02*
X0062724Y0130429D01*
X0050717Y0132988D02*
X0050717Y0138106D01*
X0062724Y0187705D02*
X0069417Y0187705D01*
X0077094Y0190264D02*
X0077094Y0195382D01*
X0102087Y0195382D02*
X0102087Y0190264D01*
X0114095Y0187705D02*
X0120787Y0187705D01*
X0128465Y0190264D02*
X0128465Y0195382D01*
X0153457Y0195382D02*
X0153457Y0190264D01*
X0165465Y0187705D02*
X0172158Y0187705D01*
X0179835Y0190264D02*
X0179835Y0195382D01*
X0204827Y0195382D02*
X0204827Y0190264D01*
X0216835Y0187705D02*
X0223528Y0187705D01*
X0231205Y0190264D02*
X0231205Y0195382D01*
X0256197Y0195382D02*
X0256197Y0190264D01*
X0268205Y0187705D02*
X0274898Y0187705D01*
X0282575Y0190264D02*
X0282575Y0195382D01*
X0307567Y0195382D02*
X0307567Y0190264D01*
X0319575Y0187705D02*
X0326268Y0187705D01*
X0333945Y0190264D02*
X0333945Y0195382D01*
X0326268Y0244980D02*
X0319575Y0244980D01*
X0307567Y0247539D02*
X0307567Y0252658D01*
X0282575Y0252658D02*
X0282575Y0247539D01*
X0274898Y0244980D02*
X0268205Y0244980D01*
X0256197Y0247539D02*
X0256197Y0252658D01*
X0231205Y0252658D02*
X0231205Y0247539D01*
X0223528Y0244980D02*
X0216835Y0244980D01*
X0204827Y0247539D02*
X0204827Y0252658D01*
X0179835Y0252658D02*
X0179835Y0247539D01*
X0172158Y0244980D02*
X0165465Y0244980D01*
X0153457Y0247539D02*
X0153457Y0252658D01*
X0128465Y0252658D02*
X0128465Y0247539D01*
X0120787Y0244980D02*
X0114095Y0244980D01*
X0102087Y0247539D02*
X0102087Y0252658D01*
X0077094Y0252658D02*
X0077094Y0247539D01*
X0069417Y0244980D02*
X0062724Y0244980D01*
X0050717Y0247539D02*
X0050717Y0252658D01*
X0062724Y0302256D02*
X0069417Y0302256D01*
X0077094Y0304815D02*
X0077094Y0309933D01*
X0102087Y0309933D02*
X0102087Y0304815D01*
X0114095Y0302256D02*
X0120787Y0302256D01*
X0128465Y0304815D02*
X0128465Y0309933D01*
X0153457Y0309933D02*
X0153457Y0304815D01*
X0165465Y0302256D02*
X0172158Y0302256D01*
X0179835Y0304815D02*
X0179835Y0309933D01*
X0204827Y0309933D02*
X0204827Y0304815D01*
X0216835Y0302256D02*
X0223528Y0302256D01*
X0231205Y0304815D02*
X0231205Y0309933D01*
X0256197Y0309933D02*
X0256197Y0304815D01*
X0268205Y0302256D02*
X0274898Y0302256D01*
X0282575Y0304815D02*
X0282575Y0309933D01*
X0307567Y0309933D02*
X0307567Y0304815D01*
X0319575Y0302256D02*
X0326268Y0302256D01*
X0333945Y0304815D02*
X0333945Y0309933D01*
X0333945Y0252658D02*
X0333945Y0247539D01*
X0333945Y0138106D02*
X0333945Y0132988D01*
X0050717Y0080831D02*
X0050717Y0075713D01*
X0050717Y0190264D02*
X0050717Y0195382D01*
X0050717Y0304815D02*
X0050717Y0309933D01*
M02*
