G75*
%MOIN*%
%OFA0B0*%
%FSLAX25Y25*%
%IPPOS*%
%LPD*%
%AMOC8*
5,1,8,0,0,1.08239X$1,22.5*
%
%ADD10R,0.11811X0.03150*%
%ADD11R,0.01181X0.01575*%
%ADD12C,0.00984*%
%ADD13R,0.02756X0.02756*%
%ADD14R,0.00984X0.02559*%
%ADD15R,0.02559X0.00984*%
%ADD16R,0.06693X0.06693*%
%ADD17R,0.03150X0.05906*%
D10*
X0044799Y0044799D03*
X0044799Y0049130D03*
X0044799Y0053461D03*
X0044799Y0057791D03*
X0044799Y0062122D03*
X0044799Y0066453D03*
X0044799Y0070783D03*
X0044799Y0075114D03*
X0044799Y0079445D03*
X0044799Y0102075D03*
X0044799Y0106406D03*
X0044799Y0110736D03*
X0044799Y0115067D03*
X0044799Y0119398D03*
X0044799Y0123728D03*
X0044799Y0128059D03*
X0044799Y0132390D03*
X0044799Y0136720D03*
X0044799Y0159350D03*
X0044799Y0163681D03*
X0044799Y0168012D03*
X0044799Y0172343D03*
X0044799Y0176673D03*
X0044799Y0181004D03*
X0044799Y0185335D03*
X0044799Y0189665D03*
X0044799Y0193996D03*
X0044799Y0216626D03*
X0044799Y0220957D03*
X0044799Y0225287D03*
X0044799Y0229618D03*
X0044799Y0233949D03*
X0044799Y0238280D03*
X0044799Y0242610D03*
X0044799Y0246941D03*
X0044799Y0251272D03*
X0044799Y0273902D03*
X0044799Y0278232D03*
X0044799Y0282563D03*
X0044799Y0286894D03*
X0044799Y0291224D03*
X0044799Y0295555D03*
X0044799Y0299886D03*
X0044799Y0304217D03*
X0044799Y0308547D03*
X0083382Y0308547D03*
X0083382Y0304217D03*
X0083382Y0299886D03*
X0083382Y0295555D03*
X0083382Y0291224D03*
X0083382Y0286894D03*
X0083382Y0282563D03*
X0083382Y0278232D03*
X0083382Y0273902D03*
X0096169Y0273902D03*
X0096169Y0278232D03*
X0096169Y0282563D03*
X0096169Y0286894D03*
X0096169Y0291224D03*
X0096169Y0295555D03*
X0096169Y0299886D03*
X0096169Y0304217D03*
X0096169Y0308547D03*
X0134752Y0308547D03*
X0134752Y0304217D03*
X0134752Y0299886D03*
X0134752Y0295555D03*
X0134752Y0291224D03*
X0134752Y0286894D03*
X0134752Y0282563D03*
X0134752Y0278232D03*
X0134752Y0273902D03*
X0147539Y0273902D03*
X0147539Y0278232D03*
X0147539Y0282563D03*
X0147539Y0286894D03*
X0147539Y0291224D03*
X0147539Y0295555D03*
X0147539Y0299886D03*
X0147539Y0304217D03*
X0147539Y0308547D03*
X0186122Y0308547D03*
X0186122Y0304217D03*
X0186122Y0299886D03*
X0186122Y0295555D03*
X0186122Y0291224D03*
X0186122Y0286894D03*
X0186122Y0282563D03*
X0186122Y0278232D03*
X0186122Y0273902D03*
X0198909Y0273902D03*
X0198909Y0278232D03*
X0198909Y0282563D03*
X0198909Y0286894D03*
X0198909Y0291224D03*
X0198909Y0295555D03*
X0198909Y0299886D03*
X0198909Y0304217D03*
X0198909Y0308547D03*
X0237492Y0308547D03*
X0237492Y0304217D03*
X0237492Y0299886D03*
X0237492Y0295555D03*
X0237492Y0291224D03*
X0237492Y0286894D03*
X0237492Y0282563D03*
X0237492Y0278232D03*
X0237492Y0273902D03*
X0250280Y0273902D03*
X0250280Y0278232D03*
X0250280Y0282563D03*
X0250280Y0286894D03*
X0250280Y0291224D03*
X0250280Y0295555D03*
X0250280Y0299886D03*
X0250280Y0304217D03*
X0250280Y0308547D03*
X0288862Y0308547D03*
X0288862Y0304217D03*
X0288862Y0299886D03*
X0288862Y0295555D03*
X0288862Y0291224D03*
X0288862Y0286894D03*
X0288862Y0282563D03*
X0288862Y0278232D03*
X0288862Y0273902D03*
X0301650Y0273902D03*
X0301650Y0278232D03*
X0301650Y0282563D03*
X0301650Y0286894D03*
X0301650Y0291224D03*
X0301650Y0295555D03*
X0301650Y0299886D03*
X0301650Y0304217D03*
X0301650Y0308547D03*
X0340232Y0308547D03*
X0340232Y0304217D03*
X0340232Y0299886D03*
X0340232Y0295555D03*
X0340232Y0291224D03*
X0340232Y0286894D03*
X0340232Y0282563D03*
X0340232Y0278232D03*
X0340232Y0273902D03*
X0340232Y0251272D03*
X0340232Y0246941D03*
X0340232Y0242610D03*
X0340232Y0238280D03*
X0340232Y0233949D03*
X0340232Y0229618D03*
X0340232Y0225287D03*
X0340232Y0220957D03*
X0340232Y0216626D03*
X0340232Y0193996D03*
X0340232Y0189665D03*
X0340232Y0185335D03*
X0340232Y0181004D03*
X0340232Y0176673D03*
X0340232Y0172343D03*
X0340232Y0168012D03*
X0340232Y0163681D03*
X0340232Y0159350D03*
X0340232Y0136720D03*
X0340232Y0132390D03*
X0340232Y0128059D03*
X0340232Y0123728D03*
X0340232Y0119398D03*
X0340232Y0115067D03*
X0340232Y0110736D03*
X0340232Y0106406D03*
X0340232Y0102075D03*
X0340232Y0079445D03*
X0340232Y0075114D03*
X0340232Y0070783D03*
X0340232Y0066453D03*
X0340232Y0062122D03*
X0340232Y0057791D03*
X0340232Y0053461D03*
X0340232Y0049130D03*
X0340232Y0044799D03*
X0301650Y0044799D03*
X0301650Y0049130D03*
X0301650Y0053461D03*
X0301650Y0057791D03*
X0301650Y0062122D03*
X0301650Y0066453D03*
X0301650Y0070783D03*
X0301650Y0075114D03*
X0301650Y0079445D03*
X0288862Y0079445D03*
X0288862Y0075114D03*
X0288862Y0070783D03*
X0288862Y0066453D03*
X0288862Y0062122D03*
X0288862Y0057791D03*
X0288862Y0053461D03*
X0288862Y0049130D03*
X0288862Y0044799D03*
X0250280Y0044799D03*
X0250280Y0049130D03*
X0250280Y0053461D03*
X0250280Y0057791D03*
X0250280Y0062122D03*
X0250280Y0066453D03*
X0250280Y0070783D03*
X0250280Y0075114D03*
X0250280Y0079445D03*
X0237492Y0079445D03*
X0237492Y0075114D03*
X0237492Y0070783D03*
X0237492Y0066453D03*
X0237492Y0062122D03*
X0237492Y0057791D03*
X0237492Y0053461D03*
X0237492Y0049130D03*
X0237492Y0044799D03*
X0198909Y0044799D03*
X0198909Y0049130D03*
X0198909Y0053461D03*
X0198909Y0057791D03*
X0198909Y0062122D03*
X0198909Y0066453D03*
X0198909Y0070783D03*
X0198909Y0075114D03*
X0198909Y0079445D03*
X0186122Y0079445D03*
X0186122Y0075114D03*
X0186122Y0070783D03*
X0186122Y0066453D03*
X0186122Y0062122D03*
X0186122Y0057791D03*
X0186122Y0053461D03*
X0186122Y0049130D03*
X0186122Y0044799D03*
X0147539Y0044799D03*
X0147539Y0049130D03*
X0147539Y0053461D03*
X0147539Y0057791D03*
X0147539Y0062122D03*
X0147539Y0066453D03*
X0147539Y0070783D03*
X0147539Y0075114D03*
X0147539Y0079445D03*
X0134752Y0079445D03*
X0134752Y0075114D03*
X0134752Y0070783D03*
X0134752Y0066453D03*
X0134752Y0062122D03*
X0134752Y0057791D03*
X0134752Y0053461D03*
X0134752Y0049130D03*
X0134752Y0044799D03*
X0096169Y0044799D03*
X0096169Y0049130D03*
X0096169Y0053461D03*
X0096169Y0057791D03*
X0096169Y0062122D03*
X0096169Y0066453D03*
X0096169Y0070783D03*
X0096169Y0075114D03*
X0096169Y0079445D03*
X0083382Y0079445D03*
X0083382Y0075114D03*
X0083382Y0070783D03*
X0083382Y0066453D03*
X0083382Y0062122D03*
X0083382Y0057791D03*
X0083382Y0053461D03*
X0083382Y0049130D03*
X0083382Y0044799D03*
X0083382Y0102075D03*
X0083382Y0106406D03*
X0083382Y0110736D03*
X0083382Y0115067D03*
X0083382Y0119398D03*
X0083382Y0123728D03*
X0083382Y0128059D03*
X0083382Y0132390D03*
X0083382Y0136720D03*
X0096169Y0136720D03*
X0096169Y0132390D03*
X0096169Y0128059D03*
X0096169Y0123728D03*
X0096169Y0119398D03*
X0096169Y0115067D03*
X0096169Y0110736D03*
X0096169Y0106406D03*
X0096169Y0102075D03*
X0134752Y0102075D03*
X0134752Y0106406D03*
X0134752Y0110736D03*
X0134752Y0115067D03*
X0134752Y0119398D03*
X0134752Y0123728D03*
X0134752Y0128059D03*
X0134752Y0132390D03*
X0134752Y0136720D03*
X0147539Y0136720D03*
X0147539Y0132390D03*
X0147539Y0128059D03*
X0147539Y0123728D03*
X0147539Y0119398D03*
X0147539Y0115067D03*
X0147539Y0110736D03*
X0147539Y0106406D03*
X0147539Y0102075D03*
X0186122Y0102075D03*
X0186122Y0106406D03*
X0186122Y0110736D03*
X0186122Y0115067D03*
X0186122Y0119398D03*
X0186122Y0123728D03*
X0186122Y0128059D03*
X0186122Y0132390D03*
X0186122Y0136720D03*
X0198909Y0136720D03*
X0198909Y0132390D03*
X0198909Y0128059D03*
X0198909Y0123728D03*
X0198909Y0119398D03*
X0198909Y0115067D03*
X0198909Y0110736D03*
X0198909Y0106406D03*
X0198909Y0102075D03*
X0237492Y0102075D03*
X0237492Y0106406D03*
X0237492Y0110736D03*
X0237492Y0115067D03*
X0237492Y0119398D03*
X0237492Y0123728D03*
X0237492Y0128059D03*
X0237492Y0132390D03*
X0237492Y0136720D03*
X0250280Y0136720D03*
X0250280Y0132390D03*
X0250280Y0128059D03*
X0250280Y0123728D03*
X0250280Y0119398D03*
X0250280Y0115067D03*
X0250280Y0110736D03*
X0250280Y0106406D03*
X0250280Y0102075D03*
X0288862Y0102075D03*
X0288862Y0106406D03*
X0288862Y0110736D03*
X0288862Y0115067D03*
X0288862Y0119398D03*
X0288862Y0123728D03*
X0288862Y0128059D03*
X0288862Y0132390D03*
X0288862Y0136720D03*
X0301650Y0136720D03*
X0301650Y0132390D03*
X0301650Y0128059D03*
X0301650Y0123728D03*
X0301650Y0119398D03*
X0301650Y0115067D03*
X0301650Y0110736D03*
X0301650Y0106406D03*
X0301650Y0102075D03*
X0301650Y0159350D03*
X0301650Y0163681D03*
X0301650Y0168012D03*
X0301650Y0172343D03*
X0301650Y0176673D03*
X0301650Y0181004D03*
X0301650Y0185335D03*
X0301650Y0189665D03*
X0301650Y0193996D03*
X0288862Y0193996D03*
X0288862Y0189665D03*
X0288862Y0185335D03*
X0288862Y0181004D03*
X0288862Y0176673D03*
X0288862Y0172343D03*
X0288862Y0168012D03*
X0288862Y0163681D03*
X0288862Y0159350D03*
X0250280Y0159350D03*
X0250280Y0163681D03*
X0250280Y0168012D03*
X0250280Y0172343D03*
X0250280Y0176673D03*
X0250280Y0181004D03*
X0250280Y0185335D03*
X0250280Y0189665D03*
X0250280Y0193996D03*
X0237492Y0193996D03*
X0237492Y0189665D03*
X0237492Y0185335D03*
X0237492Y0181004D03*
X0237492Y0176673D03*
X0237492Y0172343D03*
X0237492Y0168012D03*
X0237492Y0163681D03*
X0237492Y0159350D03*
X0198909Y0159350D03*
X0198909Y0163681D03*
X0198909Y0168012D03*
X0198909Y0172343D03*
X0198909Y0176673D03*
X0198909Y0181004D03*
X0198909Y0185335D03*
X0198909Y0189665D03*
X0198909Y0193996D03*
X0186122Y0193996D03*
X0186122Y0189665D03*
X0186122Y0185335D03*
X0186122Y0181004D03*
X0186122Y0176673D03*
X0186122Y0172343D03*
X0186122Y0168012D03*
X0186122Y0163681D03*
X0186122Y0159350D03*
X0147539Y0159350D03*
X0147539Y0163681D03*
X0147539Y0168012D03*
X0147539Y0172343D03*
X0147539Y0176673D03*
X0147539Y0181004D03*
X0147539Y0185335D03*
X0147539Y0189665D03*
X0147539Y0193996D03*
X0134752Y0193996D03*
X0134752Y0189665D03*
X0134752Y0185335D03*
X0134752Y0181004D03*
X0134752Y0176673D03*
X0134752Y0172343D03*
X0134752Y0168012D03*
X0134752Y0163681D03*
X0134752Y0159350D03*
X0096169Y0159350D03*
X0096169Y0163681D03*
X0096169Y0168012D03*
X0096169Y0172343D03*
X0096169Y0176673D03*
X0096169Y0181004D03*
X0096169Y0185335D03*
X0096169Y0189665D03*
X0096169Y0193996D03*
X0083382Y0193996D03*
X0083382Y0189665D03*
X0083382Y0185335D03*
X0083382Y0181004D03*
X0083382Y0176673D03*
X0083382Y0172343D03*
X0083382Y0168012D03*
X0083382Y0163681D03*
X0083382Y0159350D03*
X0083382Y0216626D03*
X0083382Y0220957D03*
X0083382Y0225287D03*
X0083382Y0229618D03*
X0083382Y0233949D03*
X0083382Y0238280D03*
X0083382Y0242610D03*
X0083382Y0246941D03*
X0083382Y0251272D03*
X0096169Y0251272D03*
X0096169Y0246941D03*
X0096169Y0242610D03*
X0096169Y0238280D03*
X0096169Y0233949D03*
X0096169Y0229618D03*
X0096169Y0225287D03*
X0096169Y0220957D03*
X0096169Y0216626D03*
X0134752Y0216626D03*
X0134752Y0220957D03*
X0134752Y0225287D03*
X0134752Y0229618D03*
X0134752Y0233949D03*
X0134752Y0238280D03*
X0134752Y0242610D03*
X0134752Y0246941D03*
X0134752Y0251272D03*
X0147539Y0251272D03*
X0147539Y0246941D03*
X0147539Y0242610D03*
X0147539Y0238280D03*
X0147539Y0233949D03*
X0147539Y0229618D03*
X0147539Y0225287D03*
X0147539Y0220957D03*
X0147539Y0216626D03*
X0186122Y0216626D03*
X0186122Y0220957D03*
X0186122Y0225287D03*
X0186122Y0229618D03*
X0186122Y0233949D03*
X0186122Y0238280D03*
X0186122Y0242610D03*
X0186122Y0246941D03*
X0186122Y0251272D03*
X0198909Y0251272D03*
X0198909Y0246941D03*
X0198909Y0242610D03*
X0198909Y0238280D03*
X0198909Y0233949D03*
X0198909Y0229618D03*
X0198909Y0225287D03*
X0198909Y0220957D03*
X0198909Y0216626D03*
X0237492Y0216626D03*
X0237492Y0220957D03*
X0237492Y0225287D03*
X0237492Y0229618D03*
X0237492Y0233949D03*
X0237492Y0238280D03*
X0237492Y0242610D03*
X0237492Y0246941D03*
X0237492Y0251272D03*
X0250280Y0251272D03*
X0250280Y0246941D03*
X0250280Y0242610D03*
X0250280Y0238280D03*
X0250280Y0233949D03*
X0250280Y0229618D03*
X0250280Y0225287D03*
X0250280Y0220957D03*
X0250280Y0216626D03*
X0288862Y0216626D03*
X0288862Y0220957D03*
X0288862Y0225287D03*
X0288862Y0229618D03*
X0288862Y0233949D03*
X0288862Y0238280D03*
X0288862Y0242610D03*
X0288862Y0246941D03*
X0288862Y0251272D03*
X0301650Y0251272D03*
X0301650Y0246941D03*
X0301650Y0242610D03*
X0301650Y0238280D03*
X0301650Y0233949D03*
X0301650Y0229618D03*
X0301650Y0225287D03*
X0301650Y0220957D03*
X0301650Y0216626D03*
D11*
X0317756Y0236795D03*
X0319756Y0236795D03*
X0323756Y0236795D03*
X0325756Y0236795D03*
X0274386Y0236795D03*
X0272386Y0236795D03*
X0268386Y0236795D03*
X0266386Y0236795D03*
X0223016Y0236795D03*
X0221016Y0236795D03*
X0217016Y0236795D03*
X0215016Y0236795D03*
X0171646Y0236795D03*
X0169646Y0236795D03*
X0165646Y0236795D03*
X0163646Y0236795D03*
X0120276Y0236795D03*
X0118276Y0236795D03*
X0114276Y0236795D03*
X0112276Y0236795D03*
X0068905Y0236795D03*
X0066905Y0236795D03*
X0062905Y0236795D03*
X0060905Y0236795D03*
X0060905Y0179520D03*
X0062905Y0179520D03*
X0066905Y0179520D03*
X0068905Y0179520D03*
X0112276Y0179520D03*
X0114276Y0179520D03*
X0118276Y0179520D03*
X0120276Y0179520D03*
X0163646Y0179520D03*
X0165646Y0179520D03*
X0169646Y0179520D03*
X0171646Y0179520D03*
X0215016Y0179520D03*
X0217016Y0179520D03*
X0221016Y0179520D03*
X0223016Y0179520D03*
X0266386Y0179520D03*
X0268386Y0179520D03*
X0272386Y0179520D03*
X0274386Y0179520D03*
X0317756Y0179520D03*
X0319756Y0179520D03*
X0323756Y0179520D03*
X0325756Y0179520D03*
X0325756Y0122244D03*
X0323756Y0122244D03*
X0319756Y0122244D03*
X0317756Y0122244D03*
X0274386Y0122244D03*
X0272386Y0122244D03*
X0268386Y0122244D03*
X0266386Y0122244D03*
X0223016Y0122244D03*
X0221016Y0122244D03*
X0217016Y0122244D03*
X0215016Y0122244D03*
X0171646Y0122244D03*
X0169646Y0122244D03*
X0165646Y0122244D03*
X0163646Y0122244D03*
X0120276Y0122244D03*
X0118276Y0122244D03*
X0114276Y0122244D03*
X0112276Y0122244D03*
X0068905Y0122244D03*
X0066905Y0122244D03*
X0062905Y0122244D03*
X0060905Y0122244D03*
X0060905Y0064969D03*
X0062905Y0064969D03*
X0066905Y0064969D03*
X0068905Y0064969D03*
X0112276Y0064969D03*
X0114276Y0064969D03*
X0118276Y0064969D03*
X0120276Y0064969D03*
X0163646Y0064969D03*
X0165646Y0064969D03*
X0169646Y0064969D03*
X0171646Y0064969D03*
X0215016Y0064969D03*
X0217016Y0064969D03*
X0221016Y0064969D03*
X0223016Y0064969D03*
X0266386Y0064969D03*
X0268386Y0064969D03*
X0272386Y0064969D03*
X0274386Y0064969D03*
X0317756Y0064969D03*
X0319756Y0064969D03*
X0323756Y0064969D03*
X0325756Y0064969D03*
X0325756Y0294071D03*
X0323756Y0294071D03*
X0319756Y0294071D03*
X0317756Y0294071D03*
X0274386Y0294071D03*
X0272386Y0294071D03*
X0268386Y0294071D03*
X0266386Y0294071D03*
X0223016Y0294071D03*
X0221016Y0294071D03*
X0217016Y0294071D03*
X0215016Y0294071D03*
X0171646Y0294071D03*
X0169646Y0294071D03*
X0165646Y0294071D03*
X0163646Y0294071D03*
X0120276Y0294071D03*
X0118276Y0294071D03*
X0114276Y0294071D03*
X0112276Y0294071D03*
X0068905Y0294071D03*
X0066905Y0294071D03*
X0062905Y0294071D03*
X0060905Y0294071D03*
D12*
X0061953Y0286795D03*
X0063921Y0286795D03*
X0065890Y0286795D03*
X0067858Y0286795D03*
X0069630Y0285024D03*
X0069630Y0283055D03*
X0069630Y0281087D03*
X0069630Y0279118D03*
X0067858Y0277346D03*
X0065890Y0277346D03*
X0063921Y0277346D03*
X0061953Y0277346D03*
X0060181Y0279118D03*
X0060181Y0281087D03*
X0060181Y0283055D03*
X0060181Y0285024D03*
X0111551Y0285024D03*
X0111551Y0283055D03*
X0111551Y0281087D03*
X0111551Y0279118D03*
X0113323Y0277346D03*
X0115291Y0277346D03*
X0117260Y0277346D03*
X0119228Y0277346D03*
X0121000Y0279118D03*
X0121000Y0281087D03*
X0121000Y0283055D03*
X0121000Y0285024D03*
X0119228Y0286795D03*
X0117260Y0286795D03*
X0115291Y0286795D03*
X0113323Y0286795D03*
X0162921Y0285024D03*
X0162921Y0283055D03*
X0162921Y0281087D03*
X0162921Y0279118D03*
X0164693Y0277346D03*
X0166661Y0277346D03*
X0168630Y0277346D03*
X0170598Y0277346D03*
X0172370Y0279118D03*
X0172370Y0281087D03*
X0172370Y0283055D03*
X0172370Y0285024D03*
X0170598Y0286795D03*
X0168630Y0286795D03*
X0166661Y0286795D03*
X0164693Y0286795D03*
X0214291Y0285024D03*
X0214291Y0283055D03*
X0214291Y0281087D03*
X0214291Y0279118D03*
X0216063Y0277346D03*
X0218031Y0277346D03*
X0220000Y0277346D03*
X0221968Y0277346D03*
X0223740Y0279118D03*
X0223740Y0281087D03*
X0223740Y0283055D03*
X0223740Y0285024D03*
X0221968Y0286795D03*
X0220000Y0286795D03*
X0218031Y0286795D03*
X0216063Y0286795D03*
X0265661Y0285024D03*
X0265661Y0283055D03*
X0265661Y0281087D03*
X0265661Y0279118D03*
X0267433Y0277346D03*
X0269402Y0277346D03*
X0271370Y0277346D03*
X0273339Y0277346D03*
X0275110Y0279118D03*
X0275110Y0281087D03*
X0275110Y0283055D03*
X0275110Y0285024D03*
X0273339Y0286795D03*
X0271370Y0286795D03*
X0269402Y0286795D03*
X0267433Y0286795D03*
X0317031Y0285024D03*
X0317031Y0283055D03*
X0317031Y0281087D03*
X0317031Y0279118D03*
X0318803Y0277346D03*
X0320772Y0277346D03*
X0322740Y0277346D03*
X0324709Y0277346D03*
X0326480Y0279118D03*
X0326480Y0281087D03*
X0326480Y0283055D03*
X0326480Y0285024D03*
X0324709Y0286795D03*
X0322740Y0286795D03*
X0320772Y0286795D03*
X0318803Y0286795D03*
X0318803Y0229520D03*
X0320772Y0229520D03*
X0322740Y0229520D03*
X0324709Y0229520D03*
X0326480Y0227748D03*
X0326480Y0225780D03*
X0326480Y0223811D03*
X0326480Y0221843D03*
X0324709Y0220071D03*
X0322740Y0220071D03*
X0320772Y0220071D03*
X0318803Y0220071D03*
X0317031Y0221843D03*
X0317031Y0223811D03*
X0317031Y0225780D03*
X0317031Y0227748D03*
X0275110Y0227748D03*
X0275110Y0225780D03*
X0275110Y0223811D03*
X0275110Y0221843D03*
X0273339Y0220071D03*
X0271370Y0220071D03*
X0269402Y0220071D03*
X0267433Y0220071D03*
X0265661Y0221843D03*
X0265661Y0223811D03*
X0265661Y0225780D03*
X0265661Y0227748D03*
X0267433Y0229520D03*
X0269402Y0229520D03*
X0271370Y0229520D03*
X0273339Y0229520D03*
X0223740Y0227748D03*
X0223740Y0225780D03*
X0223740Y0223811D03*
X0223740Y0221843D03*
X0221968Y0220071D03*
X0220000Y0220071D03*
X0218031Y0220071D03*
X0216063Y0220071D03*
X0214291Y0221843D03*
X0214291Y0223811D03*
X0214291Y0225780D03*
X0214291Y0227748D03*
X0216063Y0229520D03*
X0218031Y0229520D03*
X0220000Y0229520D03*
X0221968Y0229520D03*
X0172370Y0227748D03*
X0172370Y0225780D03*
X0172370Y0223811D03*
X0172370Y0221843D03*
X0170598Y0220071D03*
X0168630Y0220071D03*
X0166661Y0220071D03*
X0164693Y0220071D03*
X0162921Y0221843D03*
X0162921Y0223811D03*
X0162921Y0225780D03*
X0162921Y0227748D03*
X0164693Y0229520D03*
X0166661Y0229520D03*
X0168630Y0229520D03*
X0170598Y0229520D03*
X0121000Y0227748D03*
X0121000Y0225780D03*
X0121000Y0223811D03*
X0121000Y0221843D03*
X0119228Y0220071D03*
X0117260Y0220071D03*
X0115291Y0220071D03*
X0113323Y0220071D03*
X0111551Y0221843D03*
X0111551Y0223811D03*
X0111551Y0225780D03*
X0111551Y0227748D03*
X0113323Y0229520D03*
X0115291Y0229520D03*
X0117260Y0229520D03*
X0119228Y0229520D03*
X0069630Y0227748D03*
X0069630Y0225780D03*
X0069630Y0223811D03*
X0069630Y0221843D03*
X0067858Y0220071D03*
X0065890Y0220071D03*
X0063921Y0220071D03*
X0061953Y0220071D03*
X0060181Y0221843D03*
X0060181Y0223811D03*
X0060181Y0225780D03*
X0060181Y0227748D03*
X0061953Y0229520D03*
X0063921Y0229520D03*
X0065890Y0229520D03*
X0067858Y0229520D03*
X0067858Y0172244D03*
X0065890Y0172244D03*
X0063921Y0172244D03*
X0061953Y0172244D03*
X0060181Y0170472D03*
X0060181Y0168504D03*
X0060181Y0166535D03*
X0060181Y0164567D03*
X0061953Y0162795D03*
X0063921Y0162795D03*
X0065890Y0162795D03*
X0067858Y0162795D03*
X0069630Y0164567D03*
X0069630Y0166535D03*
X0069630Y0168504D03*
X0069630Y0170472D03*
X0111551Y0170472D03*
X0111551Y0168504D03*
X0111551Y0166535D03*
X0111551Y0164567D03*
X0113323Y0162795D03*
X0115291Y0162795D03*
X0117260Y0162795D03*
X0119228Y0162795D03*
X0121000Y0164567D03*
X0121000Y0166535D03*
X0121000Y0168504D03*
X0121000Y0170472D03*
X0119228Y0172244D03*
X0117260Y0172244D03*
X0115291Y0172244D03*
X0113323Y0172244D03*
X0162921Y0170472D03*
X0162921Y0168504D03*
X0162921Y0166535D03*
X0162921Y0164567D03*
X0164693Y0162795D03*
X0166661Y0162795D03*
X0168630Y0162795D03*
X0170598Y0162795D03*
X0172370Y0164567D03*
X0172370Y0166535D03*
X0172370Y0168504D03*
X0172370Y0170472D03*
X0170598Y0172244D03*
X0168630Y0172244D03*
X0166661Y0172244D03*
X0164693Y0172244D03*
X0214291Y0170472D03*
X0214291Y0168504D03*
X0214291Y0166535D03*
X0214291Y0164567D03*
X0216063Y0162795D03*
X0218031Y0162795D03*
X0220000Y0162795D03*
X0221968Y0162795D03*
X0223740Y0164567D03*
X0223740Y0166535D03*
X0223740Y0168504D03*
X0223740Y0170472D03*
X0221968Y0172244D03*
X0220000Y0172244D03*
X0218031Y0172244D03*
X0216063Y0172244D03*
X0265661Y0170472D03*
X0265661Y0168504D03*
X0265661Y0166535D03*
X0265661Y0164567D03*
X0267433Y0162795D03*
X0269402Y0162795D03*
X0271370Y0162795D03*
X0273339Y0162795D03*
X0275110Y0164567D03*
X0275110Y0166535D03*
X0275110Y0168504D03*
X0275110Y0170472D03*
X0273339Y0172244D03*
X0271370Y0172244D03*
X0269402Y0172244D03*
X0267433Y0172244D03*
X0317031Y0170472D03*
X0317031Y0168504D03*
X0317031Y0166535D03*
X0317031Y0164567D03*
X0318803Y0162795D03*
X0320772Y0162795D03*
X0322740Y0162795D03*
X0324709Y0162795D03*
X0326480Y0164567D03*
X0326480Y0166535D03*
X0326480Y0168504D03*
X0326480Y0170472D03*
X0324709Y0172244D03*
X0322740Y0172244D03*
X0320772Y0172244D03*
X0318803Y0172244D03*
X0318803Y0114969D03*
X0320772Y0114969D03*
X0322740Y0114969D03*
X0324709Y0114969D03*
X0326480Y0113197D03*
X0326480Y0111228D03*
X0326480Y0109260D03*
X0326480Y0107291D03*
X0324709Y0105520D03*
X0322740Y0105520D03*
X0320772Y0105520D03*
X0318803Y0105520D03*
X0317031Y0107291D03*
X0317031Y0109260D03*
X0317031Y0111228D03*
X0317031Y0113197D03*
X0275110Y0113197D03*
X0275110Y0111228D03*
X0275110Y0109260D03*
X0275110Y0107291D03*
X0273339Y0105520D03*
X0271370Y0105520D03*
X0269402Y0105520D03*
X0267433Y0105520D03*
X0265661Y0107291D03*
X0265661Y0109260D03*
X0265661Y0111228D03*
X0265661Y0113197D03*
X0267433Y0114969D03*
X0269402Y0114969D03*
X0271370Y0114969D03*
X0273339Y0114969D03*
X0223740Y0113197D03*
X0223740Y0111228D03*
X0223740Y0109260D03*
X0223740Y0107291D03*
X0221968Y0105520D03*
X0220000Y0105520D03*
X0218031Y0105520D03*
X0216063Y0105520D03*
X0214291Y0107291D03*
X0214291Y0109260D03*
X0214291Y0111228D03*
X0214291Y0113197D03*
X0216063Y0114969D03*
X0218031Y0114969D03*
X0220000Y0114969D03*
X0221968Y0114969D03*
X0172370Y0113197D03*
X0172370Y0111228D03*
X0172370Y0109260D03*
X0172370Y0107291D03*
X0170598Y0105520D03*
X0168630Y0105520D03*
X0166661Y0105520D03*
X0164693Y0105520D03*
X0162921Y0107291D03*
X0162921Y0109260D03*
X0162921Y0111228D03*
X0162921Y0113197D03*
X0164693Y0114969D03*
X0166661Y0114969D03*
X0168630Y0114969D03*
X0170598Y0114969D03*
X0121000Y0113197D03*
X0121000Y0111228D03*
X0121000Y0109260D03*
X0121000Y0107291D03*
X0119228Y0105520D03*
X0117260Y0105520D03*
X0115291Y0105520D03*
X0113323Y0105520D03*
X0111551Y0107291D03*
X0111551Y0109260D03*
X0111551Y0111228D03*
X0111551Y0113197D03*
X0113323Y0114969D03*
X0115291Y0114969D03*
X0117260Y0114969D03*
X0119228Y0114969D03*
X0069630Y0113197D03*
X0069630Y0111228D03*
X0069630Y0109260D03*
X0069630Y0107291D03*
X0067858Y0105520D03*
X0065890Y0105520D03*
X0063921Y0105520D03*
X0061953Y0105520D03*
X0060181Y0107291D03*
X0060181Y0109260D03*
X0060181Y0111228D03*
X0060181Y0113197D03*
X0061953Y0114969D03*
X0063921Y0114969D03*
X0065890Y0114969D03*
X0067858Y0114969D03*
X0067858Y0057693D03*
X0065890Y0057693D03*
X0063921Y0057693D03*
X0061953Y0057693D03*
X0060181Y0055921D03*
X0060181Y0053953D03*
X0060181Y0051984D03*
X0060181Y0050016D03*
X0061953Y0048244D03*
X0063921Y0048244D03*
X0065890Y0048244D03*
X0067858Y0048244D03*
X0069630Y0050016D03*
X0069630Y0051984D03*
X0069630Y0053953D03*
X0069630Y0055921D03*
X0111551Y0055921D03*
X0111551Y0053953D03*
X0111551Y0051984D03*
X0111551Y0050016D03*
X0113323Y0048244D03*
X0115291Y0048244D03*
X0117260Y0048244D03*
X0119228Y0048244D03*
X0121000Y0050016D03*
X0121000Y0051984D03*
X0121000Y0053953D03*
X0121000Y0055921D03*
X0119228Y0057693D03*
X0117260Y0057693D03*
X0115291Y0057693D03*
X0113323Y0057693D03*
X0162921Y0055921D03*
X0162921Y0053953D03*
X0162921Y0051984D03*
X0162921Y0050016D03*
X0164693Y0048244D03*
X0166661Y0048244D03*
X0168630Y0048244D03*
X0170598Y0048244D03*
X0172370Y0050016D03*
X0172370Y0051984D03*
X0172370Y0053953D03*
X0172370Y0055921D03*
X0170598Y0057693D03*
X0168630Y0057693D03*
X0166661Y0057693D03*
X0164693Y0057693D03*
X0214291Y0055921D03*
X0214291Y0053953D03*
X0214291Y0051984D03*
X0214291Y0050016D03*
X0216063Y0048244D03*
X0218031Y0048244D03*
X0220000Y0048244D03*
X0221968Y0048244D03*
X0223740Y0050016D03*
X0223740Y0051984D03*
X0223740Y0053953D03*
X0223740Y0055921D03*
X0221968Y0057693D03*
X0220000Y0057693D03*
X0218031Y0057693D03*
X0216063Y0057693D03*
X0265661Y0055921D03*
X0265661Y0053953D03*
X0265661Y0051984D03*
X0265661Y0050016D03*
X0267433Y0048244D03*
X0269402Y0048244D03*
X0271370Y0048244D03*
X0273339Y0048244D03*
X0275110Y0050016D03*
X0275110Y0051984D03*
X0275110Y0053953D03*
X0275110Y0055921D03*
X0273339Y0057693D03*
X0271370Y0057693D03*
X0269402Y0057693D03*
X0267433Y0057693D03*
X0317031Y0055921D03*
X0317031Y0053953D03*
X0317031Y0051984D03*
X0317031Y0050016D03*
X0318803Y0048244D03*
X0320772Y0048244D03*
X0322740Y0048244D03*
X0324709Y0048244D03*
X0326480Y0050016D03*
X0326480Y0051984D03*
X0326480Y0053953D03*
X0326480Y0055921D03*
X0324709Y0057693D03*
X0322740Y0057693D03*
X0320772Y0057693D03*
X0318803Y0057693D03*
D13*
X0319984Y0054740D03*
X0319984Y0051197D03*
X0323528Y0051197D03*
X0323528Y0054740D03*
X0272157Y0054740D03*
X0268614Y0054740D03*
X0268614Y0051197D03*
X0272157Y0051197D03*
X0220787Y0051197D03*
X0217244Y0051197D03*
X0217244Y0054740D03*
X0220787Y0054740D03*
X0169417Y0054740D03*
X0165874Y0054740D03*
X0165874Y0051197D03*
X0169417Y0051197D03*
X0118047Y0051197D03*
X0114504Y0051197D03*
X0114504Y0054740D03*
X0118047Y0054740D03*
X0066677Y0054740D03*
X0066677Y0051197D03*
X0063134Y0051197D03*
X0063134Y0054740D03*
X0063134Y0108472D03*
X0066677Y0108472D03*
X0066677Y0112016D03*
X0063134Y0112016D03*
X0114504Y0112016D03*
X0118047Y0112016D03*
X0118047Y0108472D03*
X0114504Y0108472D03*
X0165874Y0108472D03*
X0169417Y0108472D03*
X0169417Y0112016D03*
X0165874Y0112016D03*
X0217244Y0112016D03*
X0220787Y0112016D03*
X0220787Y0108472D03*
X0217244Y0108472D03*
X0268614Y0108472D03*
X0272157Y0108472D03*
X0272157Y0112016D03*
X0268614Y0112016D03*
X0319984Y0112016D03*
X0319984Y0108472D03*
X0323528Y0108472D03*
X0323528Y0112016D03*
X0323528Y0165748D03*
X0323528Y0169291D03*
X0319984Y0169291D03*
X0319984Y0165748D03*
X0272157Y0165748D03*
X0268614Y0165748D03*
X0268614Y0169291D03*
X0272157Y0169291D03*
X0220787Y0169291D03*
X0220787Y0165748D03*
X0217244Y0165748D03*
X0217244Y0169291D03*
X0169417Y0169291D03*
X0169417Y0165748D03*
X0165874Y0165748D03*
X0165874Y0169291D03*
X0118047Y0169291D03*
X0118047Y0165748D03*
X0114504Y0165748D03*
X0114504Y0169291D03*
X0066677Y0169291D03*
X0066677Y0165748D03*
X0063134Y0165748D03*
X0063134Y0169291D03*
X0063134Y0223024D03*
X0063134Y0226567D03*
X0066677Y0226567D03*
X0066677Y0223024D03*
X0114504Y0223024D03*
X0114504Y0226567D03*
X0118047Y0226567D03*
X0118047Y0223024D03*
X0165874Y0223024D03*
X0165874Y0226567D03*
X0169417Y0226567D03*
X0169417Y0223024D03*
X0217244Y0223024D03*
X0217244Y0226567D03*
X0220787Y0226567D03*
X0220787Y0223024D03*
X0268614Y0223024D03*
X0268614Y0226567D03*
X0272157Y0226567D03*
X0272157Y0223024D03*
X0319984Y0223024D03*
X0319984Y0226567D03*
X0323528Y0226567D03*
X0323528Y0223024D03*
X0323528Y0280299D03*
X0323528Y0283843D03*
X0319984Y0283843D03*
X0319984Y0280299D03*
X0272157Y0280299D03*
X0268614Y0280299D03*
X0268614Y0283843D03*
X0272157Y0283843D03*
X0220787Y0283843D03*
X0217244Y0283843D03*
X0217244Y0280299D03*
X0220787Y0280299D03*
X0169417Y0280299D03*
X0165874Y0280299D03*
X0165874Y0283843D03*
X0169417Y0283843D03*
X0118047Y0283843D03*
X0114504Y0283843D03*
X0114504Y0280299D03*
X0118047Y0280299D03*
X0066677Y0280299D03*
X0063134Y0280299D03*
X0063134Y0283843D03*
X0066677Y0283843D03*
D14*
X0065890Y0288075D03*
X0067858Y0288075D03*
X0063921Y0288075D03*
X0061953Y0288075D03*
X0061953Y0276067D03*
X0063921Y0276067D03*
X0065890Y0276067D03*
X0067858Y0276067D03*
X0113323Y0276067D03*
X0115291Y0276067D03*
X0117260Y0276067D03*
X0119228Y0276067D03*
X0119228Y0288075D03*
X0117260Y0288075D03*
X0115291Y0288075D03*
X0113323Y0288075D03*
X0164693Y0288075D03*
X0166661Y0288075D03*
X0168630Y0288075D03*
X0170598Y0288075D03*
X0170598Y0276067D03*
X0168630Y0276067D03*
X0166661Y0276067D03*
X0164693Y0276067D03*
X0164693Y0230799D03*
X0166661Y0230799D03*
X0168630Y0230799D03*
X0170598Y0230799D03*
X0170598Y0218791D03*
X0168630Y0218791D03*
X0166661Y0218791D03*
X0164693Y0218791D03*
X0164693Y0173524D03*
X0166661Y0173524D03*
X0168630Y0173524D03*
X0170598Y0173524D03*
X0170598Y0161516D03*
X0168630Y0161516D03*
X0166661Y0161516D03*
X0164693Y0161516D03*
X0164693Y0116248D03*
X0166661Y0116248D03*
X0168630Y0116248D03*
X0170598Y0116248D03*
X0170598Y0104240D03*
X0168630Y0104240D03*
X0166661Y0104240D03*
X0164693Y0104240D03*
X0164693Y0058972D03*
X0166661Y0058972D03*
X0168630Y0058972D03*
X0170598Y0058972D03*
X0170598Y0046965D03*
X0168630Y0046965D03*
X0166661Y0046965D03*
X0164693Y0046965D03*
X0119228Y0046965D03*
X0117260Y0046965D03*
X0115291Y0046965D03*
X0113323Y0046965D03*
X0113323Y0058972D03*
X0115291Y0058972D03*
X0117260Y0058972D03*
X0119228Y0058972D03*
X0119228Y0104240D03*
X0117260Y0104240D03*
X0115291Y0104240D03*
X0113323Y0104240D03*
X0113323Y0116248D03*
X0115291Y0116248D03*
X0117260Y0116248D03*
X0119228Y0116248D03*
X0119228Y0161516D03*
X0117260Y0161516D03*
X0115291Y0161516D03*
X0113323Y0161516D03*
X0113323Y0173524D03*
X0115291Y0173524D03*
X0117260Y0173524D03*
X0119228Y0173524D03*
X0119228Y0218791D03*
X0117260Y0218791D03*
X0115291Y0218791D03*
X0113323Y0218791D03*
X0113323Y0230799D03*
X0115291Y0230799D03*
X0117260Y0230799D03*
X0119228Y0230799D03*
X0067858Y0230799D03*
X0065890Y0230799D03*
X0063921Y0230799D03*
X0061953Y0230799D03*
X0061953Y0218791D03*
X0063921Y0218791D03*
X0065890Y0218791D03*
X0067858Y0218791D03*
X0067858Y0173524D03*
X0065890Y0173524D03*
X0063921Y0173524D03*
X0061953Y0173524D03*
X0061953Y0161516D03*
X0063921Y0161516D03*
X0065890Y0161516D03*
X0067858Y0161516D03*
X0067858Y0116248D03*
X0065890Y0116248D03*
X0063921Y0116248D03*
X0061953Y0116248D03*
X0061953Y0104240D03*
X0063921Y0104240D03*
X0065890Y0104240D03*
X0067858Y0104240D03*
X0067858Y0058972D03*
X0065890Y0058972D03*
X0063921Y0058972D03*
X0061953Y0058972D03*
X0061953Y0046965D03*
X0063921Y0046965D03*
X0065890Y0046965D03*
X0067858Y0046965D03*
X0216063Y0046965D03*
X0218031Y0046965D03*
X0220000Y0046965D03*
X0221968Y0046965D03*
X0221968Y0058972D03*
X0220000Y0058972D03*
X0218031Y0058972D03*
X0216063Y0058972D03*
X0216063Y0104240D03*
X0218031Y0104240D03*
X0220000Y0104240D03*
X0221968Y0104240D03*
X0221968Y0116248D03*
X0220000Y0116248D03*
X0218031Y0116248D03*
X0216063Y0116248D03*
X0216063Y0161516D03*
X0218031Y0161516D03*
X0220000Y0161516D03*
X0221968Y0161516D03*
X0221968Y0173524D03*
X0220000Y0173524D03*
X0218031Y0173524D03*
X0216063Y0173524D03*
X0216063Y0218791D03*
X0218031Y0218791D03*
X0220000Y0218791D03*
X0221968Y0218791D03*
X0221968Y0230799D03*
X0220000Y0230799D03*
X0218031Y0230799D03*
X0216063Y0230799D03*
X0216063Y0276067D03*
X0218031Y0276067D03*
X0220000Y0276067D03*
X0221968Y0276067D03*
X0221968Y0288075D03*
X0220000Y0288075D03*
X0218031Y0288075D03*
X0216063Y0288075D03*
X0267433Y0288075D03*
X0269402Y0288075D03*
X0271370Y0288075D03*
X0273339Y0288075D03*
X0273339Y0276067D03*
X0271370Y0276067D03*
X0269402Y0276067D03*
X0267433Y0276067D03*
X0267433Y0230799D03*
X0269402Y0230799D03*
X0271370Y0230799D03*
X0273339Y0230799D03*
X0273339Y0218791D03*
X0271370Y0218791D03*
X0269402Y0218791D03*
X0267433Y0218791D03*
X0267433Y0173524D03*
X0269402Y0173524D03*
X0271370Y0173524D03*
X0273339Y0173524D03*
X0273339Y0161516D03*
X0271370Y0161516D03*
X0269402Y0161516D03*
X0267433Y0161516D03*
X0267433Y0116248D03*
X0269402Y0116248D03*
X0271370Y0116248D03*
X0273339Y0116248D03*
X0273339Y0104240D03*
X0271370Y0104240D03*
X0269402Y0104240D03*
X0267433Y0104240D03*
X0267433Y0058972D03*
X0269402Y0058972D03*
X0271370Y0058972D03*
X0273339Y0058972D03*
X0273339Y0046965D03*
X0271370Y0046965D03*
X0269402Y0046965D03*
X0267433Y0046965D03*
X0318803Y0046965D03*
X0320772Y0046965D03*
X0322740Y0046965D03*
X0324709Y0046965D03*
X0324709Y0058972D03*
X0322740Y0058972D03*
X0320772Y0058972D03*
X0318803Y0058972D03*
X0318803Y0104240D03*
X0320772Y0104240D03*
X0322740Y0104240D03*
X0324709Y0104240D03*
X0324709Y0116248D03*
X0322740Y0116248D03*
X0320772Y0116248D03*
X0318803Y0116248D03*
X0318803Y0161516D03*
X0320772Y0161516D03*
X0322740Y0161516D03*
X0324709Y0161516D03*
X0324709Y0173524D03*
X0322740Y0173524D03*
X0320772Y0173524D03*
X0318803Y0173524D03*
X0318803Y0218791D03*
X0320772Y0218791D03*
X0322740Y0218791D03*
X0324709Y0218791D03*
X0324709Y0230799D03*
X0322740Y0230799D03*
X0320772Y0230799D03*
X0318803Y0230799D03*
X0318803Y0276067D03*
X0320772Y0276067D03*
X0322740Y0276067D03*
X0324709Y0276067D03*
X0324709Y0288075D03*
X0322740Y0288075D03*
X0320772Y0288075D03*
X0318803Y0288075D03*
D15*
X0315752Y0285024D03*
X0315752Y0283055D03*
X0315752Y0281087D03*
X0315752Y0279118D03*
X0327760Y0279118D03*
X0327760Y0281087D03*
X0327760Y0283055D03*
X0327760Y0285024D03*
X0276390Y0285024D03*
X0276390Y0283055D03*
X0276390Y0281087D03*
X0276390Y0279118D03*
X0264382Y0279118D03*
X0264382Y0281087D03*
X0264382Y0283055D03*
X0264382Y0285024D03*
X0225020Y0285024D03*
X0225020Y0283055D03*
X0225020Y0281087D03*
X0225020Y0279118D03*
X0213012Y0279118D03*
X0213012Y0281087D03*
X0213012Y0283055D03*
X0213012Y0285024D03*
X0173650Y0285024D03*
X0173650Y0283055D03*
X0173650Y0281087D03*
X0173650Y0279118D03*
X0161642Y0279118D03*
X0161642Y0281087D03*
X0161642Y0283055D03*
X0161642Y0285024D03*
X0122280Y0285024D03*
X0122280Y0283055D03*
X0122280Y0281087D03*
X0122280Y0279118D03*
X0110272Y0279118D03*
X0110272Y0281087D03*
X0110272Y0283055D03*
X0110272Y0285024D03*
X0070909Y0285024D03*
X0070909Y0283055D03*
X0070909Y0281087D03*
X0070909Y0279118D03*
X0058902Y0279118D03*
X0058902Y0281087D03*
X0058902Y0283055D03*
X0058902Y0285024D03*
X0058902Y0227748D03*
X0058902Y0225780D03*
X0058902Y0223811D03*
X0058902Y0221843D03*
X0070909Y0221843D03*
X0070909Y0223811D03*
X0070909Y0225780D03*
X0070909Y0227748D03*
X0110272Y0227748D03*
X0110272Y0225780D03*
X0110272Y0223811D03*
X0110272Y0221843D03*
X0122280Y0221843D03*
X0122280Y0223811D03*
X0122280Y0225780D03*
X0122280Y0227748D03*
X0161642Y0227748D03*
X0161642Y0225780D03*
X0161642Y0223811D03*
X0161642Y0221843D03*
X0173650Y0221843D03*
X0173650Y0223811D03*
X0173650Y0225780D03*
X0173650Y0227748D03*
X0213012Y0227748D03*
X0213012Y0225780D03*
X0213012Y0223811D03*
X0213012Y0221843D03*
X0225020Y0221843D03*
X0225020Y0223811D03*
X0225020Y0225780D03*
X0225020Y0227748D03*
X0264382Y0227748D03*
X0264382Y0225780D03*
X0264382Y0223811D03*
X0264382Y0221843D03*
X0276390Y0221843D03*
X0276390Y0223811D03*
X0276390Y0225780D03*
X0276390Y0227748D03*
X0315752Y0227748D03*
X0315752Y0225780D03*
X0315752Y0223811D03*
X0315752Y0221843D03*
X0327760Y0221843D03*
X0327760Y0223811D03*
X0327760Y0225780D03*
X0327760Y0227748D03*
X0327760Y0170472D03*
X0327760Y0168504D03*
X0327760Y0166535D03*
X0327760Y0164567D03*
X0315752Y0164567D03*
X0315752Y0166535D03*
X0315752Y0168504D03*
X0315752Y0170472D03*
X0276390Y0170472D03*
X0276390Y0168504D03*
X0276390Y0166535D03*
X0276390Y0164567D03*
X0264382Y0164567D03*
X0264382Y0166535D03*
X0264382Y0168504D03*
X0264382Y0170472D03*
X0225020Y0170472D03*
X0225020Y0168504D03*
X0225020Y0166535D03*
X0225020Y0164567D03*
X0213012Y0164567D03*
X0213012Y0166535D03*
X0213012Y0168504D03*
X0213012Y0170472D03*
X0173650Y0170472D03*
X0173650Y0168504D03*
X0173650Y0166535D03*
X0173650Y0164567D03*
X0161642Y0164567D03*
X0161642Y0166535D03*
X0161642Y0168504D03*
X0161642Y0170472D03*
X0122280Y0170472D03*
X0122280Y0168504D03*
X0122280Y0166535D03*
X0122280Y0164567D03*
X0110272Y0164567D03*
X0110272Y0166535D03*
X0110272Y0168504D03*
X0110272Y0170472D03*
X0070909Y0170472D03*
X0070909Y0168504D03*
X0070909Y0166535D03*
X0070909Y0164567D03*
X0058902Y0164567D03*
X0058902Y0166535D03*
X0058902Y0168504D03*
X0058902Y0170472D03*
X0058902Y0113197D03*
X0058902Y0111228D03*
X0058902Y0109260D03*
X0058902Y0107291D03*
X0070909Y0107291D03*
X0070909Y0109260D03*
X0070909Y0111228D03*
X0070909Y0113197D03*
X0110272Y0113197D03*
X0110272Y0111228D03*
X0110272Y0109260D03*
X0110272Y0107291D03*
X0122280Y0107291D03*
X0122280Y0109260D03*
X0122280Y0111228D03*
X0122280Y0113197D03*
X0161642Y0113197D03*
X0161642Y0111228D03*
X0161642Y0109260D03*
X0161642Y0107291D03*
X0173650Y0107291D03*
X0173650Y0109260D03*
X0173650Y0111228D03*
X0173650Y0113197D03*
X0213012Y0113197D03*
X0213012Y0111228D03*
X0213012Y0109260D03*
X0213012Y0107291D03*
X0225020Y0107291D03*
X0225020Y0109260D03*
X0225020Y0111228D03*
X0225020Y0113197D03*
X0264382Y0113197D03*
X0264382Y0111228D03*
X0264382Y0109260D03*
X0264382Y0107291D03*
X0276390Y0107291D03*
X0276390Y0109260D03*
X0276390Y0111228D03*
X0276390Y0113197D03*
X0315752Y0113197D03*
X0315752Y0111228D03*
X0315752Y0109260D03*
X0315752Y0107291D03*
X0327760Y0107291D03*
X0327760Y0109260D03*
X0327760Y0111228D03*
X0327760Y0113197D03*
X0327760Y0055921D03*
X0327760Y0053953D03*
X0327760Y0051984D03*
X0327760Y0050016D03*
X0315752Y0050016D03*
X0315752Y0051984D03*
X0315752Y0053953D03*
X0315752Y0055921D03*
X0276390Y0055921D03*
X0276390Y0053953D03*
X0276390Y0051984D03*
X0276390Y0050016D03*
X0264382Y0050016D03*
X0264382Y0051984D03*
X0264382Y0053953D03*
X0264382Y0055921D03*
X0225020Y0055921D03*
X0225020Y0053953D03*
X0225020Y0051984D03*
X0225020Y0050016D03*
X0213012Y0050016D03*
X0213012Y0051984D03*
X0213012Y0053953D03*
X0213012Y0055921D03*
X0173650Y0055921D03*
X0173650Y0053953D03*
X0173650Y0051984D03*
X0173650Y0050016D03*
X0161642Y0050016D03*
X0161642Y0051984D03*
X0161642Y0053953D03*
X0161642Y0055921D03*
X0122280Y0055921D03*
X0122280Y0053953D03*
X0122280Y0051984D03*
X0122280Y0050016D03*
X0110272Y0050016D03*
X0110272Y0051984D03*
X0110272Y0053953D03*
X0110272Y0055921D03*
X0070909Y0055921D03*
X0070909Y0053953D03*
X0070909Y0051984D03*
X0070909Y0050016D03*
X0058902Y0050016D03*
X0058902Y0051984D03*
X0058902Y0053953D03*
X0058902Y0055921D03*
D16*
X0064905Y0052969D03*
X0116276Y0052969D03*
X0167646Y0052969D03*
X0219016Y0052969D03*
X0270386Y0052969D03*
X0321756Y0052969D03*
X0321756Y0110244D03*
X0270386Y0110244D03*
X0219016Y0110244D03*
X0167646Y0110244D03*
X0116276Y0110244D03*
X0064905Y0110244D03*
X0064905Y0167520D03*
X0116276Y0167520D03*
X0167646Y0167520D03*
X0219016Y0167520D03*
X0270386Y0167520D03*
X0321756Y0167520D03*
X0321756Y0224795D03*
X0270386Y0224795D03*
X0219016Y0224795D03*
X0167646Y0224795D03*
X0116276Y0224795D03*
X0064905Y0224795D03*
X0064905Y0282071D03*
X0116276Y0282071D03*
X0167646Y0282071D03*
X0219016Y0282071D03*
X0270386Y0282071D03*
X0321756Y0282071D03*
D17*
X0317516Y0299303D03*
X0329327Y0299303D03*
X0277957Y0299303D03*
X0266146Y0299303D03*
X0226587Y0299303D03*
X0214776Y0299303D03*
X0175217Y0299303D03*
X0163406Y0299303D03*
X0123846Y0299303D03*
X0112035Y0299303D03*
X0072476Y0299303D03*
X0060665Y0299303D03*
X0060665Y0242028D03*
X0072476Y0242028D03*
X0112035Y0242028D03*
X0123846Y0242028D03*
X0163406Y0242028D03*
X0175217Y0242028D03*
X0214776Y0242028D03*
X0226587Y0242028D03*
X0266146Y0242028D03*
X0277957Y0242028D03*
X0317516Y0242028D03*
X0329327Y0242028D03*
X0329327Y0184752D03*
X0317516Y0184752D03*
X0277957Y0184752D03*
X0266146Y0184752D03*
X0226587Y0184752D03*
X0214776Y0184752D03*
X0175217Y0184752D03*
X0163406Y0184752D03*
X0123846Y0184752D03*
X0112035Y0184752D03*
X0072476Y0184752D03*
X0060665Y0184752D03*
X0060665Y0127476D03*
X0072476Y0127476D03*
X0112035Y0127476D03*
X0123846Y0127476D03*
X0163406Y0127476D03*
X0175217Y0127476D03*
X0214776Y0127476D03*
X0226587Y0127476D03*
X0266146Y0127476D03*
X0277957Y0127476D03*
X0317516Y0127476D03*
X0329327Y0127476D03*
X0329327Y0070201D03*
X0317516Y0070201D03*
X0277957Y0070201D03*
X0266146Y0070201D03*
X0226587Y0070201D03*
X0214776Y0070201D03*
X0175217Y0070201D03*
X0163406Y0070201D03*
X0123846Y0070201D03*
X0112035Y0070201D03*
X0072476Y0070201D03*
X0060665Y0070201D03*
M02*
