G75*
%MOIN*%
%OFA0B0*%
%FSLAX25Y25*%
%IPPOS*%
%LPD*%
%AMOC8*
5,1,8,0,0,1.08239X$1,22.5*
%
%ADD10R,0.12611X0.03950*%
%ADD11C,0.03950*%
%ADD12R,0.05524X0.02965*%
%ADD13R,0.01981X0.02375*%
%ADD14C,0.01575*%
%ADD15R,0.06890X0.06890*%
%ADD16R,0.01575X0.02756*%
%ADD17R,0.02756X0.01575*%
%ADD18R,0.07493X0.07493*%
%ADD19R,0.05131X0.05131*%
%ADD20R,0.02375X0.01981*%
%ADD21R,0.03556X0.03556*%
%ADD22C,0.03778*%
D10*
X0044799Y0044799D03*
X0044799Y0049130D03*
X0044799Y0053461D03*
X0044799Y0057791D03*
X0044799Y0062122D03*
X0044799Y0066453D03*
X0044799Y0070783D03*
X0044799Y0075114D03*
X0044799Y0079445D03*
X0044799Y0102075D03*
X0044799Y0106406D03*
X0044799Y0110736D03*
X0044799Y0115067D03*
X0044799Y0119398D03*
X0044799Y0123728D03*
X0044799Y0128059D03*
X0044799Y0132390D03*
X0044799Y0136720D03*
X0044799Y0159350D03*
X0044799Y0163681D03*
X0044799Y0168012D03*
X0044799Y0172343D03*
X0044799Y0176673D03*
X0044799Y0181004D03*
X0044799Y0185335D03*
X0044799Y0189665D03*
X0044799Y0193996D03*
X0044799Y0216626D03*
X0044799Y0220957D03*
X0044799Y0225287D03*
X0044799Y0229618D03*
X0044799Y0233949D03*
X0044799Y0238280D03*
X0044799Y0242610D03*
X0044799Y0246941D03*
X0044799Y0251272D03*
X0044799Y0273902D03*
X0044799Y0278232D03*
X0044799Y0282563D03*
X0044799Y0286894D03*
X0044799Y0291224D03*
X0044799Y0295555D03*
X0044799Y0299886D03*
X0044799Y0304217D03*
X0044799Y0308547D03*
X0083382Y0308547D03*
X0083382Y0304217D03*
X0083382Y0299886D03*
X0083382Y0295555D03*
X0083382Y0291224D03*
X0083382Y0286894D03*
X0083382Y0282563D03*
X0083382Y0278232D03*
X0083382Y0273902D03*
X0096169Y0273902D03*
X0096169Y0278232D03*
X0096169Y0282563D03*
X0096169Y0286894D03*
X0096169Y0291224D03*
X0096169Y0295555D03*
X0096169Y0299886D03*
X0096169Y0304217D03*
X0096169Y0308547D03*
X0134752Y0308547D03*
X0134752Y0304217D03*
X0134752Y0299886D03*
X0134752Y0295555D03*
X0134752Y0291224D03*
X0134752Y0286894D03*
X0134752Y0282563D03*
X0134752Y0278232D03*
X0134752Y0273902D03*
X0147539Y0273902D03*
X0147539Y0278232D03*
X0147539Y0282563D03*
X0147539Y0286894D03*
X0147539Y0291224D03*
X0147539Y0295555D03*
X0147539Y0299886D03*
X0147539Y0304217D03*
X0147539Y0308547D03*
X0186122Y0308547D03*
X0186122Y0304217D03*
X0186122Y0299886D03*
X0186122Y0295555D03*
X0186122Y0291224D03*
X0186122Y0286894D03*
X0186122Y0282563D03*
X0186122Y0278232D03*
X0186122Y0273902D03*
X0198909Y0273902D03*
X0198909Y0278232D03*
X0198909Y0282563D03*
X0198909Y0286894D03*
X0198909Y0291224D03*
X0198909Y0295555D03*
X0198909Y0299886D03*
X0198909Y0304217D03*
X0198909Y0308547D03*
X0237492Y0308547D03*
X0237492Y0304217D03*
X0237492Y0299886D03*
X0237492Y0295555D03*
X0237492Y0291224D03*
X0237492Y0286894D03*
X0237492Y0282563D03*
X0237492Y0278232D03*
X0237492Y0273902D03*
X0250280Y0273902D03*
X0250280Y0278232D03*
X0250280Y0282563D03*
X0250280Y0286894D03*
X0250280Y0291224D03*
X0250280Y0295555D03*
X0250280Y0299886D03*
X0250280Y0304217D03*
X0250280Y0308547D03*
X0288862Y0308547D03*
X0288862Y0304217D03*
X0288862Y0299886D03*
X0288862Y0295555D03*
X0288862Y0291224D03*
X0288862Y0286894D03*
X0288862Y0282563D03*
X0288862Y0278232D03*
X0288862Y0273902D03*
X0301650Y0273902D03*
X0301650Y0278232D03*
X0301650Y0282563D03*
X0301650Y0286894D03*
X0301650Y0291224D03*
X0301650Y0295555D03*
X0301650Y0299886D03*
X0301650Y0304217D03*
X0301650Y0308547D03*
X0340232Y0308547D03*
X0340232Y0304217D03*
X0340232Y0299886D03*
X0340232Y0295555D03*
X0340232Y0291224D03*
X0340232Y0286894D03*
X0340232Y0282563D03*
X0340232Y0278232D03*
X0340232Y0273902D03*
X0340232Y0251272D03*
X0340232Y0246941D03*
X0340232Y0242610D03*
X0340232Y0238280D03*
X0340232Y0233949D03*
X0340232Y0229618D03*
X0340232Y0225287D03*
X0340232Y0220957D03*
X0340232Y0216626D03*
X0340232Y0193996D03*
X0340232Y0189665D03*
X0340232Y0185335D03*
X0340232Y0181004D03*
X0340232Y0176673D03*
X0340232Y0172343D03*
X0340232Y0168012D03*
X0340232Y0163681D03*
X0340232Y0159350D03*
X0340232Y0136720D03*
X0340232Y0132390D03*
X0340232Y0128059D03*
X0340232Y0123728D03*
X0340232Y0119398D03*
X0340232Y0115067D03*
X0340232Y0110736D03*
X0340232Y0106406D03*
X0340232Y0102075D03*
X0340232Y0079445D03*
X0340232Y0075114D03*
X0340232Y0070783D03*
X0340232Y0066453D03*
X0340232Y0062122D03*
X0340232Y0057791D03*
X0340232Y0053461D03*
X0340232Y0049130D03*
X0340232Y0044799D03*
X0301650Y0044799D03*
X0301650Y0049130D03*
X0301650Y0053461D03*
X0301650Y0057791D03*
X0301650Y0062122D03*
X0301650Y0066453D03*
X0301650Y0070783D03*
X0301650Y0075114D03*
X0301650Y0079445D03*
X0288862Y0079445D03*
X0288862Y0075114D03*
X0288862Y0070783D03*
X0288862Y0066453D03*
X0288862Y0062122D03*
X0288862Y0057791D03*
X0288862Y0053461D03*
X0288862Y0049130D03*
X0288862Y0044799D03*
X0250280Y0044799D03*
X0250280Y0049130D03*
X0250280Y0053461D03*
X0250280Y0057791D03*
X0250280Y0062122D03*
X0250280Y0066453D03*
X0250280Y0070783D03*
X0250280Y0075114D03*
X0250280Y0079445D03*
X0237492Y0079445D03*
X0237492Y0075114D03*
X0237492Y0070783D03*
X0237492Y0066453D03*
X0237492Y0062122D03*
X0237492Y0057791D03*
X0237492Y0053461D03*
X0237492Y0049130D03*
X0237492Y0044799D03*
X0198909Y0044799D03*
X0198909Y0049130D03*
X0198909Y0053461D03*
X0198909Y0057791D03*
X0198909Y0062122D03*
X0198909Y0066453D03*
X0198909Y0070783D03*
X0198909Y0075114D03*
X0198909Y0079445D03*
X0186122Y0079445D03*
X0186122Y0075114D03*
X0186122Y0070783D03*
X0186122Y0066453D03*
X0186122Y0062122D03*
X0186122Y0057791D03*
X0186122Y0053461D03*
X0186122Y0049130D03*
X0186122Y0044799D03*
X0147539Y0044799D03*
X0147539Y0049130D03*
X0147539Y0053461D03*
X0147539Y0057791D03*
X0147539Y0062122D03*
X0147539Y0066453D03*
X0147539Y0070783D03*
X0147539Y0075114D03*
X0147539Y0079445D03*
X0134752Y0079445D03*
X0134752Y0075114D03*
X0134752Y0070783D03*
X0134752Y0066453D03*
X0134752Y0062122D03*
X0134752Y0057791D03*
X0134752Y0053461D03*
X0134752Y0049130D03*
X0134752Y0044799D03*
X0096169Y0044799D03*
X0096169Y0049130D03*
X0096169Y0053461D03*
X0096169Y0057791D03*
X0096169Y0062122D03*
X0096169Y0066453D03*
X0096169Y0070783D03*
X0096169Y0075114D03*
X0096169Y0079445D03*
X0083382Y0079445D03*
X0083382Y0075114D03*
X0083382Y0070783D03*
X0083382Y0066453D03*
X0083382Y0062122D03*
X0083382Y0057791D03*
X0083382Y0053461D03*
X0083382Y0049130D03*
X0083382Y0044799D03*
X0083382Y0102075D03*
X0083382Y0106406D03*
X0083382Y0110736D03*
X0083382Y0115067D03*
X0083382Y0119398D03*
X0083382Y0123728D03*
X0083382Y0128059D03*
X0083382Y0132390D03*
X0083382Y0136720D03*
X0096169Y0136720D03*
X0096169Y0132390D03*
X0096169Y0128059D03*
X0096169Y0123728D03*
X0096169Y0119398D03*
X0096169Y0115067D03*
X0096169Y0110736D03*
X0096169Y0106406D03*
X0096169Y0102075D03*
X0134752Y0102075D03*
X0134752Y0106406D03*
X0134752Y0110736D03*
X0134752Y0115067D03*
X0134752Y0119398D03*
X0134752Y0123728D03*
X0134752Y0128059D03*
X0134752Y0132390D03*
X0134752Y0136720D03*
X0147539Y0136720D03*
X0147539Y0132390D03*
X0147539Y0128059D03*
X0147539Y0123728D03*
X0147539Y0119398D03*
X0147539Y0115067D03*
X0147539Y0110736D03*
X0147539Y0106406D03*
X0147539Y0102075D03*
X0186122Y0102075D03*
X0186122Y0106406D03*
X0186122Y0110736D03*
X0186122Y0115067D03*
X0186122Y0119398D03*
X0186122Y0123728D03*
X0186122Y0128059D03*
X0186122Y0132390D03*
X0186122Y0136720D03*
X0198909Y0136720D03*
X0198909Y0132390D03*
X0198909Y0128059D03*
X0198909Y0123728D03*
X0198909Y0119398D03*
X0198909Y0115067D03*
X0198909Y0110736D03*
X0198909Y0106406D03*
X0198909Y0102075D03*
X0237492Y0102075D03*
X0237492Y0106406D03*
X0237492Y0110736D03*
X0237492Y0115067D03*
X0237492Y0119398D03*
X0237492Y0123728D03*
X0237492Y0128059D03*
X0237492Y0132390D03*
X0237492Y0136720D03*
X0250280Y0136720D03*
X0250280Y0132390D03*
X0250280Y0128059D03*
X0250280Y0123728D03*
X0250280Y0119398D03*
X0250280Y0115067D03*
X0250280Y0110736D03*
X0250280Y0106406D03*
X0250280Y0102075D03*
X0288862Y0102075D03*
X0288862Y0106406D03*
X0288862Y0110736D03*
X0288862Y0115067D03*
X0288862Y0119398D03*
X0288862Y0123728D03*
X0288862Y0128059D03*
X0288862Y0132390D03*
X0288862Y0136720D03*
X0301650Y0136720D03*
X0301650Y0132390D03*
X0301650Y0128059D03*
X0301650Y0123728D03*
X0301650Y0119398D03*
X0301650Y0115067D03*
X0301650Y0110736D03*
X0301650Y0106406D03*
X0301650Y0102075D03*
X0301650Y0159350D03*
X0301650Y0163681D03*
X0301650Y0168012D03*
X0301650Y0172343D03*
X0301650Y0176673D03*
X0301650Y0181004D03*
X0301650Y0185335D03*
X0301650Y0189665D03*
X0301650Y0193996D03*
X0288862Y0193996D03*
X0288862Y0189665D03*
X0288862Y0185335D03*
X0288862Y0181004D03*
X0288862Y0176673D03*
X0288862Y0172343D03*
X0288862Y0168012D03*
X0288862Y0163681D03*
X0288862Y0159350D03*
X0250280Y0159350D03*
X0250280Y0163681D03*
X0250280Y0168012D03*
X0250280Y0172343D03*
X0250280Y0176673D03*
X0250280Y0181004D03*
X0250280Y0185335D03*
X0250280Y0189665D03*
X0250280Y0193996D03*
X0237492Y0193996D03*
X0237492Y0189665D03*
X0237492Y0185335D03*
X0237492Y0181004D03*
X0237492Y0176673D03*
X0237492Y0172343D03*
X0237492Y0168012D03*
X0237492Y0163681D03*
X0237492Y0159350D03*
X0198909Y0159350D03*
X0198909Y0163681D03*
X0198909Y0168012D03*
X0198909Y0172343D03*
X0198909Y0176673D03*
X0198909Y0181004D03*
X0198909Y0185335D03*
X0198909Y0189665D03*
X0198909Y0193996D03*
X0186122Y0193996D03*
X0186122Y0189665D03*
X0186122Y0185335D03*
X0186122Y0181004D03*
X0186122Y0176673D03*
X0186122Y0172343D03*
X0186122Y0168012D03*
X0186122Y0163681D03*
X0186122Y0159350D03*
X0147539Y0159350D03*
X0147539Y0163681D03*
X0147539Y0168012D03*
X0147539Y0172343D03*
X0147539Y0176673D03*
X0147539Y0181004D03*
X0147539Y0185335D03*
X0147539Y0189665D03*
X0147539Y0193996D03*
X0134752Y0193996D03*
X0134752Y0189665D03*
X0134752Y0185335D03*
X0134752Y0181004D03*
X0134752Y0176673D03*
X0134752Y0172343D03*
X0134752Y0168012D03*
X0134752Y0163681D03*
X0134752Y0159350D03*
X0096169Y0159350D03*
X0096169Y0163681D03*
X0096169Y0168012D03*
X0096169Y0172343D03*
X0096169Y0176673D03*
X0096169Y0181004D03*
X0096169Y0185335D03*
X0096169Y0189665D03*
X0096169Y0193996D03*
X0083382Y0193996D03*
X0083382Y0189665D03*
X0083382Y0185335D03*
X0083382Y0181004D03*
X0083382Y0176673D03*
X0083382Y0172343D03*
X0083382Y0168012D03*
X0083382Y0163681D03*
X0083382Y0159350D03*
X0083382Y0216626D03*
X0083382Y0220957D03*
X0083382Y0225287D03*
X0083382Y0229618D03*
X0083382Y0233949D03*
X0083382Y0238280D03*
X0083382Y0242610D03*
X0083382Y0246941D03*
X0083382Y0251272D03*
X0096169Y0251272D03*
X0096169Y0246941D03*
X0096169Y0242610D03*
X0096169Y0238280D03*
X0096169Y0233949D03*
X0096169Y0229618D03*
X0096169Y0225287D03*
X0096169Y0220957D03*
X0096169Y0216626D03*
X0134752Y0216626D03*
X0134752Y0220957D03*
X0134752Y0225287D03*
X0134752Y0229618D03*
X0134752Y0233949D03*
X0134752Y0238280D03*
X0134752Y0242610D03*
X0134752Y0246941D03*
X0134752Y0251272D03*
X0147539Y0251272D03*
X0147539Y0246941D03*
X0147539Y0242610D03*
X0147539Y0238280D03*
X0147539Y0233949D03*
X0147539Y0229618D03*
X0147539Y0225287D03*
X0147539Y0220957D03*
X0147539Y0216626D03*
X0186122Y0216626D03*
X0186122Y0220957D03*
X0186122Y0225287D03*
X0186122Y0229618D03*
X0186122Y0233949D03*
X0186122Y0238280D03*
X0186122Y0242610D03*
X0186122Y0246941D03*
X0186122Y0251272D03*
X0198909Y0251272D03*
X0198909Y0246941D03*
X0198909Y0242610D03*
X0198909Y0238280D03*
X0198909Y0233949D03*
X0198909Y0229618D03*
X0198909Y0225287D03*
X0198909Y0220957D03*
X0198909Y0216626D03*
X0237492Y0216626D03*
X0237492Y0220957D03*
X0237492Y0225287D03*
X0237492Y0229618D03*
X0237492Y0233949D03*
X0237492Y0238280D03*
X0237492Y0242610D03*
X0237492Y0246941D03*
X0237492Y0251272D03*
X0250280Y0251272D03*
X0250280Y0246941D03*
X0250280Y0242610D03*
X0250280Y0238280D03*
X0250280Y0233949D03*
X0250280Y0229618D03*
X0250280Y0225287D03*
X0250280Y0220957D03*
X0250280Y0216626D03*
X0288862Y0216626D03*
X0288862Y0220957D03*
X0288862Y0225287D03*
X0288862Y0229618D03*
X0288862Y0233949D03*
X0288862Y0238280D03*
X0288862Y0242610D03*
X0288862Y0246941D03*
X0288862Y0251272D03*
X0301650Y0251272D03*
X0301650Y0246941D03*
X0301650Y0242610D03*
X0301650Y0238280D03*
X0301650Y0233949D03*
X0301650Y0229618D03*
X0301650Y0225287D03*
X0301650Y0220957D03*
X0301650Y0216626D03*
D11*
X0044405Y0044799D03*
X0044405Y0049130D03*
X0044405Y0053461D03*
X0044405Y0057791D03*
X0044405Y0062122D03*
X0044405Y0066453D03*
X0044405Y0070783D03*
X0044405Y0075114D03*
X0044405Y0079445D03*
X0048736Y0079445D03*
X0048736Y0075114D03*
X0048736Y0070783D03*
X0048736Y0066453D03*
X0048736Y0062122D03*
X0048736Y0057791D03*
X0048736Y0053461D03*
X0048736Y0049130D03*
X0048736Y0044799D03*
X0079445Y0044799D03*
X0083776Y0044799D03*
X0083776Y0049130D03*
X0079445Y0049130D03*
X0079445Y0053461D03*
X0079445Y0057791D03*
X0083776Y0057791D03*
X0083776Y0053461D03*
X0083776Y0062122D03*
X0083776Y0066453D03*
X0079445Y0066453D03*
X0079445Y0062122D03*
X0079445Y0070783D03*
X0083776Y0070783D03*
X0083776Y0075114D03*
X0083776Y0079445D03*
X0079445Y0079445D03*
X0079445Y0075114D03*
X0095776Y0075114D03*
X0100106Y0075114D03*
X0100106Y0070783D03*
X0095776Y0070783D03*
X0095776Y0066453D03*
X0100106Y0066453D03*
X0100106Y0062122D03*
X0095776Y0062122D03*
X0095776Y0057791D03*
X0100106Y0057791D03*
X0100106Y0053461D03*
X0095776Y0053461D03*
X0095776Y0049130D03*
X0100106Y0049130D03*
X0100106Y0044799D03*
X0095776Y0044799D03*
X0095776Y0079445D03*
X0100106Y0079445D03*
X0100106Y0102075D03*
X0095776Y0102075D03*
X0095776Y0106406D03*
X0095776Y0110736D03*
X0100106Y0110736D03*
X0100106Y0106406D03*
X0100106Y0115067D03*
X0095776Y0115067D03*
X0095776Y0119398D03*
X0100106Y0119398D03*
X0100106Y0123728D03*
X0095776Y0123728D03*
X0095776Y0128059D03*
X0100106Y0128059D03*
X0100106Y0132390D03*
X0095776Y0132390D03*
X0095776Y0136720D03*
X0100106Y0136720D03*
X0083776Y0136720D03*
X0083776Y0132390D03*
X0083776Y0128059D03*
X0083776Y0123728D03*
X0079445Y0123728D03*
X0079445Y0128059D03*
X0079445Y0132390D03*
X0079445Y0136720D03*
X0079445Y0119398D03*
X0083776Y0119398D03*
X0083776Y0115067D03*
X0083776Y0110736D03*
X0083776Y0106406D03*
X0079445Y0106406D03*
X0079445Y0110736D03*
X0079445Y0115067D03*
X0079445Y0102075D03*
X0083776Y0102075D03*
X0048736Y0102075D03*
X0048736Y0106406D03*
X0048736Y0110736D03*
X0048736Y0115067D03*
X0048736Y0119398D03*
X0048736Y0123728D03*
X0048736Y0128059D03*
X0048736Y0132390D03*
X0048736Y0136720D03*
X0044405Y0136720D03*
X0044405Y0132390D03*
X0044405Y0128059D03*
X0044405Y0123728D03*
X0044405Y0119398D03*
X0044405Y0115067D03*
X0044405Y0110736D03*
X0044405Y0106406D03*
X0044405Y0102075D03*
X0044405Y0159350D03*
X0044405Y0163681D03*
X0044405Y0168012D03*
X0044405Y0172343D03*
X0044405Y0176673D03*
X0044405Y0181004D03*
X0044405Y0185335D03*
X0044405Y0189665D03*
X0044405Y0193996D03*
X0048736Y0193996D03*
X0048736Y0189665D03*
X0048736Y0185335D03*
X0048736Y0181004D03*
X0048736Y0176673D03*
X0048736Y0172343D03*
X0048736Y0168012D03*
X0048736Y0163681D03*
X0048736Y0159350D03*
X0079445Y0159350D03*
X0083776Y0159350D03*
X0083776Y0163681D03*
X0083776Y0168012D03*
X0079445Y0168012D03*
X0079445Y0163681D03*
X0079445Y0172343D03*
X0079445Y0176673D03*
X0083776Y0176673D03*
X0083776Y0172343D03*
X0083776Y0181004D03*
X0083776Y0185335D03*
X0083776Y0189665D03*
X0079445Y0189665D03*
X0079445Y0185335D03*
X0079445Y0181004D03*
X0079445Y0193996D03*
X0083776Y0193996D03*
X0095776Y0193996D03*
X0100106Y0193996D03*
X0100106Y0189665D03*
X0100106Y0185335D03*
X0095776Y0185335D03*
X0095776Y0189665D03*
X0095776Y0181004D03*
X0100106Y0181004D03*
X0100106Y0176673D03*
X0095776Y0176673D03*
X0095776Y0172343D03*
X0100106Y0172343D03*
X0100106Y0168012D03*
X0095776Y0168012D03*
X0095776Y0163681D03*
X0100106Y0163681D03*
X0100106Y0159350D03*
X0095776Y0159350D03*
X0130815Y0159350D03*
X0135146Y0159350D03*
X0135146Y0163681D03*
X0135146Y0168012D03*
X0130815Y0168012D03*
X0130815Y0163681D03*
X0130815Y0172343D03*
X0130815Y0176673D03*
X0135146Y0176673D03*
X0135146Y0172343D03*
X0135146Y0181004D03*
X0135146Y0185335D03*
X0135146Y0189665D03*
X0130815Y0189665D03*
X0130815Y0185335D03*
X0130815Y0181004D03*
X0130815Y0193996D03*
X0135146Y0193996D03*
X0147146Y0193996D03*
X0151476Y0193996D03*
X0151476Y0189665D03*
X0147146Y0189665D03*
X0147146Y0185335D03*
X0151476Y0185335D03*
X0151476Y0181004D03*
X0147146Y0181004D03*
X0147146Y0176673D03*
X0151476Y0176673D03*
X0151476Y0172343D03*
X0147146Y0172343D03*
X0147146Y0168012D03*
X0151476Y0168012D03*
X0151476Y0163681D03*
X0147146Y0163681D03*
X0147146Y0159350D03*
X0151476Y0159350D03*
X0151476Y0136720D03*
X0151476Y0132390D03*
X0147146Y0132390D03*
X0147146Y0136720D03*
X0147146Y0128059D03*
X0151476Y0128059D03*
X0151476Y0123728D03*
X0147146Y0123728D03*
X0147146Y0119398D03*
X0151476Y0119398D03*
X0151476Y0115067D03*
X0147146Y0115067D03*
X0147146Y0110736D03*
X0151476Y0110736D03*
X0151476Y0106406D03*
X0147146Y0106406D03*
X0147146Y0102075D03*
X0151476Y0102075D03*
X0135146Y0102075D03*
X0135146Y0106406D03*
X0135146Y0110736D03*
X0135146Y0115067D03*
X0135146Y0119398D03*
X0130815Y0119398D03*
X0130815Y0115067D03*
X0130815Y0110736D03*
X0130815Y0106406D03*
X0130815Y0102075D03*
X0130815Y0123728D03*
X0135146Y0123728D03*
X0135146Y0128059D03*
X0135146Y0132390D03*
X0135146Y0136720D03*
X0130815Y0136720D03*
X0130815Y0132390D03*
X0130815Y0128059D03*
X0182185Y0128059D03*
X0182185Y0123728D03*
X0186516Y0123728D03*
X0186516Y0128059D03*
X0186516Y0132390D03*
X0186516Y0136720D03*
X0182185Y0136720D03*
X0182185Y0132390D03*
X0182185Y0119398D03*
X0186516Y0119398D03*
X0186516Y0115067D03*
X0186516Y0110736D03*
X0186516Y0106406D03*
X0182185Y0106406D03*
X0182185Y0110736D03*
X0182185Y0115067D03*
X0182185Y0102075D03*
X0186516Y0102075D03*
X0198516Y0102075D03*
X0202846Y0102075D03*
X0202846Y0106406D03*
X0202846Y0110736D03*
X0198516Y0110736D03*
X0198516Y0106406D03*
X0198516Y0115067D03*
X0202846Y0115067D03*
X0202846Y0119398D03*
X0198516Y0119398D03*
X0198516Y0123728D03*
X0202846Y0123728D03*
X0202846Y0128059D03*
X0198516Y0128059D03*
X0198516Y0132390D03*
X0202846Y0132390D03*
X0202846Y0136720D03*
X0198516Y0136720D03*
X0198516Y0159350D03*
X0202846Y0159350D03*
X0202846Y0163681D03*
X0198516Y0163681D03*
X0198516Y0168012D03*
X0202846Y0168012D03*
X0202846Y0172343D03*
X0202846Y0176673D03*
X0198516Y0176673D03*
X0198516Y0172343D03*
X0198516Y0181004D03*
X0202846Y0181004D03*
X0202846Y0185335D03*
X0198516Y0185335D03*
X0198516Y0189665D03*
X0202846Y0189665D03*
X0202846Y0193996D03*
X0198516Y0193996D03*
X0186516Y0193996D03*
X0182185Y0193996D03*
X0182185Y0189665D03*
X0182185Y0185335D03*
X0186516Y0185335D03*
X0186516Y0189665D03*
X0186516Y0181004D03*
X0186516Y0176673D03*
X0186516Y0172343D03*
X0182185Y0172343D03*
X0182185Y0176673D03*
X0182185Y0181004D03*
X0182185Y0168012D03*
X0186516Y0168012D03*
X0186516Y0163681D03*
X0186516Y0159350D03*
X0182185Y0159350D03*
X0182185Y0163681D03*
X0233555Y0163681D03*
X0233555Y0159350D03*
X0237886Y0159350D03*
X0237886Y0163681D03*
X0237886Y0168012D03*
X0233555Y0168012D03*
X0233555Y0172343D03*
X0233555Y0176673D03*
X0237886Y0176673D03*
X0237886Y0172343D03*
X0237886Y0181004D03*
X0237886Y0185335D03*
X0237886Y0189665D03*
X0233555Y0189665D03*
X0233555Y0185335D03*
X0233555Y0181004D03*
X0233555Y0193996D03*
X0237886Y0193996D03*
X0249886Y0193996D03*
X0254217Y0193996D03*
X0254217Y0189665D03*
X0254217Y0185335D03*
X0254217Y0181004D03*
X0254217Y0176673D03*
X0254217Y0172343D03*
X0254217Y0168012D03*
X0254217Y0163681D03*
X0254217Y0159350D03*
X0249886Y0159350D03*
X0249886Y0163681D03*
X0249886Y0168012D03*
X0249886Y0172343D03*
X0249886Y0176673D03*
X0249886Y0181004D03*
X0249886Y0185335D03*
X0249886Y0189665D03*
X0249886Y0216626D03*
X0249886Y0220957D03*
X0249886Y0225287D03*
X0249886Y0229618D03*
X0249886Y0233949D03*
X0249886Y0238280D03*
X0249886Y0242610D03*
X0249886Y0246941D03*
X0249886Y0251272D03*
X0254217Y0251272D03*
X0254217Y0246941D03*
X0254217Y0242610D03*
X0254217Y0238280D03*
X0254217Y0233949D03*
X0254217Y0229618D03*
X0254217Y0225287D03*
X0254217Y0220957D03*
X0254217Y0216626D03*
X0237886Y0216626D03*
X0237886Y0220957D03*
X0233555Y0220957D03*
X0233555Y0216626D03*
X0233555Y0225287D03*
X0237886Y0225287D03*
X0237886Y0229618D03*
X0237886Y0233949D03*
X0237886Y0238280D03*
X0233555Y0238280D03*
X0233555Y0233949D03*
X0233555Y0229618D03*
X0233555Y0242610D03*
X0237886Y0242610D03*
X0237886Y0246941D03*
X0237886Y0251272D03*
X0233555Y0251272D03*
X0233555Y0246941D03*
X0233555Y0273902D03*
X0237886Y0273902D03*
X0237886Y0278232D03*
X0233555Y0278232D03*
X0233555Y0282563D03*
X0233555Y0286894D03*
X0233555Y0291224D03*
X0237886Y0291224D03*
X0237886Y0286894D03*
X0237886Y0282563D03*
X0249886Y0282563D03*
X0249886Y0278232D03*
X0249886Y0273902D03*
X0254217Y0273902D03*
X0254217Y0278232D03*
X0254217Y0282563D03*
X0254217Y0286894D03*
X0254217Y0291224D03*
X0254217Y0295555D03*
X0254217Y0299886D03*
X0254217Y0304217D03*
X0254217Y0308547D03*
X0249886Y0308547D03*
X0249886Y0304217D03*
X0249886Y0299886D03*
X0249886Y0295555D03*
X0249886Y0291224D03*
X0249886Y0286894D03*
X0237886Y0295555D03*
X0237886Y0299886D03*
X0237886Y0304217D03*
X0237886Y0308547D03*
X0233555Y0308547D03*
X0233555Y0304217D03*
X0233555Y0299886D03*
X0233555Y0295555D03*
X0202846Y0295555D03*
X0198516Y0295555D03*
X0198516Y0299886D03*
X0202846Y0299886D03*
X0202846Y0304217D03*
X0202846Y0308547D03*
X0198516Y0308547D03*
X0198516Y0304217D03*
X0186516Y0304217D03*
X0186516Y0308547D03*
X0182185Y0308547D03*
X0182185Y0304217D03*
X0182185Y0299886D03*
X0186516Y0299886D03*
X0186516Y0295555D03*
X0182185Y0295555D03*
X0182185Y0291224D03*
X0182185Y0286894D03*
X0186516Y0286894D03*
X0186516Y0291224D03*
X0186516Y0282563D03*
X0186516Y0278232D03*
X0182185Y0278232D03*
X0182185Y0282563D03*
X0182185Y0273902D03*
X0186516Y0273902D03*
X0198516Y0273902D03*
X0202846Y0273902D03*
X0202846Y0278232D03*
X0198516Y0278232D03*
X0198516Y0282563D03*
X0202846Y0282563D03*
X0202846Y0286894D03*
X0198516Y0286894D03*
X0198516Y0291224D03*
X0202846Y0291224D03*
X0202846Y0251272D03*
X0198516Y0251272D03*
X0198516Y0246941D03*
X0202846Y0246941D03*
X0202846Y0242610D03*
X0198516Y0242610D03*
X0198516Y0238280D03*
X0202846Y0238280D03*
X0202846Y0233949D03*
X0198516Y0233949D03*
X0198516Y0229618D03*
X0202846Y0229618D03*
X0202846Y0225287D03*
X0198516Y0225287D03*
X0198516Y0220957D03*
X0202846Y0220957D03*
X0202846Y0216626D03*
X0198516Y0216626D03*
X0186516Y0216626D03*
X0186516Y0220957D03*
X0182185Y0220957D03*
X0182185Y0216626D03*
X0182185Y0225287D03*
X0186516Y0225287D03*
X0186516Y0229618D03*
X0186516Y0233949D03*
X0186516Y0238280D03*
X0182185Y0238280D03*
X0182185Y0233949D03*
X0182185Y0229618D03*
X0182185Y0242610D03*
X0186516Y0242610D03*
X0186516Y0246941D03*
X0186516Y0251272D03*
X0182185Y0251272D03*
X0182185Y0246941D03*
X0151476Y0246941D03*
X0147146Y0246941D03*
X0147146Y0251272D03*
X0151476Y0251272D03*
X0151476Y0242610D03*
X0147146Y0242610D03*
X0147146Y0238280D03*
X0151476Y0238280D03*
X0151476Y0233949D03*
X0147146Y0233949D03*
X0147146Y0229618D03*
X0151476Y0229618D03*
X0151476Y0225287D03*
X0147146Y0225287D03*
X0147146Y0220957D03*
X0151476Y0220957D03*
X0151476Y0216626D03*
X0147146Y0216626D03*
X0135146Y0216626D03*
X0135146Y0220957D03*
X0130815Y0220957D03*
X0130815Y0216626D03*
X0130815Y0225287D03*
X0135146Y0225287D03*
X0135146Y0229618D03*
X0135146Y0233949D03*
X0135146Y0238280D03*
X0130815Y0238280D03*
X0130815Y0233949D03*
X0130815Y0229618D03*
X0130815Y0242610D03*
X0135146Y0242610D03*
X0135146Y0246941D03*
X0135146Y0251272D03*
X0130815Y0251272D03*
X0130815Y0246941D03*
X0130815Y0273902D03*
X0135146Y0273902D03*
X0135146Y0278232D03*
X0135146Y0282563D03*
X0135146Y0286894D03*
X0135146Y0291224D03*
X0130815Y0291224D03*
X0130815Y0286894D03*
X0130815Y0282563D03*
X0130815Y0278232D03*
X0147146Y0278232D03*
X0151476Y0278232D03*
X0151476Y0282563D03*
X0147146Y0282563D03*
X0147146Y0286894D03*
X0151476Y0286894D03*
X0151476Y0291224D03*
X0147146Y0291224D03*
X0147146Y0295555D03*
X0151476Y0295555D03*
X0151476Y0299886D03*
X0147146Y0299886D03*
X0147146Y0304217D03*
X0147146Y0308547D03*
X0151476Y0308547D03*
X0151476Y0304217D03*
X0135146Y0304217D03*
X0135146Y0308547D03*
X0130815Y0308547D03*
X0130815Y0304217D03*
X0130815Y0299886D03*
X0135146Y0299886D03*
X0135146Y0295555D03*
X0130815Y0295555D03*
X0147146Y0273902D03*
X0151476Y0273902D03*
X0100106Y0273902D03*
X0095776Y0273902D03*
X0095776Y0278232D03*
X0100106Y0278232D03*
X0100106Y0282563D03*
X0095776Y0282563D03*
X0095776Y0286894D03*
X0100106Y0286894D03*
X0100106Y0291224D03*
X0095776Y0291224D03*
X0095776Y0295555D03*
X0100106Y0295555D03*
X0100106Y0299886D03*
X0095776Y0299886D03*
X0095776Y0304217D03*
X0095776Y0308547D03*
X0100106Y0308547D03*
X0100106Y0304217D03*
X0083776Y0304217D03*
X0083776Y0308547D03*
X0079445Y0308547D03*
X0079445Y0304217D03*
X0079445Y0299886D03*
X0083776Y0299886D03*
X0083776Y0295555D03*
X0079445Y0295555D03*
X0079445Y0291224D03*
X0079445Y0286894D03*
X0083776Y0286894D03*
X0083776Y0291224D03*
X0083776Y0282563D03*
X0083776Y0278232D03*
X0079445Y0278232D03*
X0079445Y0282563D03*
X0079445Y0273902D03*
X0083776Y0273902D03*
X0083776Y0251272D03*
X0083776Y0246941D03*
X0083776Y0242610D03*
X0079445Y0242610D03*
X0079445Y0246941D03*
X0079445Y0251272D03*
X0079445Y0238280D03*
X0083776Y0238280D03*
X0083776Y0233949D03*
X0083776Y0229618D03*
X0083776Y0225287D03*
X0079445Y0225287D03*
X0079445Y0229618D03*
X0079445Y0233949D03*
X0079445Y0220957D03*
X0083776Y0220957D03*
X0083776Y0216626D03*
X0079445Y0216626D03*
X0095776Y0216626D03*
X0100106Y0216626D03*
X0100106Y0220957D03*
X0095776Y0220957D03*
X0095776Y0225287D03*
X0100106Y0225287D03*
X0100106Y0229618D03*
X0095776Y0229618D03*
X0095776Y0233949D03*
X0100106Y0233949D03*
X0100106Y0238280D03*
X0095776Y0238280D03*
X0095776Y0242610D03*
X0100106Y0242610D03*
X0100106Y0246941D03*
X0095776Y0246941D03*
X0095776Y0251272D03*
X0100106Y0251272D03*
X0048736Y0251272D03*
X0048736Y0246941D03*
X0048736Y0242610D03*
X0048736Y0238280D03*
X0048736Y0233949D03*
X0048736Y0229618D03*
X0048736Y0225287D03*
X0048736Y0220957D03*
X0048736Y0216626D03*
X0044405Y0216626D03*
X0044405Y0220957D03*
X0044405Y0225287D03*
X0044405Y0229618D03*
X0044405Y0233949D03*
X0044405Y0238280D03*
X0044405Y0242610D03*
X0044405Y0246941D03*
X0044405Y0251272D03*
X0044405Y0273902D03*
X0044405Y0278232D03*
X0044405Y0282563D03*
X0044405Y0286894D03*
X0044405Y0291224D03*
X0044405Y0295555D03*
X0044405Y0299886D03*
X0044405Y0304217D03*
X0044405Y0308547D03*
X0048736Y0308547D03*
X0048736Y0304217D03*
X0048736Y0299886D03*
X0048736Y0295555D03*
X0048736Y0291224D03*
X0048736Y0286894D03*
X0048736Y0282563D03*
X0048736Y0278232D03*
X0048736Y0273902D03*
X0233555Y0136720D03*
X0233555Y0132390D03*
X0237886Y0132390D03*
X0237886Y0136720D03*
X0237886Y0128059D03*
X0237886Y0123728D03*
X0233555Y0123728D03*
X0233555Y0128059D03*
X0233555Y0119398D03*
X0237886Y0119398D03*
X0237886Y0115067D03*
X0237886Y0110736D03*
X0237886Y0106406D03*
X0233555Y0106406D03*
X0233555Y0110736D03*
X0233555Y0115067D03*
X0233555Y0102075D03*
X0237886Y0102075D03*
X0249886Y0102075D03*
X0249886Y0106406D03*
X0249886Y0110736D03*
X0249886Y0115067D03*
X0249886Y0119398D03*
X0249886Y0123728D03*
X0249886Y0128059D03*
X0249886Y0132390D03*
X0249886Y0136720D03*
X0254217Y0136720D03*
X0254217Y0132390D03*
X0254217Y0128059D03*
X0254217Y0123728D03*
X0254217Y0119398D03*
X0254217Y0115067D03*
X0254217Y0110736D03*
X0254217Y0106406D03*
X0254217Y0102075D03*
X0254217Y0079445D03*
X0254217Y0075114D03*
X0254217Y0070783D03*
X0254217Y0066453D03*
X0254217Y0062122D03*
X0254217Y0057791D03*
X0254217Y0053461D03*
X0254217Y0049130D03*
X0254217Y0044799D03*
X0249886Y0044799D03*
X0249886Y0049130D03*
X0249886Y0053461D03*
X0249886Y0057791D03*
X0249886Y0062122D03*
X0249886Y0066453D03*
X0249886Y0070783D03*
X0249886Y0075114D03*
X0249886Y0079445D03*
X0237886Y0079445D03*
X0237886Y0075114D03*
X0237886Y0070783D03*
X0233555Y0070783D03*
X0233555Y0075114D03*
X0233555Y0079445D03*
X0233555Y0066453D03*
X0237886Y0066453D03*
X0237886Y0062122D03*
X0237886Y0057791D03*
X0237886Y0053461D03*
X0233555Y0053461D03*
X0233555Y0057791D03*
X0233555Y0062122D03*
X0233555Y0049130D03*
X0233555Y0044799D03*
X0237886Y0044799D03*
X0237886Y0049130D03*
X0202846Y0049130D03*
X0198516Y0049130D03*
X0198516Y0044799D03*
X0202846Y0044799D03*
X0202846Y0053461D03*
X0198516Y0053461D03*
X0198516Y0057791D03*
X0202846Y0057791D03*
X0202846Y0062122D03*
X0198516Y0062122D03*
X0198516Y0066453D03*
X0202846Y0066453D03*
X0202846Y0070783D03*
X0198516Y0070783D03*
X0198516Y0075114D03*
X0202846Y0075114D03*
X0202846Y0079445D03*
X0198516Y0079445D03*
X0186516Y0079445D03*
X0186516Y0075114D03*
X0186516Y0070783D03*
X0182185Y0070783D03*
X0182185Y0075114D03*
X0182185Y0079445D03*
X0182185Y0066453D03*
X0186516Y0066453D03*
X0186516Y0062122D03*
X0186516Y0057791D03*
X0186516Y0053461D03*
X0182185Y0053461D03*
X0182185Y0057791D03*
X0182185Y0062122D03*
X0182185Y0049130D03*
X0186516Y0049130D03*
X0186516Y0044799D03*
X0182185Y0044799D03*
X0151476Y0044799D03*
X0147146Y0044799D03*
X0147146Y0049130D03*
X0151476Y0049130D03*
X0151476Y0053461D03*
X0147146Y0053461D03*
X0147146Y0057791D03*
X0151476Y0057791D03*
X0151476Y0062122D03*
X0147146Y0062122D03*
X0147146Y0066453D03*
X0151476Y0066453D03*
X0151476Y0070783D03*
X0147146Y0070783D03*
X0147146Y0075114D03*
X0151476Y0075114D03*
X0151476Y0079445D03*
X0147146Y0079445D03*
X0135146Y0079445D03*
X0135146Y0075114D03*
X0135146Y0070783D03*
X0130815Y0070783D03*
X0130815Y0075114D03*
X0130815Y0079445D03*
X0130815Y0066453D03*
X0135146Y0066453D03*
X0135146Y0062122D03*
X0135146Y0057791D03*
X0135146Y0053461D03*
X0130815Y0053461D03*
X0130815Y0057791D03*
X0130815Y0062122D03*
X0130815Y0049130D03*
X0135146Y0049130D03*
X0135146Y0044799D03*
X0130815Y0044799D03*
X0284925Y0044799D03*
X0289256Y0044799D03*
X0289256Y0049130D03*
X0284925Y0049130D03*
X0284925Y0053461D03*
X0284925Y0057791D03*
X0289256Y0057791D03*
X0289256Y0053461D03*
X0289256Y0062122D03*
X0289256Y0066453D03*
X0284925Y0066453D03*
X0284925Y0062122D03*
X0284925Y0070783D03*
X0289256Y0070783D03*
X0289256Y0075114D03*
X0284925Y0075114D03*
X0284925Y0079445D03*
X0289256Y0079445D03*
X0301256Y0079445D03*
X0305587Y0079445D03*
X0305587Y0075114D03*
X0305587Y0070783D03*
X0301256Y0070783D03*
X0301256Y0075114D03*
X0301256Y0066453D03*
X0305587Y0066453D03*
X0305587Y0062122D03*
X0305587Y0057791D03*
X0305587Y0053461D03*
X0301256Y0053461D03*
X0301256Y0057791D03*
X0301256Y0062122D03*
X0301256Y0049130D03*
X0305587Y0049130D03*
X0305587Y0044799D03*
X0301256Y0044799D03*
X0336295Y0044799D03*
X0336295Y0049130D03*
X0340626Y0049130D03*
X0340626Y0044799D03*
X0340626Y0053461D03*
X0340626Y0057791D03*
X0336295Y0057791D03*
X0336295Y0053461D03*
X0336295Y0062122D03*
X0336295Y0066453D03*
X0340626Y0066453D03*
X0340626Y0062122D03*
X0340626Y0070783D03*
X0336295Y0070783D03*
X0336295Y0075114D03*
X0336295Y0079445D03*
X0340626Y0079445D03*
X0340626Y0075114D03*
X0340626Y0102075D03*
X0340626Y0106406D03*
X0340626Y0110736D03*
X0336295Y0110736D03*
X0336295Y0106406D03*
X0336295Y0102075D03*
X0336295Y0115067D03*
X0336295Y0119398D03*
X0340626Y0119398D03*
X0340626Y0115067D03*
X0340626Y0123728D03*
X0336295Y0123728D03*
X0336295Y0128059D03*
X0336295Y0132390D03*
X0336295Y0136720D03*
X0340626Y0136720D03*
X0340626Y0132390D03*
X0340626Y0128059D03*
X0340626Y0159350D03*
X0336295Y0159350D03*
X0336295Y0163681D03*
X0336295Y0168012D03*
X0340626Y0168012D03*
X0340626Y0163681D03*
X0340626Y0172343D03*
X0340626Y0176673D03*
X0336295Y0176673D03*
X0336295Y0172343D03*
X0336295Y0181004D03*
X0336295Y0185335D03*
X0336295Y0189665D03*
X0340626Y0189665D03*
X0340626Y0185335D03*
X0340626Y0181004D03*
X0340626Y0193996D03*
X0336295Y0193996D03*
X0336295Y0216626D03*
X0336295Y0220957D03*
X0340626Y0220957D03*
X0340626Y0216626D03*
X0340626Y0225287D03*
X0336295Y0225287D03*
X0336295Y0229618D03*
X0336295Y0233949D03*
X0336295Y0238280D03*
X0340626Y0238280D03*
X0340626Y0233949D03*
X0340626Y0229618D03*
X0340626Y0242610D03*
X0336295Y0242610D03*
X0336295Y0246941D03*
X0336295Y0251272D03*
X0340626Y0251272D03*
X0340626Y0246941D03*
X0340626Y0273902D03*
X0336295Y0273902D03*
X0336295Y0278232D03*
X0340626Y0278232D03*
X0340626Y0282563D03*
X0336295Y0282563D03*
X0336295Y0286894D03*
X0336295Y0291224D03*
X0340626Y0291224D03*
X0340626Y0286894D03*
X0340626Y0295555D03*
X0336295Y0295555D03*
X0336295Y0299886D03*
X0336295Y0304217D03*
X0336295Y0308547D03*
X0340626Y0308547D03*
X0340626Y0304217D03*
X0340626Y0299886D03*
X0305587Y0299886D03*
X0305587Y0304217D03*
X0305587Y0308547D03*
X0301256Y0308547D03*
X0301256Y0304217D03*
X0301256Y0299886D03*
X0301256Y0295555D03*
X0305587Y0295555D03*
X0305587Y0291224D03*
X0305587Y0286894D03*
X0305587Y0282563D03*
X0305587Y0278232D03*
X0301256Y0278232D03*
X0301256Y0282563D03*
X0301256Y0286894D03*
X0301256Y0291224D03*
X0289256Y0291224D03*
X0289256Y0286894D03*
X0284925Y0286894D03*
X0284925Y0291224D03*
X0284925Y0295555D03*
X0284925Y0299886D03*
X0284925Y0304217D03*
X0284925Y0308547D03*
X0289256Y0308547D03*
X0289256Y0304217D03*
X0289256Y0299886D03*
X0289256Y0295555D03*
X0289256Y0282563D03*
X0289256Y0278232D03*
X0284925Y0278232D03*
X0284925Y0282563D03*
X0284925Y0273902D03*
X0289256Y0273902D03*
X0301256Y0273902D03*
X0305587Y0273902D03*
X0305587Y0251272D03*
X0305587Y0246941D03*
X0305587Y0242610D03*
X0301256Y0242610D03*
X0301256Y0246941D03*
X0301256Y0251272D03*
X0289256Y0251272D03*
X0284925Y0251272D03*
X0284925Y0246941D03*
X0284925Y0242610D03*
X0289256Y0242610D03*
X0289256Y0246941D03*
X0289256Y0238280D03*
X0284925Y0238280D03*
X0284925Y0233949D03*
X0284925Y0229618D03*
X0284925Y0225287D03*
X0289256Y0225287D03*
X0289256Y0229618D03*
X0289256Y0233949D03*
X0301256Y0233949D03*
X0301256Y0238280D03*
X0305587Y0238280D03*
X0305587Y0233949D03*
X0305587Y0229618D03*
X0305587Y0225287D03*
X0301256Y0225287D03*
X0301256Y0229618D03*
X0301256Y0220957D03*
X0305587Y0220957D03*
X0305587Y0216626D03*
X0301256Y0216626D03*
X0289256Y0216626D03*
X0289256Y0220957D03*
X0284925Y0220957D03*
X0284925Y0216626D03*
X0284925Y0193996D03*
X0289256Y0193996D03*
X0289256Y0189665D03*
X0289256Y0185335D03*
X0284925Y0185335D03*
X0284925Y0189665D03*
X0284925Y0181004D03*
X0284925Y0176673D03*
X0284925Y0172343D03*
X0289256Y0172343D03*
X0289256Y0176673D03*
X0289256Y0181004D03*
X0301256Y0181004D03*
X0305587Y0181004D03*
X0305587Y0185335D03*
X0305587Y0189665D03*
X0301256Y0189665D03*
X0301256Y0185335D03*
X0301256Y0176673D03*
X0301256Y0172343D03*
X0305587Y0172343D03*
X0305587Y0176673D03*
X0305587Y0168012D03*
X0305587Y0163681D03*
X0305587Y0159350D03*
X0301256Y0159350D03*
X0301256Y0163681D03*
X0301256Y0168012D03*
X0289256Y0168012D03*
X0284925Y0168012D03*
X0284925Y0163681D03*
X0284925Y0159350D03*
X0289256Y0159350D03*
X0289256Y0163681D03*
X0289256Y0136720D03*
X0289256Y0132390D03*
X0284925Y0132390D03*
X0284925Y0136720D03*
X0284925Y0128059D03*
X0284925Y0123728D03*
X0289256Y0123728D03*
X0289256Y0128059D03*
X0289256Y0119398D03*
X0284925Y0119398D03*
X0284925Y0115067D03*
X0284925Y0110736D03*
X0284925Y0106406D03*
X0289256Y0106406D03*
X0289256Y0110736D03*
X0289256Y0115067D03*
X0301256Y0115067D03*
X0305587Y0115067D03*
X0305587Y0119398D03*
X0301256Y0119398D03*
X0301256Y0123728D03*
X0305587Y0123728D03*
X0305587Y0128059D03*
X0305587Y0132390D03*
X0305587Y0136720D03*
X0301256Y0136720D03*
X0301256Y0132390D03*
X0301256Y0128059D03*
X0301256Y0110736D03*
X0301256Y0106406D03*
X0305587Y0106406D03*
X0305587Y0110736D03*
X0305587Y0102075D03*
X0301256Y0102075D03*
X0289256Y0102075D03*
X0284925Y0102075D03*
X0301256Y0193996D03*
X0305587Y0193996D03*
D12*
X0313637Y0193260D03*
X0313637Y0189520D03*
X0313637Y0185780D03*
X0323874Y0185780D03*
X0323874Y0193260D03*
X0272504Y0193260D03*
X0272504Y0185780D03*
X0262267Y0185780D03*
X0262267Y0189520D03*
X0262267Y0193260D03*
X0221134Y0193260D03*
X0221134Y0185780D03*
X0210897Y0185780D03*
X0210897Y0189520D03*
X0210897Y0193260D03*
X0169764Y0193260D03*
X0169764Y0185780D03*
X0159527Y0185780D03*
X0159527Y0189520D03*
X0159527Y0193260D03*
X0118394Y0193260D03*
X0118394Y0185780D03*
X0108157Y0185780D03*
X0108157Y0189520D03*
X0108157Y0193260D03*
X0067024Y0193260D03*
X0056787Y0193260D03*
X0056787Y0189520D03*
X0056787Y0185780D03*
X0067024Y0185780D03*
X0067024Y0135984D03*
X0067024Y0128504D03*
X0056787Y0128504D03*
X0056787Y0132244D03*
X0056787Y0135984D03*
X0108157Y0135984D03*
X0108157Y0132244D03*
X0108157Y0128504D03*
X0118394Y0128504D03*
X0118394Y0135984D03*
X0159527Y0135984D03*
X0159527Y0132244D03*
X0159527Y0128504D03*
X0169764Y0128504D03*
X0169764Y0135984D03*
X0210897Y0135984D03*
X0210897Y0132244D03*
X0210897Y0128504D03*
X0221134Y0128504D03*
X0221134Y0135984D03*
X0262267Y0135984D03*
X0262267Y0132244D03*
X0262267Y0128504D03*
X0272504Y0128504D03*
X0272504Y0135984D03*
X0313637Y0135984D03*
X0313637Y0132244D03*
X0313637Y0128504D03*
X0323874Y0128504D03*
X0323874Y0135984D03*
X0323874Y0078709D03*
X0323874Y0071228D03*
X0313637Y0071228D03*
X0313637Y0074969D03*
X0313637Y0078709D03*
X0272504Y0078709D03*
X0272504Y0071228D03*
X0262267Y0071228D03*
X0262267Y0074969D03*
X0262267Y0078709D03*
X0221134Y0078709D03*
X0221134Y0071228D03*
X0210897Y0071228D03*
X0210897Y0074969D03*
X0210897Y0078709D03*
X0169764Y0078709D03*
X0169764Y0071228D03*
X0159527Y0071228D03*
X0159527Y0074969D03*
X0159527Y0078709D03*
X0118394Y0078709D03*
X0118394Y0071228D03*
X0108157Y0071228D03*
X0108157Y0074969D03*
X0108157Y0078709D03*
X0067024Y0078709D03*
X0067024Y0071228D03*
X0056787Y0071228D03*
X0056787Y0074969D03*
X0056787Y0078709D03*
X0056787Y0243055D03*
X0056787Y0246795D03*
X0056787Y0250535D03*
X0067024Y0250535D03*
X0067024Y0243055D03*
X0108157Y0243055D03*
X0108157Y0246795D03*
X0108157Y0250535D03*
X0118394Y0250535D03*
X0118394Y0243055D03*
X0159527Y0243055D03*
X0159527Y0246795D03*
X0159527Y0250535D03*
X0169764Y0250535D03*
X0169764Y0243055D03*
X0210897Y0243055D03*
X0210897Y0246795D03*
X0210897Y0250535D03*
X0221134Y0250535D03*
X0221134Y0243055D03*
X0262267Y0243055D03*
X0262267Y0246795D03*
X0262267Y0250535D03*
X0272504Y0250535D03*
X0272504Y0243055D03*
X0313637Y0243055D03*
X0313637Y0246795D03*
X0313637Y0250535D03*
X0323874Y0250535D03*
X0323874Y0243055D03*
X0323874Y0300331D03*
X0323874Y0307811D03*
X0313637Y0307811D03*
X0313637Y0304071D03*
X0313637Y0300331D03*
X0272504Y0300331D03*
X0272504Y0307811D03*
X0262267Y0307811D03*
X0262267Y0304071D03*
X0262267Y0300331D03*
X0221134Y0300331D03*
X0221134Y0307811D03*
X0210897Y0307811D03*
X0210897Y0304071D03*
X0210897Y0300331D03*
X0169764Y0300331D03*
X0169764Y0307811D03*
X0159527Y0307811D03*
X0159527Y0304071D03*
X0159527Y0300331D03*
X0118394Y0300331D03*
X0118394Y0307811D03*
X0108157Y0307811D03*
X0108157Y0304071D03*
X0108157Y0300331D03*
X0067024Y0300331D03*
X0067024Y0307811D03*
X0056787Y0307811D03*
X0056787Y0304071D03*
X0056787Y0300331D03*
D13*
X0061405Y0293571D03*
X0063405Y0293571D03*
X0067405Y0293571D03*
X0069405Y0293571D03*
X0112776Y0293571D03*
X0114776Y0293571D03*
X0118776Y0293571D03*
X0120776Y0293571D03*
X0164146Y0293571D03*
X0166146Y0293571D03*
X0170146Y0293571D03*
X0172146Y0293571D03*
X0215516Y0293571D03*
X0217516Y0293571D03*
X0221516Y0293571D03*
X0223516Y0293571D03*
X0266886Y0293571D03*
X0268886Y0293571D03*
X0272886Y0293571D03*
X0274886Y0293571D03*
X0318256Y0293571D03*
X0320256Y0293571D03*
X0324256Y0293571D03*
X0326256Y0293571D03*
X0326256Y0236295D03*
X0324256Y0236295D03*
X0320256Y0236295D03*
X0318256Y0236295D03*
X0274886Y0236295D03*
X0272886Y0236295D03*
X0268886Y0236295D03*
X0266886Y0236295D03*
X0223516Y0236295D03*
X0221516Y0236295D03*
X0217516Y0236295D03*
X0215516Y0236295D03*
X0172146Y0236295D03*
X0170146Y0236295D03*
X0166146Y0236295D03*
X0164146Y0236295D03*
X0120776Y0236295D03*
X0118776Y0236295D03*
X0114776Y0236295D03*
X0112776Y0236295D03*
X0069405Y0236295D03*
X0067405Y0236295D03*
X0063405Y0236295D03*
X0061405Y0236295D03*
X0061405Y0179020D03*
X0063405Y0179020D03*
X0067405Y0179020D03*
X0069405Y0179020D03*
X0112776Y0179020D03*
X0114776Y0179020D03*
X0118776Y0179020D03*
X0120776Y0179020D03*
X0164146Y0179020D03*
X0166146Y0179020D03*
X0170146Y0179020D03*
X0172146Y0179020D03*
X0215516Y0179020D03*
X0217516Y0179020D03*
X0221516Y0179020D03*
X0223516Y0179020D03*
X0266886Y0179020D03*
X0268886Y0179020D03*
X0272886Y0179020D03*
X0274886Y0179020D03*
X0318256Y0179020D03*
X0320256Y0179020D03*
X0324256Y0179020D03*
X0326256Y0179020D03*
X0326256Y0121744D03*
X0324256Y0121744D03*
X0320256Y0121744D03*
X0318256Y0121744D03*
X0274886Y0121744D03*
X0272886Y0121744D03*
X0268886Y0121744D03*
X0266886Y0121744D03*
X0223516Y0121744D03*
X0221516Y0121744D03*
X0217516Y0121744D03*
X0215516Y0121744D03*
X0172146Y0121744D03*
X0170146Y0121744D03*
X0166146Y0121744D03*
X0164146Y0121744D03*
X0120776Y0121744D03*
X0118776Y0121744D03*
X0114776Y0121744D03*
X0112776Y0121744D03*
X0069405Y0121744D03*
X0067405Y0121744D03*
X0063405Y0121744D03*
X0061405Y0121744D03*
X0061405Y0064469D03*
X0063405Y0064469D03*
X0067405Y0064469D03*
X0069405Y0064469D03*
X0112776Y0064469D03*
X0114776Y0064469D03*
X0118776Y0064469D03*
X0120776Y0064469D03*
X0164146Y0064469D03*
X0166146Y0064469D03*
X0170146Y0064469D03*
X0172146Y0064469D03*
X0215516Y0064469D03*
X0217516Y0064469D03*
X0221516Y0064469D03*
X0223516Y0064469D03*
X0266886Y0064469D03*
X0268886Y0064469D03*
X0272886Y0064469D03*
X0274886Y0064469D03*
X0318256Y0064469D03*
X0320256Y0064469D03*
X0324256Y0064469D03*
X0326256Y0064469D03*
D14*
X0324709Y0057693D03*
X0322740Y0057693D03*
X0320772Y0057693D03*
X0318803Y0057693D03*
X0317031Y0055921D03*
X0317031Y0053953D03*
X0317031Y0051984D03*
X0317031Y0050016D03*
X0318803Y0048244D03*
X0320772Y0048244D03*
X0322740Y0048244D03*
X0324709Y0048244D03*
X0326480Y0050016D03*
X0326480Y0051984D03*
X0326480Y0053953D03*
X0326480Y0055921D03*
X0275110Y0055921D03*
X0275110Y0053953D03*
X0275110Y0051984D03*
X0275110Y0050016D03*
X0273339Y0048244D03*
X0271370Y0048244D03*
X0269402Y0048244D03*
X0267433Y0048244D03*
X0265661Y0050016D03*
X0265661Y0051984D03*
X0265661Y0053953D03*
X0265661Y0055921D03*
X0267433Y0057693D03*
X0269402Y0057693D03*
X0271370Y0057693D03*
X0273339Y0057693D03*
X0273339Y0105520D03*
X0271370Y0105520D03*
X0269402Y0105520D03*
X0267433Y0105520D03*
X0265661Y0107291D03*
X0265661Y0109260D03*
X0265661Y0111228D03*
X0265661Y0113197D03*
X0267433Y0114969D03*
X0269402Y0114969D03*
X0271370Y0114969D03*
X0273339Y0114969D03*
X0275110Y0113197D03*
X0275110Y0111228D03*
X0275110Y0109260D03*
X0275110Y0107291D03*
X0317031Y0107291D03*
X0317031Y0109260D03*
X0317031Y0111228D03*
X0317031Y0113197D03*
X0318803Y0114969D03*
X0320772Y0114969D03*
X0322740Y0114969D03*
X0324709Y0114969D03*
X0326480Y0113197D03*
X0326480Y0111228D03*
X0326480Y0109260D03*
X0326480Y0107291D03*
X0324709Y0105520D03*
X0322740Y0105520D03*
X0320772Y0105520D03*
X0318803Y0105520D03*
X0318803Y0162795D03*
X0320772Y0162795D03*
X0322740Y0162795D03*
X0324709Y0162795D03*
X0326480Y0164567D03*
X0326480Y0166535D03*
X0326480Y0168504D03*
X0326480Y0170472D03*
X0324709Y0172244D03*
X0322740Y0172244D03*
X0320772Y0172244D03*
X0318803Y0172244D03*
X0317031Y0170472D03*
X0317031Y0168504D03*
X0317031Y0166535D03*
X0317031Y0164567D03*
X0275110Y0164567D03*
X0275110Y0166535D03*
X0275110Y0168504D03*
X0275110Y0170472D03*
X0273339Y0172244D03*
X0271370Y0172244D03*
X0269402Y0172244D03*
X0267433Y0172244D03*
X0265661Y0170472D03*
X0265661Y0168504D03*
X0265661Y0166535D03*
X0265661Y0164567D03*
X0267433Y0162795D03*
X0269402Y0162795D03*
X0271370Y0162795D03*
X0273339Y0162795D03*
X0223740Y0164567D03*
X0223740Y0166535D03*
X0223740Y0168504D03*
X0223740Y0170472D03*
X0221968Y0172244D03*
X0220000Y0172244D03*
X0218031Y0172244D03*
X0216063Y0172244D03*
X0214291Y0170472D03*
X0214291Y0168504D03*
X0214291Y0166535D03*
X0214291Y0164567D03*
X0216063Y0162795D03*
X0218031Y0162795D03*
X0220000Y0162795D03*
X0221968Y0162795D03*
X0172370Y0164567D03*
X0172370Y0166535D03*
X0172370Y0168504D03*
X0172370Y0170472D03*
X0170598Y0172244D03*
X0168630Y0172244D03*
X0166661Y0172244D03*
X0164693Y0172244D03*
X0162921Y0170472D03*
X0162921Y0168504D03*
X0162921Y0166535D03*
X0162921Y0164567D03*
X0164693Y0162795D03*
X0166661Y0162795D03*
X0168630Y0162795D03*
X0170598Y0162795D03*
X0121000Y0164567D03*
X0121000Y0166535D03*
X0121000Y0168504D03*
X0121000Y0170472D03*
X0119228Y0172244D03*
X0117260Y0172244D03*
X0115291Y0172244D03*
X0113323Y0172244D03*
X0111551Y0170472D03*
X0111551Y0168504D03*
X0111551Y0166535D03*
X0111551Y0164567D03*
X0113323Y0162795D03*
X0115291Y0162795D03*
X0117260Y0162795D03*
X0119228Y0162795D03*
X0069630Y0164567D03*
X0069630Y0166535D03*
X0069630Y0168504D03*
X0069630Y0170472D03*
X0067858Y0172244D03*
X0065890Y0172244D03*
X0063921Y0172244D03*
X0061953Y0172244D03*
X0060181Y0170472D03*
X0060181Y0168504D03*
X0060181Y0166535D03*
X0060181Y0164567D03*
X0061953Y0162795D03*
X0063921Y0162795D03*
X0065890Y0162795D03*
X0067858Y0162795D03*
X0067858Y0114969D03*
X0065890Y0114969D03*
X0063921Y0114969D03*
X0061953Y0114969D03*
X0060181Y0113197D03*
X0060181Y0111228D03*
X0060181Y0109260D03*
X0060181Y0107291D03*
X0061953Y0105520D03*
X0063921Y0105520D03*
X0065890Y0105520D03*
X0067858Y0105520D03*
X0069630Y0107291D03*
X0069630Y0109260D03*
X0069630Y0111228D03*
X0069630Y0113197D03*
X0111551Y0113197D03*
X0111551Y0111228D03*
X0111551Y0109260D03*
X0111551Y0107291D03*
X0113323Y0105520D03*
X0115291Y0105520D03*
X0117260Y0105520D03*
X0119228Y0105520D03*
X0121000Y0107291D03*
X0121000Y0109260D03*
X0121000Y0111228D03*
X0121000Y0113197D03*
X0119228Y0114969D03*
X0117260Y0114969D03*
X0115291Y0114969D03*
X0113323Y0114969D03*
X0162921Y0113197D03*
X0162921Y0111228D03*
X0162921Y0109260D03*
X0162921Y0107291D03*
X0164693Y0105520D03*
X0166661Y0105520D03*
X0168630Y0105520D03*
X0170598Y0105520D03*
X0172370Y0107291D03*
X0172370Y0109260D03*
X0172370Y0111228D03*
X0172370Y0113197D03*
X0170598Y0114969D03*
X0168630Y0114969D03*
X0166661Y0114969D03*
X0164693Y0114969D03*
X0214291Y0113197D03*
X0214291Y0111228D03*
X0214291Y0109260D03*
X0214291Y0107291D03*
X0216063Y0105520D03*
X0218031Y0105520D03*
X0220000Y0105520D03*
X0221968Y0105520D03*
X0223740Y0107291D03*
X0223740Y0109260D03*
X0223740Y0111228D03*
X0223740Y0113197D03*
X0221968Y0114969D03*
X0220000Y0114969D03*
X0218031Y0114969D03*
X0216063Y0114969D03*
X0216063Y0057693D03*
X0218031Y0057693D03*
X0220000Y0057693D03*
X0221968Y0057693D03*
X0223740Y0055921D03*
X0223740Y0053953D03*
X0223740Y0051984D03*
X0223740Y0050016D03*
X0221968Y0048244D03*
X0220000Y0048244D03*
X0218031Y0048244D03*
X0216063Y0048244D03*
X0214291Y0050016D03*
X0214291Y0051984D03*
X0214291Y0053953D03*
X0214291Y0055921D03*
X0172370Y0055921D03*
X0172370Y0053953D03*
X0172370Y0051984D03*
X0172370Y0050016D03*
X0170598Y0048244D03*
X0168630Y0048244D03*
X0166661Y0048244D03*
X0164693Y0048244D03*
X0162921Y0050016D03*
X0162921Y0051984D03*
X0162921Y0053953D03*
X0162921Y0055921D03*
X0164693Y0057693D03*
X0166661Y0057693D03*
X0168630Y0057693D03*
X0170598Y0057693D03*
X0121000Y0055921D03*
X0121000Y0053953D03*
X0121000Y0051984D03*
X0121000Y0050016D03*
X0119228Y0048244D03*
X0117260Y0048244D03*
X0115291Y0048244D03*
X0113323Y0048244D03*
X0111551Y0050016D03*
X0111551Y0051984D03*
X0111551Y0053953D03*
X0111551Y0055921D03*
X0113323Y0057693D03*
X0115291Y0057693D03*
X0117260Y0057693D03*
X0119228Y0057693D03*
X0069630Y0055921D03*
X0069630Y0053953D03*
X0069630Y0051984D03*
X0069630Y0050016D03*
X0067858Y0048244D03*
X0065890Y0048244D03*
X0063921Y0048244D03*
X0061953Y0048244D03*
X0060181Y0050016D03*
X0060181Y0051984D03*
X0060181Y0053953D03*
X0060181Y0055921D03*
X0061953Y0057693D03*
X0063921Y0057693D03*
X0065890Y0057693D03*
X0067858Y0057693D03*
X0067858Y0220071D03*
X0065890Y0220071D03*
X0063921Y0220071D03*
X0061953Y0220071D03*
X0060181Y0221843D03*
X0060181Y0223811D03*
X0060181Y0225780D03*
X0060181Y0227748D03*
X0061953Y0229520D03*
X0063921Y0229520D03*
X0065890Y0229520D03*
X0067858Y0229520D03*
X0069630Y0227748D03*
X0069630Y0225780D03*
X0069630Y0223811D03*
X0069630Y0221843D03*
X0111551Y0221843D03*
X0111551Y0223811D03*
X0111551Y0225780D03*
X0111551Y0227748D03*
X0113323Y0229520D03*
X0115291Y0229520D03*
X0117260Y0229520D03*
X0119228Y0229520D03*
X0121000Y0227748D03*
X0121000Y0225780D03*
X0121000Y0223811D03*
X0121000Y0221843D03*
X0119228Y0220071D03*
X0117260Y0220071D03*
X0115291Y0220071D03*
X0113323Y0220071D03*
X0162921Y0221843D03*
X0162921Y0223811D03*
X0162921Y0225780D03*
X0162921Y0227748D03*
X0164693Y0229520D03*
X0166661Y0229520D03*
X0168630Y0229520D03*
X0170598Y0229520D03*
X0172370Y0227748D03*
X0172370Y0225780D03*
X0172370Y0223811D03*
X0172370Y0221843D03*
X0170598Y0220071D03*
X0168630Y0220071D03*
X0166661Y0220071D03*
X0164693Y0220071D03*
X0214291Y0221843D03*
X0214291Y0223811D03*
X0214291Y0225780D03*
X0214291Y0227748D03*
X0216063Y0229520D03*
X0218031Y0229520D03*
X0220000Y0229520D03*
X0221968Y0229520D03*
X0223740Y0227748D03*
X0223740Y0225780D03*
X0223740Y0223811D03*
X0223740Y0221843D03*
X0221968Y0220071D03*
X0220000Y0220071D03*
X0218031Y0220071D03*
X0216063Y0220071D03*
X0265661Y0221843D03*
X0265661Y0223811D03*
X0265661Y0225780D03*
X0265661Y0227748D03*
X0267433Y0229520D03*
X0269402Y0229520D03*
X0271370Y0229520D03*
X0273339Y0229520D03*
X0275110Y0227748D03*
X0275110Y0225780D03*
X0275110Y0223811D03*
X0275110Y0221843D03*
X0273339Y0220071D03*
X0271370Y0220071D03*
X0269402Y0220071D03*
X0267433Y0220071D03*
X0317031Y0221843D03*
X0317031Y0223811D03*
X0317031Y0225780D03*
X0317031Y0227748D03*
X0318803Y0229520D03*
X0320772Y0229520D03*
X0322740Y0229520D03*
X0324709Y0229520D03*
X0326480Y0227748D03*
X0326480Y0225780D03*
X0326480Y0223811D03*
X0326480Y0221843D03*
X0324709Y0220071D03*
X0322740Y0220071D03*
X0320772Y0220071D03*
X0318803Y0220071D03*
X0318803Y0277346D03*
X0320772Y0277346D03*
X0322740Y0277346D03*
X0324709Y0277346D03*
X0326480Y0279118D03*
X0326480Y0281087D03*
X0326480Y0283055D03*
X0326480Y0285024D03*
X0324709Y0286795D03*
X0322740Y0286795D03*
X0320772Y0286795D03*
X0318803Y0286795D03*
X0317031Y0285024D03*
X0317031Y0283055D03*
X0317031Y0281087D03*
X0317031Y0279118D03*
X0275110Y0279118D03*
X0275110Y0281087D03*
X0275110Y0283055D03*
X0275110Y0285024D03*
X0273339Y0286795D03*
X0271370Y0286795D03*
X0269402Y0286795D03*
X0267433Y0286795D03*
X0265661Y0285024D03*
X0265661Y0283055D03*
X0265661Y0281087D03*
X0265661Y0279118D03*
X0267433Y0277346D03*
X0269402Y0277346D03*
X0271370Y0277346D03*
X0273339Y0277346D03*
X0223740Y0279118D03*
X0223740Y0281087D03*
X0223740Y0283055D03*
X0223740Y0285024D03*
X0221968Y0286795D03*
X0220000Y0286795D03*
X0218031Y0286795D03*
X0216063Y0286795D03*
X0214291Y0285024D03*
X0214291Y0283055D03*
X0214291Y0281087D03*
X0214291Y0279118D03*
X0216063Y0277346D03*
X0218031Y0277346D03*
X0220000Y0277346D03*
X0221968Y0277346D03*
X0172370Y0279118D03*
X0172370Y0281087D03*
X0172370Y0283055D03*
X0172370Y0285024D03*
X0170598Y0286795D03*
X0168630Y0286795D03*
X0166661Y0286795D03*
X0164693Y0286795D03*
X0162921Y0285024D03*
X0162921Y0283055D03*
X0162921Y0281087D03*
X0162921Y0279118D03*
X0164693Y0277346D03*
X0166661Y0277346D03*
X0168630Y0277346D03*
X0170598Y0277346D03*
X0121000Y0279118D03*
X0121000Y0281087D03*
X0121000Y0283055D03*
X0121000Y0285024D03*
X0119228Y0286795D03*
X0117260Y0286795D03*
X0115291Y0286795D03*
X0113323Y0286795D03*
X0111551Y0285024D03*
X0111551Y0283055D03*
X0111551Y0281087D03*
X0111551Y0279118D03*
X0113323Y0277346D03*
X0115291Y0277346D03*
X0117260Y0277346D03*
X0119228Y0277346D03*
X0069630Y0279118D03*
X0069630Y0281087D03*
X0069630Y0283055D03*
X0069630Y0285024D03*
X0067858Y0286795D03*
X0065890Y0286795D03*
X0063921Y0286795D03*
X0061953Y0286795D03*
X0060181Y0285024D03*
X0060181Y0283055D03*
X0060181Y0281087D03*
X0060181Y0279118D03*
X0061953Y0277346D03*
X0063921Y0277346D03*
X0065890Y0277346D03*
X0067858Y0277346D03*
D15*
X0064905Y0282071D03*
X0116276Y0282071D03*
X0167646Y0282071D03*
X0219016Y0282071D03*
X0270386Y0282071D03*
X0321756Y0282071D03*
X0321756Y0224795D03*
X0270386Y0224795D03*
X0219016Y0224795D03*
X0167646Y0224795D03*
X0116276Y0224795D03*
X0064905Y0224795D03*
X0064905Y0167520D03*
X0116276Y0167520D03*
X0167646Y0167520D03*
X0219016Y0167520D03*
X0270386Y0167520D03*
X0321756Y0167520D03*
X0321756Y0110244D03*
X0270386Y0110244D03*
X0219016Y0110244D03*
X0167646Y0110244D03*
X0116276Y0110244D03*
X0064905Y0110244D03*
X0064905Y0052969D03*
X0116276Y0052969D03*
X0167646Y0052969D03*
X0219016Y0052969D03*
X0270386Y0052969D03*
X0321756Y0052969D03*
D16*
X0322740Y0059071D03*
X0320772Y0059071D03*
X0318803Y0059071D03*
X0324709Y0059071D03*
X0324709Y0046866D03*
X0322740Y0046866D03*
X0320772Y0046866D03*
X0318803Y0046866D03*
X0273339Y0046866D03*
X0271370Y0046866D03*
X0269402Y0046866D03*
X0267433Y0046866D03*
X0267433Y0059071D03*
X0269402Y0059071D03*
X0271370Y0059071D03*
X0273339Y0059071D03*
X0273339Y0104142D03*
X0271370Y0104142D03*
X0269402Y0104142D03*
X0267433Y0104142D03*
X0267433Y0116346D03*
X0269402Y0116346D03*
X0271370Y0116346D03*
X0273339Y0116346D03*
X0273339Y0161417D03*
X0271370Y0161417D03*
X0269402Y0161417D03*
X0267433Y0161417D03*
X0267433Y0173622D03*
X0269402Y0173622D03*
X0271370Y0173622D03*
X0273339Y0173622D03*
X0318803Y0173622D03*
X0320772Y0173622D03*
X0322740Y0173622D03*
X0324709Y0173622D03*
X0324709Y0161417D03*
X0322740Y0161417D03*
X0320772Y0161417D03*
X0318803Y0161417D03*
X0318803Y0116346D03*
X0320772Y0116346D03*
X0322740Y0116346D03*
X0324709Y0116346D03*
X0324709Y0104142D03*
X0322740Y0104142D03*
X0320772Y0104142D03*
X0318803Y0104142D03*
X0221968Y0104142D03*
X0220000Y0104142D03*
X0218031Y0104142D03*
X0216063Y0104142D03*
X0216063Y0116346D03*
X0218031Y0116346D03*
X0220000Y0116346D03*
X0221968Y0116346D03*
X0221968Y0161417D03*
X0220000Y0161417D03*
X0218031Y0161417D03*
X0216063Y0161417D03*
X0216063Y0173622D03*
X0218031Y0173622D03*
X0220000Y0173622D03*
X0221968Y0173622D03*
X0221968Y0218693D03*
X0220000Y0218693D03*
X0218031Y0218693D03*
X0216063Y0218693D03*
X0216063Y0230898D03*
X0218031Y0230898D03*
X0220000Y0230898D03*
X0221968Y0230898D03*
X0267433Y0230898D03*
X0269402Y0230898D03*
X0271370Y0230898D03*
X0273339Y0230898D03*
X0273339Y0218693D03*
X0271370Y0218693D03*
X0269402Y0218693D03*
X0267433Y0218693D03*
X0318803Y0218693D03*
X0320772Y0218693D03*
X0322740Y0218693D03*
X0324709Y0218693D03*
X0324709Y0230898D03*
X0322740Y0230898D03*
X0320772Y0230898D03*
X0318803Y0230898D03*
X0318803Y0275969D03*
X0320772Y0275969D03*
X0322740Y0275969D03*
X0324709Y0275969D03*
X0324709Y0288173D03*
X0322740Y0288173D03*
X0320772Y0288173D03*
X0318803Y0288173D03*
X0273339Y0288173D03*
X0271370Y0288173D03*
X0269402Y0288173D03*
X0267433Y0288173D03*
X0267433Y0275969D03*
X0269402Y0275969D03*
X0271370Y0275969D03*
X0273339Y0275969D03*
X0221968Y0275969D03*
X0220000Y0275969D03*
X0218031Y0275969D03*
X0216063Y0275969D03*
X0216063Y0288173D03*
X0218031Y0288173D03*
X0220000Y0288173D03*
X0221968Y0288173D03*
X0170598Y0288173D03*
X0168630Y0288173D03*
X0166661Y0288173D03*
X0164693Y0288173D03*
X0164693Y0275969D03*
X0166661Y0275969D03*
X0168630Y0275969D03*
X0170598Y0275969D03*
X0170598Y0230898D03*
X0168630Y0230898D03*
X0166661Y0230898D03*
X0164693Y0230898D03*
X0164693Y0218693D03*
X0166661Y0218693D03*
X0168630Y0218693D03*
X0170598Y0218693D03*
X0170598Y0173622D03*
X0168630Y0173622D03*
X0166661Y0173622D03*
X0164693Y0173622D03*
X0164693Y0161417D03*
X0166661Y0161417D03*
X0168630Y0161417D03*
X0170598Y0161417D03*
X0170598Y0116346D03*
X0168630Y0116346D03*
X0166661Y0116346D03*
X0164693Y0116346D03*
X0164693Y0104142D03*
X0166661Y0104142D03*
X0168630Y0104142D03*
X0170598Y0104142D03*
X0170598Y0059071D03*
X0168630Y0059071D03*
X0166661Y0059071D03*
X0164693Y0059071D03*
X0164693Y0046866D03*
X0166661Y0046866D03*
X0168630Y0046866D03*
X0170598Y0046866D03*
X0216063Y0046866D03*
X0218031Y0046866D03*
X0220000Y0046866D03*
X0221968Y0046866D03*
X0221968Y0059071D03*
X0220000Y0059071D03*
X0218031Y0059071D03*
X0216063Y0059071D03*
X0119228Y0059071D03*
X0117260Y0059071D03*
X0115291Y0059071D03*
X0113323Y0059071D03*
X0113323Y0046866D03*
X0115291Y0046866D03*
X0117260Y0046866D03*
X0119228Y0046866D03*
X0067858Y0046866D03*
X0065890Y0046866D03*
X0063921Y0046866D03*
X0061953Y0046866D03*
X0061953Y0059071D03*
X0063921Y0059071D03*
X0065890Y0059071D03*
X0067858Y0059071D03*
X0067858Y0104142D03*
X0065890Y0104142D03*
X0063921Y0104142D03*
X0061953Y0104142D03*
X0061953Y0116346D03*
X0063921Y0116346D03*
X0065890Y0116346D03*
X0067858Y0116346D03*
X0067858Y0161417D03*
X0065890Y0161417D03*
X0063921Y0161417D03*
X0061953Y0161417D03*
X0061953Y0173622D03*
X0063921Y0173622D03*
X0065890Y0173622D03*
X0067858Y0173622D03*
X0113323Y0173622D03*
X0115291Y0173622D03*
X0117260Y0173622D03*
X0119228Y0173622D03*
X0119228Y0161417D03*
X0117260Y0161417D03*
X0115291Y0161417D03*
X0113323Y0161417D03*
X0113323Y0116346D03*
X0115291Y0116346D03*
X0117260Y0116346D03*
X0119228Y0116346D03*
X0119228Y0104142D03*
X0117260Y0104142D03*
X0115291Y0104142D03*
X0113323Y0104142D03*
X0113323Y0218693D03*
X0115291Y0218693D03*
X0117260Y0218693D03*
X0119228Y0218693D03*
X0119228Y0230898D03*
X0117260Y0230898D03*
X0115291Y0230898D03*
X0113323Y0230898D03*
X0067858Y0230898D03*
X0065890Y0230898D03*
X0063921Y0230898D03*
X0061953Y0230898D03*
X0061953Y0218693D03*
X0063921Y0218693D03*
X0065890Y0218693D03*
X0067858Y0218693D03*
X0067858Y0275969D03*
X0065890Y0275969D03*
X0063921Y0275969D03*
X0061953Y0275969D03*
X0061953Y0288173D03*
X0063921Y0288173D03*
X0065890Y0288173D03*
X0067858Y0288173D03*
X0113323Y0288173D03*
X0115291Y0288173D03*
X0117260Y0288173D03*
X0119228Y0288173D03*
X0119228Y0275969D03*
X0117260Y0275969D03*
X0115291Y0275969D03*
X0113323Y0275969D03*
D17*
X0110173Y0279118D03*
X0110173Y0281087D03*
X0110173Y0283055D03*
X0110173Y0285024D03*
X0122378Y0285024D03*
X0122378Y0283055D03*
X0122378Y0281087D03*
X0122378Y0279118D03*
X0161543Y0279118D03*
X0161543Y0281087D03*
X0161543Y0283055D03*
X0161543Y0285024D03*
X0173748Y0285024D03*
X0173748Y0283055D03*
X0173748Y0281087D03*
X0173748Y0279118D03*
X0212913Y0279118D03*
X0212913Y0281087D03*
X0212913Y0283055D03*
X0212913Y0285024D03*
X0225118Y0285024D03*
X0225118Y0283055D03*
X0225118Y0281087D03*
X0225118Y0279118D03*
X0264283Y0279118D03*
X0264283Y0281087D03*
X0264283Y0283055D03*
X0264283Y0285024D03*
X0276488Y0285024D03*
X0276488Y0283055D03*
X0276488Y0281087D03*
X0276488Y0279118D03*
X0315654Y0279118D03*
X0315654Y0281087D03*
X0315654Y0283055D03*
X0315654Y0285024D03*
X0327858Y0285024D03*
X0327858Y0283055D03*
X0327858Y0281087D03*
X0327858Y0279118D03*
X0327858Y0227748D03*
X0327858Y0225780D03*
X0327858Y0223811D03*
X0327858Y0221843D03*
X0315654Y0221843D03*
X0315654Y0223811D03*
X0315654Y0225780D03*
X0315654Y0227748D03*
X0276488Y0227748D03*
X0276488Y0225780D03*
X0276488Y0223811D03*
X0276488Y0221843D03*
X0264283Y0221843D03*
X0264283Y0223811D03*
X0264283Y0225780D03*
X0264283Y0227748D03*
X0225118Y0227748D03*
X0225118Y0225780D03*
X0225118Y0223811D03*
X0225118Y0221843D03*
X0212913Y0221843D03*
X0212913Y0223811D03*
X0212913Y0225780D03*
X0212913Y0227748D03*
X0173748Y0227748D03*
X0173748Y0225780D03*
X0173748Y0223811D03*
X0173748Y0221843D03*
X0161543Y0221843D03*
X0161543Y0223811D03*
X0161543Y0225780D03*
X0161543Y0227748D03*
X0122378Y0227748D03*
X0122378Y0225780D03*
X0122378Y0223811D03*
X0122378Y0221843D03*
X0110173Y0221843D03*
X0110173Y0223811D03*
X0110173Y0225780D03*
X0110173Y0227748D03*
X0071008Y0227748D03*
X0071008Y0225780D03*
X0071008Y0223811D03*
X0071008Y0221843D03*
X0058803Y0221843D03*
X0058803Y0223811D03*
X0058803Y0225780D03*
X0058803Y0227748D03*
X0058803Y0279118D03*
X0058803Y0281087D03*
X0058803Y0283055D03*
X0058803Y0285024D03*
X0071008Y0285024D03*
X0071008Y0283055D03*
X0071008Y0281087D03*
X0071008Y0279118D03*
X0071008Y0170472D03*
X0071008Y0168504D03*
X0071008Y0166535D03*
X0071008Y0164567D03*
X0058803Y0164567D03*
X0058803Y0166535D03*
X0058803Y0168504D03*
X0058803Y0170472D03*
X0110173Y0170472D03*
X0110173Y0168504D03*
X0110173Y0166535D03*
X0110173Y0164567D03*
X0122378Y0164567D03*
X0122378Y0166535D03*
X0122378Y0168504D03*
X0122378Y0170472D03*
X0161543Y0170472D03*
X0161543Y0168504D03*
X0161543Y0166535D03*
X0161543Y0164567D03*
X0173748Y0164567D03*
X0173748Y0166535D03*
X0173748Y0168504D03*
X0173748Y0170472D03*
X0212913Y0170472D03*
X0212913Y0168504D03*
X0212913Y0166535D03*
X0212913Y0164567D03*
X0225118Y0164567D03*
X0225118Y0166535D03*
X0225118Y0168504D03*
X0225118Y0170472D03*
X0264283Y0170472D03*
X0264283Y0168504D03*
X0264283Y0166535D03*
X0264283Y0164567D03*
X0276488Y0164567D03*
X0276488Y0166535D03*
X0276488Y0168504D03*
X0276488Y0170472D03*
X0315654Y0170472D03*
X0315654Y0168504D03*
X0315654Y0166535D03*
X0315654Y0164567D03*
X0327858Y0164567D03*
X0327858Y0166535D03*
X0327858Y0168504D03*
X0327858Y0170472D03*
X0327858Y0113197D03*
X0327858Y0111228D03*
X0327858Y0109260D03*
X0327858Y0107291D03*
X0315654Y0107291D03*
X0315654Y0109260D03*
X0315654Y0111228D03*
X0315654Y0113197D03*
X0276488Y0113197D03*
X0276488Y0111228D03*
X0276488Y0109260D03*
X0276488Y0107291D03*
X0264283Y0107291D03*
X0264283Y0109260D03*
X0264283Y0111228D03*
X0264283Y0113197D03*
X0225118Y0113197D03*
X0225118Y0111228D03*
X0225118Y0109260D03*
X0225118Y0107291D03*
X0212913Y0107291D03*
X0212913Y0109260D03*
X0212913Y0111228D03*
X0212913Y0113197D03*
X0173748Y0113197D03*
X0173748Y0111228D03*
X0173748Y0109260D03*
X0173748Y0107291D03*
X0161543Y0107291D03*
X0161543Y0109260D03*
X0161543Y0111228D03*
X0161543Y0113197D03*
X0122378Y0113197D03*
X0122378Y0111228D03*
X0122378Y0109260D03*
X0122378Y0107291D03*
X0110173Y0107291D03*
X0110173Y0109260D03*
X0110173Y0111228D03*
X0110173Y0113197D03*
X0071008Y0113197D03*
X0071008Y0111228D03*
X0071008Y0109260D03*
X0071008Y0107291D03*
X0058803Y0107291D03*
X0058803Y0109260D03*
X0058803Y0111228D03*
X0058803Y0113197D03*
X0058803Y0055921D03*
X0058803Y0053953D03*
X0058803Y0051984D03*
X0058803Y0050016D03*
X0071008Y0050016D03*
X0071008Y0051984D03*
X0071008Y0053953D03*
X0071008Y0055921D03*
X0110173Y0055921D03*
X0110173Y0053953D03*
X0110173Y0051984D03*
X0110173Y0050016D03*
X0122378Y0050016D03*
X0122378Y0051984D03*
X0122378Y0053953D03*
X0122378Y0055921D03*
X0161543Y0055921D03*
X0161543Y0053953D03*
X0161543Y0051984D03*
X0161543Y0050016D03*
X0173748Y0050016D03*
X0173748Y0051984D03*
X0173748Y0053953D03*
X0173748Y0055921D03*
X0212913Y0055921D03*
X0212913Y0053953D03*
X0212913Y0051984D03*
X0212913Y0050016D03*
X0225118Y0050016D03*
X0225118Y0051984D03*
X0225118Y0053953D03*
X0225118Y0055921D03*
X0264283Y0055921D03*
X0264283Y0053953D03*
X0264283Y0051984D03*
X0264283Y0050016D03*
X0276488Y0050016D03*
X0276488Y0051984D03*
X0276488Y0053953D03*
X0276488Y0055921D03*
X0315654Y0055921D03*
X0315654Y0053953D03*
X0315654Y0051984D03*
X0315654Y0050016D03*
X0327858Y0050016D03*
X0327858Y0051984D03*
X0327858Y0053953D03*
X0327858Y0055921D03*
D18*
X0321756Y0052969D03*
X0270386Y0052969D03*
X0219016Y0052969D03*
X0167646Y0052969D03*
X0116276Y0052969D03*
X0064905Y0052969D03*
X0064905Y0110244D03*
X0116276Y0110244D03*
X0167646Y0110244D03*
X0219016Y0110244D03*
X0270386Y0110244D03*
X0321756Y0110244D03*
X0321756Y0167520D03*
X0270386Y0167520D03*
X0219016Y0167520D03*
X0167646Y0167520D03*
X0116276Y0167520D03*
X0064905Y0167520D03*
X0064905Y0224795D03*
X0116276Y0224795D03*
X0167646Y0224795D03*
X0219016Y0224795D03*
X0270386Y0224795D03*
X0321756Y0224795D03*
X0321756Y0282071D03*
X0270386Y0282071D03*
X0219016Y0282071D03*
X0167646Y0282071D03*
X0116276Y0282071D03*
X0064905Y0282071D03*
D19*
X0072905Y0299571D03*
X0124276Y0299571D03*
X0175646Y0299571D03*
X0227016Y0299571D03*
X0278386Y0299571D03*
X0329756Y0299571D03*
X0329756Y0242295D03*
X0278386Y0242295D03*
X0227016Y0242295D03*
X0175646Y0242295D03*
X0124276Y0242295D03*
X0072905Y0242295D03*
X0072905Y0185020D03*
X0124276Y0185020D03*
X0175646Y0185020D03*
X0227016Y0185020D03*
X0278386Y0185020D03*
X0329756Y0185020D03*
X0329756Y0127744D03*
X0278386Y0127744D03*
X0227016Y0127744D03*
X0175646Y0127744D03*
X0124276Y0127744D03*
X0072905Y0127744D03*
X0072905Y0070469D03*
X0124276Y0070469D03*
X0175646Y0070469D03*
X0227016Y0070469D03*
X0278386Y0070469D03*
X0329756Y0070469D03*
D20*
X0328756Y0075969D03*
X0328756Y0077969D03*
X0277386Y0077969D03*
X0277386Y0075969D03*
X0226016Y0075969D03*
X0226016Y0077969D03*
X0174646Y0077969D03*
X0174646Y0075969D03*
X0123276Y0075969D03*
X0123276Y0077969D03*
X0071905Y0077969D03*
X0071905Y0075969D03*
X0071905Y0133244D03*
X0071905Y0135244D03*
X0123276Y0135244D03*
X0123276Y0133244D03*
X0174646Y0133244D03*
X0174646Y0135244D03*
X0226016Y0135244D03*
X0226016Y0133244D03*
X0277386Y0133244D03*
X0277386Y0135244D03*
X0328756Y0135244D03*
X0328756Y0133244D03*
X0328756Y0190520D03*
X0328756Y0192520D03*
X0277386Y0192520D03*
X0277386Y0190520D03*
X0226016Y0190520D03*
X0226016Y0192520D03*
X0174646Y0192520D03*
X0174646Y0190520D03*
X0123276Y0190520D03*
X0123276Y0192520D03*
X0071905Y0192520D03*
X0071905Y0190520D03*
X0071905Y0247795D03*
X0071905Y0249795D03*
X0123276Y0249795D03*
X0123276Y0247795D03*
X0174646Y0247795D03*
X0174646Y0249795D03*
X0226016Y0249795D03*
X0226016Y0247795D03*
X0277386Y0247795D03*
X0277386Y0249795D03*
X0328756Y0249795D03*
X0328756Y0247795D03*
X0328756Y0305071D03*
X0328756Y0307071D03*
X0277386Y0307071D03*
X0277386Y0305071D03*
X0226016Y0305071D03*
X0226016Y0307071D03*
X0174646Y0307071D03*
X0174646Y0305071D03*
X0123276Y0305071D03*
X0123276Y0307071D03*
X0071905Y0307071D03*
X0071905Y0305071D03*
D21*
X0073405Y0271571D03*
X0066905Y0271571D03*
X0063405Y0271571D03*
X0055905Y0271571D03*
X0107276Y0271571D03*
X0114776Y0271571D03*
X0118276Y0271571D03*
X0124776Y0271571D03*
X0158646Y0271571D03*
X0166146Y0271571D03*
X0169646Y0271571D03*
X0176146Y0271571D03*
X0210016Y0271571D03*
X0217516Y0271571D03*
X0221016Y0271571D03*
X0227516Y0271571D03*
X0261386Y0271571D03*
X0268886Y0271571D03*
X0272386Y0271571D03*
X0278886Y0271571D03*
X0312756Y0271571D03*
X0320256Y0271571D03*
X0323756Y0271571D03*
X0330256Y0271571D03*
X0330256Y0214295D03*
X0323756Y0214295D03*
X0320256Y0214295D03*
X0312756Y0214295D03*
X0278886Y0214295D03*
X0272386Y0214295D03*
X0268886Y0214295D03*
X0261386Y0214295D03*
X0227516Y0214295D03*
X0221016Y0214295D03*
X0217516Y0214295D03*
X0210016Y0214295D03*
X0176146Y0214295D03*
X0169646Y0214295D03*
X0166146Y0214295D03*
X0158646Y0214295D03*
X0124776Y0214295D03*
X0118276Y0214295D03*
X0114776Y0214295D03*
X0107276Y0214295D03*
X0073405Y0214295D03*
X0066905Y0214295D03*
X0063405Y0214295D03*
X0055905Y0214295D03*
X0055905Y0157020D03*
X0063405Y0157020D03*
X0066905Y0157020D03*
X0073405Y0157020D03*
X0107276Y0157020D03*
X0114776Y0157020D03*
X0118276Y0157020D03*
X0124776Y0157020D03*
X0158646Y0157020D03*
X0166146Y0157020D03*
X0169646Y0157020D03*
X0176146Y0157020D03*
X0210016Y0157020D03*
X0217516Y0157020D03*
X0221016Y0157020D03*
X0227516Y0157020D03*
X0261386Y0157020D03*
X0268886Y0157020D03*
X0272386Y0157020D03*
X0278886Y0157020D03*
X0312756Y0157020D03*
X0320256Y0157020D03*
X0323756Y0157020D03*
X0330256Y0157020D03*
X0330256Y0099744D03*
X0323756Y0099744D03*
X0320256Y0099744D03*
X0312756Y0099744D03*
X0278886Y0099744D03*
X0272386Y0099744D03*
X0268886Y0099744D03*
X0261386Y0099744D03*
X0227516Y0099744D03*
X0221016Y0099744D03*
X0217516Y0099744D03*
X0210016Y0099744D03*
X0176146Y0099744D03*
X0169646Y0099744D03*
X0166146Y0099744D03*
X0158646Y0099744D03*
X0124776Y0099744D03*
X0118276Y0099744D03*
X0114776Y0099744D03*
X0107276Y0099744D03*
X0073405Y0099744D03*
X0066905Y0099744D03*
X0063405Y0099744D03*
X0055905Y0099744D03*
X0055905Y0042469D03*
X0063405Y0042469D03*
X0066905Y0042469D03*
X0073405Y0042469D03*
X0107276Y0042469D03*
X0114776Y0042469D03*
X0118276Y0042469D03*
X0124776Y0042469D03*
X0158646Y0042469D03*
X0166146Y0042469D03*
X0169646Y0042469D03*
X0176146Y0042469D03*
X0210016Y0042469D03*
X0217516Y0042469D03*
X0221016Y0042469D03*
X0227516Y0042469D03*
X0261386Y0042469D03*
X0268886Y0042469D03*
X0272386Y0042469D03*
X0278886Y0042469D03*
X0312756Y0042469D03*
X0320256Y0042469D03*
X0323756Y0042469D03*
X0330256Y0042469D03*
D22*
X0332034Y0050872D03*
X0329738Y0064969D03*
X0313256Y0066469D03*
X0309756Y0060969D03*
X0311478Y0050963D03*
X0316756Y0043469D03*
X0280664Y0050872D03*
X0278368Y0064969D03*
X0261886Y0066469D03*
X0258386Y0060969D03*
X0260108Y0050963D03*
X0265386Y0043469D03*
X0229294Y0050872D03*
X0226998Y0064969D03*
X0210516Y0066469D03*
X0207016Y0060969D03*
X0208738Y0050963D03*
X0214016Y0043469D03*
X0177924Y0050872D03*
X0175628Y0064969D03*
X0159146Y0066469D03*
X0155646Y0060969D03*
X0157368Y0050963D03*
X0162646Y0043469D03*
X0126554Y0050872D03*
X0124257Y0064969D03*
X0107776Y0066469D03*
X0104276Y0060969D03*
X0105998Y0050963D03*
X0111276Y0043469D03*
X0075183Y0050872D03*
X0072887Y0064969D03*
X0056405Y0066469D03*
X0052905Y0060969D03*
X0054628Y0050963D03*
X0059905Y0043469D03*
X0059905Y0100744D03*
X0054628Y0108238D03*
X0052905Y0118244D03*
X0056405Y0123744D03*
X0072887Y0122244D03*
X0075183Y0108147D03*
X0104276Y0118244D03*
X0107776Y0123744D03*
X0105998Y0108238D03*
X0111276Y0100744D03*
X0126554Y0108147D03*
X0124257Y0122244D03*
X0155646Y0118244D03*
X0159146Y0123744D03*
X0157368Y0108238D03*
X0162646Y0100744D03*
X0177924Y0108147D03*
X0175628Y0122244D03*
X0207016Y0118244D03*
X0210516Y0123744D03*
X0226998Y0122244D03*
X0229294Y0108147D03*
X0214016Y0100744D03*
X0208738Y0108238D03*
X0214016Y0158020D03*
X0208738Y0165514D03*
X0207016Y0175520D03*
X0210516Y0181020D03*
X0226998Y0179520D03*
X0229294Y0165423D03*
X0258386Y0175520D03*
X0261886Y0181020D03*
X0260108Y0165514D03*
X0265386Y0158020D03*
X0280664Y0165423D03*
X0278368Y0179520D03*
X0309756Y0175520D03*
X0313256Y0181020D03*
X0311478Y0165514D03*
X0316756Y0158020D03*
X0332034Y0165423D03*
X0329738Y0179520D03*
X0316756Y0215295D03*
X0311478Y0222790D03*
X0309756Y0232795D03*
X0313256Y0238295D03*
X0329738Y0236795D03*
X0332034Y0222698D03*
X0280664Y0222698D03*
X0278368Y0236795D03*
X0261886Y0238295D03*
X0258386Y0232795D03*
X0260108Y0222790D03*
X0265386Y0215295D03*
X0229294Y0222698D03*
X0226998Y0236795D03*
X0210516Y0238295D03*
X0207016Y0232795D03*
X0208738Y0222790D03*
X0214016Y0215295D03*
X0177924Y0222698D03*
X0175628Y0236795D03*
X0159146Y0238295D03*
X0155646Y0232795D03*
X0157368Y0222790D03*
X0162646Y0215295D03*
X0159146Y0181020D03*
X0155646Y0175520D03*
X0157368Y0165514D03*
X0162646Y0158020D03*
X0177924Y0165423D03*
X0175628Y0179520D03*
X0126554Y0165423D03*
X0124257Y0179520D03*
X0107776Y0181020D03*
X0104276Y0175520D03*
X0105998Y0165514D03*
X0111276Y0158020D03*
X0075183Y0165423D03*
X0072887Y0179520D03*
X0056405Y0181020D03*
X0052905Y0175520D03*
X0054628Y0165514D03*
X0059905Y0158020D03*
X0059905Y0215295D03*
X0054628Y0222790D03*
X0052905Y0232795D03*
X0056405Y0238295D03*
X0072887Y0236795D03*
X0075183Y0222698D03*
X0104276Y0232795D03*
X0107776Y0238295D03*
X0105998Y0222790D03*
X0111276Y0215295D03*
X0126554Y0222698D03*
X0124257Y0236795D03*
X0111276Y0272571D03*
X0105998Y0280065D03*
X0104276Y0290071D03*
X0107776Y0295571D03*
X0124257Y0294071D03*
X0126554Y0279974D03*
X0155646Y0290071D03*
X0159146Y0295571D03*
X0157368Y0280065D03*
X0162646Y0272571D03*
X0177924Y0279974D03*
X0175628Y0294071D03*
X0207016Y0290071D03*
X0210516Y0295571D03*
X0226998Y0294071D03*
X0229294Y0279974D03*
X0214016Y0272571D03*
X0208738Y0280065D03*
X0258386Y0290071D03*
X0261886Y0295571D03*
X0278368Y0294071D03*
X0280664Y0279974D03*
X0265386Y0272571D03*
X0260108Y0280065D03*
X0309756Y0290071D03*
X0313256Y0295571D03*
X0311478Y0280065D03*
X0316756Y0272571D03*
X0332034Y0279974D03*
X0329738Y0294071D03*
X0313256Y0123744D03*
X0309756Y0118244D03*
X0311478Y0108238D03*
X0316756Y0100744D03*
X0332034Y0108147D03*
X0329738Y0122244D03*
X0280664Y0108147D03*
X0278368Y0122244D03*
X0261886Y0123744D03*
X0258386Y0118244D03*
X0260108Y0108238D03*
X0265386Y0100744D03*
X0075183Y0279974D03*
X0072887Y0294071D03*
X0056405Y0295571D03*
X0052905Y0290071D03*
X0054628Y0280065D03*
X0059905Y0272571D03*
M02*
